NotoSansDevanagari-Light.ufo
<glyph name="percent.deva" format="2">
  <advance width="793"/>
  <unicode hex="0025"/>
  <outline>
    <contour>
      <point x="577" y="622" type="line"/>
      <point x="185" y="0" type="line"/>
      <point x="216" y="0" type="line"/>
      <point x="609" y="622" type="line"/>
    </contour>
    <contour>
      <point x="195" y="276" type="curve" smooth="yes"/>
      <point x="281" y="276"/>
      <point x="333" y="339"/>
      <point x="333" y="455" type="curve" smooth="yes"/>
      <point x="333" y="566"/>
      <point x="289" y="632"/>
      <point x="197" y="632" type="curve" smooth="yes"/>
      <point x="112" y="632"/>
      <point x="59" y="568"/>
      <point x="59" y="455" type="curve" smooth="yes"/>
      <point x="59" y="341"/>
      <point x="107" y="276"/>
    </contour>
    <contour>
      <point x="195" y="301" type="curve" smooth="yes"/>
      <point x="125" y="301"/>
      <point x="86" y="353"/>
      <point x="86" y="455" type="curve" smooth="yes"/>
      <point x="86" y="557"/>
      <point x="127" y="607"/>
      <point x="197" y="607" type="curve" smooth="yes"/>
      <point x="273" y="607"/>
      <point x="306" y="553"/>
      <point x="306" y="455" type="curve" smooth="yes"/>
      <point x="306" y="355"/>
      <point x="269" y="301"/>
    </contour>
    <contour>
      <point x="596" y="-10" type="curve" smooth="yes"/>
      <point x="682" y="-10"/>
      <point x="734" y="53"/>
      <point x="734" y="169" type="curve" smooth="yes"/>
      <point x="734" y="280"/>
      <point x="690" y="346"/>
      <point x="598" y="346" type="curve" smooth="yes"/>
      <point x="513" y="346"/>
      <point x="460" y="282"/>
      <point x="460" y="169" type="curve" smooth="yes"/>
      <point x="460" y="55"/>
      <point x="508" y="-10"/>
    </contour>
    <contour>
      <point x="596" y="15" type="curve" smooth="yes"/>
      <point x="526" y="15"/>
      <point x="487" y="67"/>
      <point x="487" y="169" type="curve" smooth="yes"/>
      <point x="487" y="271"/>
      <point x="528" y="321"/>
      <point x="598" y="321" type="curve" smooth="yes"/>
      <point x="674" y="321"/>
      <point x="707" y="267"/>
      <point x="707" y="169" type="curve" smooth="yes"/>
      <point x="707" y="69"/>
      <point x="670" y="15"/>
    </contour>
  </outline>
</glyph>
<glyph name="parenleft.deva" format="2">
  <advance width="323"/>
  <unicode hex="0028"/>
  <outline>
    <contour>
      <point x="226" y="-165" type="curve"/>
      <point x="256" y="-165" type="line"/>
      <point x="159" y="-29"/>
      <point x="105" y="140"/>
      <point x="105" y="330" type="curve" smooth="yes"/>
      <point x="105" y="522"/>
      <point x="159" y="696"/>
      <point x="256" y="832" type="curve"/>
      <point x="226" y="832" type="line"/>
      <point x="137" y="709"/>
      <point x="78" y="531"/>
      <point x="78" y="329" type="curve" smooth="yes"/>
      <point x="78" y="129"/>
      <point x="137" y="-37"/>
    </contour>
  </outline>
</glyph>
<glyph name="plus.deva" format="2">
  <advance width="551"/>
  <unicode hex="002B"/>
  <outline>
    <contour>
      <point x="263" y="309" type="line"/>
      <point x="263" y="103" type="line"/>
      <point x="289" y="103" type="line"/>
      <point x="289" y="309" type="line"/>
      <point x="494" y="309" type="line"/>
      <point x="494" y="335" type="line"/>
      <point x="289" y="335" type="line"/>
      <point x="289" y="538" type="line"/>
      <point x="263" y="538" type="line"/>
      <point x="263" y="335" type="line"/>
      <point x="58" y="335" type="line"/>
      <point x="58" y="309" type="line"/>
    </contour>
  </outline>
</glyph>
<glyph name="comma.deva" format="2">
  <advance width="208"/>
  <unicode hex="002C"/>
  <outline>
    <contour>
      <point x="47" y="-129" type="curve"/>
      <point x="69" y="-129" type="line"/>
      <point x="97" y="-60"/>
      <point x="119" y="30"/>
      <point x="134" y="104" type="curve"/>
      <point x="131" y="116" type="line"/>
      <point x="103" y="116" type="line"/>
      <point x="92" y="40"/>
      <point x="76" y="-32"/>
    </contour>
  </outline>
</glyph>
<glyph name="four.deva" format="2">
  <advance width="551"/>
  <unicode hex="0034"/>
  <outline>
    <contour>
      <point x="377" y="193" type="line"/>
      <point x="377" y="0" type="line"/>
      <point x="404" y="0" type="line"/>
      <point x="404" y="193" type="line"/>
      <point x="527" y="193" type="line"/>
      <point x="527" y="219" type="line"/>
      <point x="404" y="219" type="line"/>
      <point x="404" y="721" type="line"/>
      <point x="375" y="721" type="line"/>
      <point x="25" y="214" type="line"/>
      <point x="25" y="193" type="line"/>
    </contour>
    <contour>
      <point x="378" y="219" type="line"/>
      <point x="60" y="219" type="line"/>
      <point x="333" y="614" type="line" smooth="yes"/>
      <point x="353" y="643"/>
      <point x="367" y="665"/>
      <point x="380" y="690" type="curve"/>
      <point x="382" y="689" type="line"/>
      <point x="378" y="627"/>
      <point x="378" y="577"/>
      <point x="378" y="448" type="curve" smooth="yes"/>
    </contour>
  </outline>
</glyph>
<glyph name="less.deva" format="2">
  <advance width="551"/>
  <unicode hex="003C"/>
  <outline>
    <contour>
      <point x="57" y="307" type="line"/>
      <point x="493" y="95" type="line"/>
      <point x="493" y="125" type="line"/>
      <point x="88" y="320" type="line"/>
      <point x="493" y="516" type="line"/>
      <point x="493" y="546" type="line"/>
      <point x="57" y="333" type="line"/>
    </contour>
  </outline>
</glyph>
<glyph name="equal.deva" format="2">
  <advance width="551"/>
  <unicode hex="003D"/>
  <outline>
    <contour>
      <point x="58" y="435" type="line"/>
      <point x="58" y="409" type="line"/>
      <point x="494" y="409" type="line"/>
      <point x="494" y="435" type="line"/>
    </contour>
    <contour>
      <point x="58" y="231" type="line"/>
      <point x="58" y="206" type="line"/>
      <point x="494" y="206" type="line"/>
      <point x="494" y="231" type="line"/>
    </contour>
  </outline>
</glyph>
<glyph name="greater.deva" format="2">
  <advance width="551"/>
  <unicode hex="003E"/>
  <outline>
    <contour>
      <point x="57" y="125" type="line"/>
      <point x="57" y="95" type="line"/>
      <point x="493" y="308" type="line"/>
      <point x="493" y="334" type="line"/>
      <point x="57" y="546" type="line"/>
      <point x="57" y="516" type="line"/>
      <point x="462" y="321" type="line"/>
    </contour>
  </outline>
</glyph>
<glyph name="backslash.deva" format="2">
  <advance width="384"/>
  <unicode hex="005C"/>
  <outline>
    <contour>
      <point x="48" y="833" type="line"/>
      <point x="309" y="-166" type="line"/>
      <point x="336" y="-166" type="line"/>
      <point x="75" y="833" type="line"/>
    </contour>
  </outline>
</glyph>
<glyph name="asciicircum.deva" format="2">
  <advance width="551"/>
  <unicode hex="005E"/>
  <outline>
    <contour>
      <point x="261" y="720" type="line"/>
      <point x="45" y="284" type="line"/>
      <point x="75" y="284" type="line"/>
      <point x="276" y="694" type="line"/>
      <point x="472" y="284" type="line"/>
      <point x="502" y="284" type="line"/>
      <point x="291" y="720" type="line"/>
    </contour>
  </outline>
</glyph>
<glyph name="bar.deva" format="2">
  <advance width="540"/>
  <unicode hex="007C"/>
  <outline>
    <contour>
      <point x="257" y="832" type="line"/>
      <point x="257" y="-166" type="line"/>
      <point x="283" y="-166" type="line"/>
      <point x="283" y="832" type="line"/>
    </contour>
  </outline>
</glyph>
<glyph name="multiply.deva" format="2">
  <advance width="551"/>
  <unicode hex="00D7"/>
  <outline>
    <contour>
      <point x="275" y="303" type="line"/>
      <point x="442" y="136" type="line"/>
      <point x="459" y="153" type="line"/>
      <point x="292" y="320" type="line"/>
      <point x="459" y="487" type="line"/>
      <point x="442" y="504" type="line"/>
      <point x="275" y="337" type="line"/>
      <point x="108" y="504" type="line"/>
      <point x="91" y="487" type="line"/>
      <point x="258" y="320" type="line"/>
      <point x="91" y="153" type="line"/>
      <point x="108" y="136" type="line"/>
    </contour>
  </outline>
</glyph>
<glyph name="divide.deva" format="2">
  <advance width="551"/>
  <unicode hex="00F7"/>
  <outline>
    <contour>
      <point x="58" y="335" type="line"/>
      <point x="58" y="309" type="line"/>
      <point x="494" y="309" type="line"/>
      <point x="494" y="335" type="line"/>
    </contour>
    <contour>
      <point x="275" y="113" type="curve" smooth="yes"/>
      <point x="299" y="113"/>
      <point x="302" y="127"/>
      <point x="302" y="144" type="curve" smooth="yes"/>
      <point x="302" y="160"/>
      <point x="299" y="175"/>
      <point x="275" y="175" type="curve" smooth="yes"/>
      <point x="255" y="175"/>
      <point x="250" y="160"/>
      <point x="250" y="144" type="curve" smooth="yes"/>
      <point x="250" y="127"/>
      <point x="255" y="113"/>
    </contour>
    <contour>
      <point x="275" y="469" type="curve" smooth="yes"/>
      <point x="299" y="469"/>
      <point x="302" y="483"/>
      <point x="302" y="500" type="curve" smooth="yes"/>
      <point x="302" y="516"/>
      <point x="299" y="531"/>
      <point x="275" y="531" type="curve" smooth="yes"/>
      <point x="255" y="531"/>
      <point x="250" y="516"/>
      <point x="250" y="500" type="curve" smooth="yes"/>
      <point x="250" y="483"/>
      <point x="255" y="469"/>
    </contour>
  </outline>
</glyph>
<glyph name="candrabindudeva" format="2">
  <unicode hex="0901"/>
  <outline>
    <contour>
      <point x="-146" y="848" type="curve" smooth="yes"/>
      <point x="-146" y="822"/>
      <point x="-131" y="810"/>
      <point x="-117" y="810" type="curve" smooth="yes"/>
      <point x="-102" y="810"/>
      <point x="-89" y="821"/>
      <point x="-89" y="848" type="curve" smooth="yes"/>
      <point x="-89" y="872"/>
      <point x="-100" y="886"/>
      <point x="-117" y="886" type="curve" smooth="yes"/>
      <point x="-133" y="886"/>
      <point x="-146" y="873"/>
    </contour>
    <contour>
      <point x="57" y="860" type="curve"/>
      <point x="32" y="868" type="line"/>
      <point x="6" y="768"/>
      <point x="-36" y="722"/>
      <point x="-115" y="722" type="curve" smooth="yes"/>
      <point x="-197" y="722"/>
      <point x="-244" y="776"/>
      <point x="-274" y="868" type="curve"/>
      <point x="-299" y="859" type="line"/>
      <point x="-263" y="758"/>
      <point x="-208" y="696"/>
      <point x="-116" y="696" type="curve" smooth="yes"/>
      <point x="-23" y="696"/>
      <point x="31" y="753"/>
    </contour>
  </outline>
</glyph>
<glyph name="anusvaradeva" format="2">
  <unicode hex="0902"/>
  <outline>
    <contour>
      <point x="-144" y="770" type="curve" smooth="yes"/>
      <point x="-144" y="745"/>
      <point x="-129" y="732"/>
      <point x="-113" y="732" type="curve" smooth="yes"/>
      <point x="-96" y="732"/>
      <point x="-83" y="744"/>
      <point x="-83" y="770" type="curve" smooth="yes"/>
      <point x="-83" y="793"/>
      <point x="-94" y="808"/>
      <point x="-113" y="808" type="curve" smooth="yes"/>
      <point x="-131" y="808"/>
      <point x="-144" y="794"/>
    </contour>
  </outline>
</glyph>
<glyph name="visargadeva" format="2">
  <advance width="230"/>
  <unicode hex="0903"/>
  <outline>
    <contour>
      <point x="81" y="118" type="curve" smooth="yes"/>
      <point x="81" y="92"/>
      <point x="97" y="77"/>
      <point x="115" y="77" type="curve" smooth="yes"/>
      <point x="134" y="77"/>
      <point x="149" y="91"/>
      <point x="149" y="118" type="curve" smooth="yes"/>
      <point x="149" y="142"/>
      <point x="136" y="159"/>
      <point x="115" y="159" type="curve" smooth="yes"/>
      <point x="95" y="159"/>
      <point x="81" y="143"/>
    </contour>
    <contour>
      <point x="81" y="434" type="curve" smooth="yes"/>
      <point x="81" y="408"/>
      <point x="97" y="393"/>
      <point x="115" y="393" type="curve" smooth="yes"/>
      <point x="134" y="393"/>
      <point x="149" y="407"/>
      <point x="149" y="434" type="curve" smooth="yes"/>
      <point x="149" y="458"/>
      <point x="136" y="475"/>
      <point x="115" y="475" type="curve" smooth="yes"/>
      <point x="95" y="475"/>
      <point x="81" y="459"/>
    </contour>
  </outline>
</glyph>
<glyph name="aadeva" format="2">
  <advance width="895"/>
  <unicode hex="0906"/>
  <outline>
    <contour>
      <point x="570" y="596" type="line"/>
      <point x="685" y="596" type="line"/>
      <point x="685" y="622" type="line"/>
      <point x="462" y="622" type="line"/>
      <point x="462" y="596" type="line"/>
      <point x="544" y="596" type="line"/>
      <point x="544" y="0" type="line"/>
      <point x="570" y="0" type="line"/>
    </contour>
    <contour>
      <point x="263" y="632" type="curve" smooth="yes"/>
      <point x="210" y="632"/>
      <point x="171" y="618"/>
      <point x="120" y="594" type="curve"/>
      <point x="130" y="568" type="line"/>
      <point x="177" y="593"/>
      <point x="216" y="606"/>
      <point x="263" y="606" type="curve" smooth="yes"/>
      <point x="335" y="606"/>
      <point x="376" y="569"/>
      <point x="376" y="501" type="curve" smooth="yes"/>
      <point x="376" y="430"/>
      <point x="328" y="393"/>
      <point x="221" y="388" type="curve"/>
      <point x="223" y="362" type="line"/>
      <point x="342" y="366"/>
      <point x="403" y="422"/>
      <point x="403" y="501" type="curve" smooth="yes"/>
      <point x="403" y="583"/>
      <point x="350" y="632"/>
    </contour>
    <contour>
      <point x="405" y="219" type="curve" smooth="yes"/>
      <point x="405" y="266"/>
      <point x="385" y="303"/>
      <point x="355" y="334" type="curve"/>
      <point x="353" y="342" type="line"/>
      <point x="340" y="356"/>
      <point x="326" y="370"/>
      <point x="309" y="382" type="curve"/>
      <point x="295" y="390" type="line"/>
      <point x="271" y="379" type="line"/>
      <point x="335" y="335"/>
      <point x="378" y="283"/>
      <point x="378" y="221" type="curve" smooth="yes"/>
      <point x="378" y="148"/>
      <point x="332" y="121"/>
      <point x="273" y="121" type="curve" smooth="yes"/>
      <point x="179" y="121"/>
      <point x="115" y="205"/>
      <point x="49" y="370" type="curve"/>
      <point x="23" y="361" type="line"/>
      <point x="102" y="169"/>
      <point x="176" y="95"/>
      <point x="277" y="95" type="curve" smooth="yes"/>
      <point x="342" y="95"/>
      <point x="405" y="130"/>
    </contour>
    <contour>
      <point x="438" y="343" type="curve" smooth="yes"/>
      <point x="404" y="343"/>
      <point x="359" y="345"/>
      <point x="314" y="357" type="curve"/>
      <point x="315" y="352" type="line"/>
      <point x="340" y="332" type="line"/>
      <point x="364" y="321"/>
      <point x="404" y="317"/>
      <point x="443" y="317" type="curve" smooth="yes"/>
      <point x="478" y="317"/>
      <point x="517" y="321"/>
      <point x="553" y="331" type="curve"/>
      <point x="553" y="357" type="line"/>
      <point x="513" y="346"/>
      <point x="470" y="343"/>
    </contour>
    <contour>
      <point x="795" y="596" type="line"/>
      <point x="910" y="596" type="line"/>
      <point x="910" y="622" type="line"/>
      <point x="670" y="622" type="line"/>
      <point x="670" y="596" type="line"/>
      <point x="769" y="596" type="line"/>
      <point x="769" y="0" type="line"/>
      <point x="795" y="0" type="line"/>
    </contour>
  </outline>
</glyph>
<glyph name="ideva" format="2">
  <advance width="472"/>
  <unicode hex="0907"/>
  <outline>
    <contour>
      <point x="270" y="251" type="curve" smooth="yes"/>
      <point x="335" y="251"/>
      <point x="394" y="221"/>
      <point x="394" y="141" type="curve" smooth="yes"/>
      <point x="394" y="63"/>
      <point x="339" y="24"/>
      <point x="233" y="24" type="curve" smooth="yes"/>
      <point x="196" y="24"/>
      <point x="166" y="28"/>
      <point x="133" y="36" type="curve"/>
      <point x="141" y="23" type="line"/>
      <point x="202" y="-19"/>
      <point x="284" y="-65"/>
      <point x="367" y="-107" type="curve"/>
      <point x="378" y="-83" type="line"/>
      <point x="308" y="-52"/>
      <point x="241" y="-16"/>
      <point x="187" y="15" type="curve"/>
      <point x="157" y="54"/>
      <point x="122" y="79"/>
      <point x="93" y="79" type="curve" smooth="yes"/>
      <point x="69" y="79"/>
      <point x="60" y="67"/>
      <point x="60" y="51" type="curve" smooth="yes"/>
      <point x="60" y="15"/>
      <point x="123" y="5"/>
      <point x="183" y="2" type="curve" smooth="yes"/>
      <point x="205" y="1"/>
      <point x="221" y="0"/>
      <point x="236" y="0" type="curve" smooth="yes"/>
      <point x="343" y="0"/>
      <point x="421" y="44"/>
      <point x="421" y="141" type="curve" smooth="yes"/>
      <point x="421" y="226"/>
      <point x="359" y="277"/>
      <point x="272" y="277" type="curve" smooth="yes"/>
      <point x="219" y="277"/>
      <point x="184" y="267"/>
      <point x="153" y="253" type="curve"/>
      <point x="123" y="272"/>
      <point x="87" y="309"/>
      <point x="87" y="353" type="curve" smooth="yes"/>
      <point x="87" y="375"/>
      <point x="91" y="393"/>
      <point x="101" y="405" type="curve" smooth="yes"/>
      <point x="119" y="429"/>
      <point x="147" y="438"/>
      <point x="204" y="438" type="curve" smooth="yes"/>
      <point x="366" y="438" type="line"/>
      <point x="366" y="596" type="line"/>
      <point x="487" y="596" type="line"/>
      <point x="487" y="622" type="line"/>
      <point x="0" y="622" type="line"/>
      <point x="0" y="596" type="line"/>
      <point x="340" y="596" type="line"/>
      <point x="340" y="464" type="line"/>
      <point x="210" y="464" type="line" smooth="yes"/>
      <point x="130" y="464"/>
      <point x="99" y="447"/>
      <point x="78" y="418" type="curve" smooth="yes"/>
      <point x="66" y="401"/>
      <point x="60" y="384"/>
      <point x="60" y="356" type="curve" smooth="yes"/>
      <point x="60" y="293"/>
      <point x="106" y="253"/>
      <point x="150" y="224" type="curve"/>
      <point x="189" y="245"/>
      <point x="228" y="251"/>
    </contour>
  </outline>
</glyph>
<glyph name="udeva" format="2">
  <advance width="494"/>
  <unicode hex="0909"/>
  <outline>
    <contour>
      <point x="0" y="622" type="line"/>
      <point x="0" y="596" type="line"/>
      <point x="509" y="596" type="line"/>
      <point x="509" y="622" type="line"/>
    </contour>
    <contour>
      <point x="316" y="616" type="curve"/>
      <point x="297" y="605" type="line"/>
      <point x="353" y="577"/>
      <point x="387" y="533"/>
      <point x="387" y="476" type="curve" smooth="yes"/>
      <point x="387" y="407"/>
      <point x="344" y="358"/>
      <point x="234" y="354" type="curve"/>
      <point x="236" y="328" type="line"/>
      <point x="364" y="335"/>
      <point x="414" y="398"/>
      <point x="414" y="478" type="curve" smooth="yes"/>
      <point x="414" y="538"/>
      <point x="377" y="591"/>
    </contour>
    <contour>
      <point x="299" y="351" type="curve"/>
      <point x="274" y="339" type="line"/>
      <point x="363" y="277"/>
      <point x="407" y="212"/>
      <point x="407" y="140" type="curve" smooth="yes"/>
      <point x="407" y="50"/>
      <point x="352" y="26"/>
      <point x="292" y="26" type="curve" smooth="yes"/>
      <point x="195" y="26"/>
      <point x="131" y="116"/>
      <point x="49" y="325" type="curve"/>
      <point x="23" y="316" type="line"/>
      <point x="117" y="80"/>
      <point x="188" y="0"/>
      <point x="294" y="0" type="curve" smooth="yes"/>
      <point x="378" y="0"/>
      <point x="434" y="48"/>
      <point x="434" y="137" type="curve" smooth="yes"/>
      <point x="434" y="231"/>
      <point x="376" y="295"/>
    </contour>
  </outline>
</glyph>
<glyph name="rvocalicdeva" format="2">
  <advance width="785"/>
  <unicode hex="090B"/>
  <outline>
    <contour>
      <point x="397" y="596" type="line"/>
      <point x="800" y="596" type="line"/>
      <point x="800" y="622" type="line"/>
      <point x="0" y="622" type="line"/>
      <point x="0" y="596" type="line"/>
      <point x="371" y="596" type="line"/>
      <point x="371" y="0" type="line"/>
      <point x="397" y="0" type="line"/>
    </contour>
    <contour>
      <point x="26" y="425" type="curve"/>
      <point x="36" y="401" type="line"/>
      <point x="88" y="425"/>
      <point x="124" y="435"/>
      <point x="168" y="435" type="curve" smooth="yes"/>
      <point x="239" y="435"/>
      <point x="275" y="413"/>
      <point x="370" y="282" type="curve"/>
      <point x="380" y="279" type="line"/>
      <point x="388" y="296" type="line"/>
      <point x="298" y="426"/>
      <point x="247" y="461"/>
      <point x="167" y="461" type="curve" smooth="yes"/>
      <point x="114" y="461"/>
      <point x="76" y="447"/>
    </contour>
    <contour>
      <point x="105" y="101" type="line"/>
      <point x="380" y="286" type="line"/>
      <point x="363" y="303" type="line"/>
      <point x="90" y="124" type="line"/>
    </contour>
    <contour>
      <point x="379" y="325" type="curve"/>
      <point x="388" y="299" type="line"/>
      <point x="444" y="299"/>
      <point x="520" y="310"/>
      <point x="573" y="325" type="curve"/>
      <point x="585" y="296"/>
      <point x="617" y="247"/>
      <point x="633" y="225" type="curve"/>
      <point x="644" y="223" type="line"/>
      <point x="652" y="243" type="line"/>
      <point x="634" y="269"/>
      <point x="616" y="296"/>
      <point x="599" y="331" type="curve"/>
      <point x="627" y="338"/>
      <point x="646" y="352"/>
      <point x="646" y="379" type="curve" smooth="yes"/>
      <point x="646" y="407"/>
      <point x="625" y="428"/>
      <point x="594" y="428" type="curve" smooth="yes"/>
      <point x="568" y="428"/>
      <point x="554" y="409"/>
      <point x="554" y="387" type="curve" smooth="yes"/>
      <point x="554" y="370"/>
      <point x="558" y="354"/>
      <point x="569" y="337" type="curve"/>
      <point x="576" y="352" type="line"/>
      <point x="526" y="336"/>
      <point x="451" y="325"/>
    </contour>
    <contour>
      <point x="782" y="18" type="curve"/>
      <point x="773" y="43" type="line"/>
      <point x="728" y="19"/>
      <point x="700" y="12"/>
      <point x="660" y="12" type="curve" smooth="yes"/>
      <point x="603" y="12"/>
      <point x="551" y="38"/>
      <point x="551" y="114" type="curve" smooth="yes"/>
      <point x="551" y="168"/>
      <point x="586" y="206"/>
      <point x="644" y="223" type="curve"/>
      <point x="633" y="246" type="line"/>
      <point x="563" y="225"/>
      <point x="524" y="174"/>
      <point x="524" y="114" type="curve" smooth="yes"/>
      <point x="524" y="33"/>
      <point x="582" y="-14"/>
      <point x="661" y="-14" type="curve" smooth="yes"/>
      <point x="701" y="-14"/>
      <point x="738" y="-5"/>
    </contour>
  </outline>
</glyph>
<glyph name="lvocalicdeva" format="2">
  <advance width="630"/>
  <unicode hex="090C"/>
  <outline>
    <contour>
      <point x="645" y="596" type="line"/>
      <point x="645" y="622" type="line"/>
      <point x="0" y="622" type="line"/>
      <point x="0" y="596" type="line"/>
      <point x="448" y="596" type="line"/>
      <point x="448" y="420" type="line"/>
      <point x="474" y="408" type="line"/>
      <point x="474" y="596" type="line"/>
    </contour>
    <contour>
      <point x="196" y="428" type="curve" smooth="yes"/>
      <point x="131" y="428"/>
      <point x="53" y="388"/>
      <point x="53" y="283" type="curve" smooth="yes"/>
      <point x="53" y="184"/>
      <point x="133" y="100"/>
      <point x="266" y="-10" type="curve"/>
      <point x="283" y="9" type="line"/>
      <point x="136" y="135"/>
      <point x="80" y="195"/>
      <point x="80" y="284" type="curve" smooth="yes"/>
      <point x="80" y="353"/>
      <point x="124" y="402"/>
      <point x="199" y="402" type="curve" smooth="yes"/>
      <point x="251" y="402"/>
      <point x="284" y="381"/>
      <point x="330" y="340" type="curve"/>
      <point x="344" y="362" type="line"/>
      <point x="299" y="401"/>
      <point x="257" y="428"/>
    </contour>
    <contour>
      <point x="380" y="33" type="curve" smooth="yes"/>
      <point x="380" y="-48"/>
      <point x="438" y="-95"/>
      <point x="517" y="-95" type="curve" smooth="yes"/>
      <point x="557" y="-95"/>
      <point x="594" y="-86"/>
      <point x="638" y="-63" type="curve"/>
      <point x="629" y="-38" type="line"/>
      <point x="584" y="-62"/>
      <point x="556" y="-69"/>
      <point x="516" y="-69" type="curve" smooth="yes"/>
      <point x="459" y="-69"/>
      <point x="407" y="-43"/>
      <point x="407" y="33" type="curve" smooth="yes"/>
      <point x="407" y="92"/>
      <point x="451" y="139"/>
      <point x="534" y="148" type="curve"/>
      <point x="532" y="173" type="line"/>
      <point x="433" y="163"/>
      <point x="380" y="102"/>
    </contour>
    <contour>
      <point x="454" y="429" type="curve" smooth="yes"/>
      <point x="369" y="429"/>
      <point x="303" y="373"/>
      <point x="261" y="237" type="curve"/>
      <point x="287" y="229" type="line"/>
      <point x="328" y="365"/>
      <point x="386" y="403"/>
      <point x="453" y="403" type="curve" smooth="yes"/>
      <point x="512" y="403"/>
      <point x="548" y="372"/>
      <point x="548" y="297" type="curve" smooth="yes"/>
      <point x="548" y="235"/>
      <point x="529" y="191"/>
      <point x="506" y="153" type="curve"/>
      <point x="534" y="148" type="line"/>
      <point x="553" y="180"/>
      <point x="575" y="230"/>
      <point x="575" y="299" type="curve" smooth="yes"/>
      <point x="575" y="392"/>
      <point x="520" y="429"/>
    </contour>
  </outline>
</glyph>
<glyph name="edeva" format="2">
  <advance width="503"/>
  <unicode hex="090F"/>
  <outline>
    <contour>
      <point x="518" y="596" type="line"/>
      <point x="518" y="622" type="line"/>
      <point x="0" y="622" type="line"/>
      <point x="0" y="596" type="line"/>
      <point x="90" y="596" type="line"/>
      <point x="90" y="322" type="line" smooth="yes"/>
      <point x="90" y="260"/>
      <point x="96" y="238"/>
      <point x="105" y="215" type="curve" smooth="yes"/>
      <point x="120" y="176"/>
      <point x="162" y="145"/>
      <point x="188" y="130" type="curve" smooth="yes"/>
      <point x="280" y="74" type="line" smooth="yes"/>
      <point x="370" y="20"/>
      <point x="397" y="-10"/>
      <point x="397" y="-55" type="curve" smooth="yes"/>
      <point x="397" y="-92"/>
      <point x="378" y="-124"/>
      <point x="356" y="-155" type="curve"/>
      <point x="379" y="-169" type="line"/>
      <point x="407" y="-129"/>
      <point x="424" y="-96"/>
      <point x="424" y="-52" type="curve" smooth="yes"/>
      <point x="424" y="7"/>
      <point x="392" y="34"/>
      <point x="294" y="95" type="curve" smooth="yes"/>
      <point x="213" y="145" type="line" smooth="yes"/>
      <point x="133" y="195"/>
      <point x="116" y="213"/>
      <point x="116" y="330" type="curve" smooth="yes"/>
      <point x="116" y="596" type="line"/>
      <point x="386" y="596" type="line"/>
      <point x="386" y="352" type="line" smooth="yes"/>
      <point x="386" y="289"/>
      <point x="380" y="269"/>
      <point x="359" y="250" type="curve" smooth="yes"/>
      <point x="341" y="233"/>
      <point x="315" y="223"/>
      <point x="287" y="217" type="curve"/>
      <point x="293" y="191" type="line"/>
      <point x="333" y="201"/>
      <point x="369" y="217"/>
      <point x="388" y="243" type="curve" smooth="yes"/>
      <point x="408" y="270"/>
      <point x="412" y="295"/>
      <point x="412" y="354" type="curve" smooth="yes"/>
      <point x="412" y="596" type="line"/>
    </contour>
  </outline>
</glyph>
<glyph name="gadeva" format="2">
  <advance width="504"/>
  <unicode hex="0917"/>
  <outline>
    <contour>
      <point x="156" y="596" type="line"/>
      <point x="378" y="596" type="line"/>
      <point x="378" y="0" type="line"/>
      <point x="404" y="0" type="line"/>
      <point x="404" y="596" type="line"/>
      <point x="519" y="596" type="line"/>
      <point x="519" y="622" type="line"/>
      <point x="0" y="622" type="line"/>
      <point x="0" y="596" type="line"/>
      <point x="130" y="596" type="line"/>
      <point x="130" y="352" type="line"/>
      <point x="104" y="352" type="line" smooth="yes"/>
      <point x="70" y="352"/>
      <point x="58" y="340"/>
      <point x="58" y="321" type="curve" smooth="yes"/>
      <point x="58" y="287"/>
      <point x="95" y="245"/>
      <point x="128" y="245" type="curve" smooth="yes"/>
      <point x="143" y="245"/>
      <point x="156" y="256"/>
      <point x="156" y="284" type="curve" smooth="yes"/>
    </contour>
  </outline>
</glyph>
<glyph name="ngadeva" format="2">
  <advance width="576"/>
  <unicode hex="0919"/>
  <outline>
    <contour>
      <point x="348" y="251" type="curve" smooth="yes"/>
      <point x="414" y="251"/>
      <point x="470" y="218"/>
      <point x="470" y="140" type="curve" smooth="yes"/>
      <point x="470" y="72"/>
      <point x="423" y="26"/>
      <point x="319" y="26" type="curve" smooth="yes"/>
      <point x="219" y="26"/>
      <point x="128" y="69"/>
      <point x="52" y="168" type="curve"/>
      <point x="30" y="152" type="line"/>
      <point x="102" y="64"/>
      <point x="189" y="0"/>
      <point x="320" y="0" type="curve" smooth="yes"/>
      <point x="440" y="0"/>
      <point x="497" y="62"/>
      <point x="497" y="139" type="curve" smooth="yes"/>
      <point x="497" y="224"/>
      <point x="438" y="277"/>
      <point x="348" y="277" type="curve" smooth="yes"/>
      <point x="295" y="277"/>
      <point x="260" y="267"/>
      <point x="229" y="253" type="curve"/>
      <point x="199" y="272"/>
      <point x="163" y="311"/>
      <point x="163" y="356" type="curve" smooth="yes"/>
      <point x="163" y="377"/>
      <point x="167" y="394"/>
      <point x="177" y="406" type="curve" smooth="yes"/>
      <point x="195" y="429"/>
      <point x="225" y="438"/>
      <point x="277" y="438" type="curve" smooth="yes"/>
      <point x="438" y="438" type="line"/>
      <point x="438" y="596" type="line"/>
      <point x="591" y="596" type="line"/>
      <point x="591" y="622" type="line"/>
      <point x="0" y="622" type="line"/>
      <point x="0" y="596" type="line"/>
      <point x="412" y="596" type="line"/>
      <point x="412" y="464" type="line"/>
      <point x="283" y="464" type="line" smooth="yes"/>
      <point x="206" y="464"/>
      <point x="175" y="447"/>
      <point x="154" y="419" type="curve" smooth="yes"/>
      <point x="142" y="403"/>
      <point x="136" y="385"/>
      <point x="136" y="359" type="curve" smooth="yes"/>
      <point x="136" y="294"/>
      <point x="182" y="253"/>
      <point x="226" y="224" type="curve"/>
      <point x="265" y="245"/>
      <point x="304" y="251"/>
    </contour>
    <contour>
      <point x="474" y="360" type="curve" smooth="yes"/>
      <point x="474" y="335"/>
      <point x="489" y="322"/>
      <point x="505" y="322" type="curve" smooth="yes"/>
      <point x="522" y="322"/>
      <point x="535" y="334"/>
      <point x="535" y="360" type="curve" smooth="yes"/>
      <point x="535" y="383"/>
      <point x="524" y="398"/>
      <point x="505" y="398" type="curve" smooth="yes"/>
      <point x="487" y="398"/>
      <point x="474" y="384"/>
    </contour>
  </outline>
</glyph>
<glyph name="cadeva" format="2">
  <advance width="559"/>
  <unicode hex="091A"/>
  <outline>
    <contour>
      <point x="574" y="596" type="line"/>
      <point x="574" y="622" type="line"/>
      <point x="0" y="622" type="line"/>
      <point x="0" y="596" type="line"/>
      <point x="433" y="596" type="line"/>
      <point x="433" y="239" type="line"/>
      <point x="442" y="259" type="line"/>
      <point x="410" y="225"/>
      <point x="359" y="185"/>
      <point x="287" y="185" type="curve" smooth="yes"/>
      <point x="227" y="185"/>
      <point x="168" y="211"/>
      <point x="168" y="296" type="curve" smooth="yes"/>
      <point x="168" y="377"/>
      <point x="232" y="418"/>
      <point x="327" y="418" type="curve" smooth="yes"/>
      <point x="365" y="418" type="line"/>
      <point x="367" y="443" type="line"/>
      <point x="344" y="444"/>
      <point x="303" y="444"/>
      <point x="261" y="444" type="curve" smooth="yes"/>
      <point x="39" y="444" type="line"/>
      <point x="39" y="416" type="line"/>
      <point x="225" y="418" type="line"/>
      <point x="165" y="392"/>
      <point x="141" y="353"/>
      <point x="141" y="296" type="curve" smooth="yes"/>
      <point x="141" y="213"/>
      <point x="194" y="159"/>
      <point x="285" y="159" type="curve" smooth="yes"/>
      <point x="369" y="159"/>
      <point x="422" y="203"/>
      <point x="449" y="234" type="curve"/>
      <point x="433" y="227" type="line"/>
      <point x="433" y="0" type="line"/>
      <point x="459" y="0" type="line"/>
      <point x="459" y="596" type="line"/>
    </contour>
  </outline>
</glyph>
<glyph name="ttadeva" format="2">
  <advance width="474"/>
  <unicode hex="091F"/>
  <outline>
    <contour>
      <point x="489" y="596" type="line"/>
      <point x="489" y="622" type="line"/>
      <point x="0" y="622" type="line"/>
      <point x="0" y="596" type="line"/>
      <point x="295" y="596" type="line"/>
      <point x="295" y="419" type="line"/>
      <point x="299" y="422" type="line"/>
      <point x="296" y="422" type="line" smooth="yes"/>
      <point x="156" y="422"/>
      <point x="54" y="348"/>
      <point x="54" y="219" type="curve" smooth="yes"/>
      <point x="54" y="81"/>
      <point x="145" y="0"/>
      <point x="272" y="0" type="curve" smooth="yes"/>
      <point x="340" y="0"/>
      <point x="396" y="16"/>
      <point x="450" y="43" type="curve"/>
      <point x="441" y="68" type="line"/>
      <point x="381" y="38"/>
      <point x="339" y="26"/>
      <point x="273" y="26" type="curve" smooth="yes"/>
      <point x="161" y="26"/>
      <point x="81" y="93"/>
      <point x="81" y="219" type="curve" smooth="yes"/>
      <point x="81" y="274"/>
      <point x="102" y="320"/>
      <point x="142" y="351" type="curve" smooth="yes"/>
      <point x="181" y="381"/>
      <point x="227" y="396"/>
      <point x="304" y="396" type="curve" smooth="yes"/>
      <point x="321" y="396" type="line"/>
      <point x="321" y="596" type="line"/>
    </contour>
  </outline>
</glyph>
<glyph name="tthadeva" format="2">
  <advance width="549"/>
  <unicode hex="0920"/>
  <outline>
    <contour>
      <point x="564" y="596" type="line"/>
      <point x="564" y="622" type="line"/>
      <point x="0" y="622" type="line"/>
      <point x="0" y="596" type="line"/>
      <point x="295" y="596" type="line"/>
      <point x="295" y="416" type="line"/>
      <point x="300" y="422" type="line"/>
      <point x="296" y="422" type="line" smooth="yes"/>
      <point x="158" y="422"/>
      <point x="54" y="348"/>
      <point x="54" y="219" type="curve" smooth="yes"/>
      <point x="54" y="81"/>
      <point x="145" y="0"/>
      <point x="275" y="0" type="curve" smooth="yes"/>
      <point x="397" y="0"/>
      <point x="495" y="62"/>
      <point x="495" y="200" type="curve" smooth="yes"/>
      <point x="495" y="293"/>
      <point x="441" y="372"/>
      <point x="321" y="420" type="curve"/>
      <point x="321" y="596" type="line"/>
    </contour>
    <contour>
      <point x="275" y="26" type="curve" smooth="yes"/>
      <point x="159" y="26"/>
      <point x="81" y="93"/>
      <point x="81" y="214" type="curve" smooth="yes"/>
      <point x="81" y="274"/>
      <point x="102" y="320"/>
      <point x="142" y="351" type="curve" smooth="yes"/>
      <point x="181" y="381"/>
      <point x="227" y="396"/>
      <point x="304" y="396" type="curve" smooth="yes"/>
      <point x="313" y="396" type="line"/>
      <point x="415" y="358"/>
      <point x="469" y="280"/>
      <point x="469" y="200" type="curve" smooth="yes"/>
      <point x="469" y="79"/>
      <point x="385" y="26"/>
    </contour>
  </outline>
</glyph>
<glyph name="ddadeva" format="2">
  <advance width="548"/>
  <unicode hex="0921"/>
  <outline>
    <contour>
      <point x="348" y="251" type="curve" smooth="yes"/>
      <point x="414" y="251"/>
      <point x="470" y="218"/>
      <point x="470" y="140" type="curve" smooth="yes"/>
      <point x="470" y="72"/>
      <point x="423" y="26"/>
      <point x="319" y="26" type="curve" smooth="yes"/>
      <point x="219" y="26"/>
      <point x="128" y="69"/>
      <point x="52" y="168" type="curve"/>
      <point x="30" y="152" type="line"/>
      <point x="102" y="64"/>
      <point x="189" y="0"/>
      <point x="320" y="0" type="curve" smooth="yes"/>
      <point x="440" y="0"/>
      <point x="497" y="62"/>
      <point x="497" y="139" type="curve" smooth="yes"/>
      <point x="497" y="224"/>
      <point x="438" y="277"/>
      <point x="348" y="277" type="curve" smooth="yes"/>
      <point x="295" y="277"/>
      <point x="260" y="267"/>
      <point x="229" y="253" type="curve"/>
      <point x="199" y="272"/>
      <point x="163" y="310"/>
      <point x="163" y="356" type="curve" smooth="yes"/>
      <point x="163" y="377"/>
      <point x="167" y="394"/>
      <point x="177" y="406" type="curve" smooth="yes"/>
      <point x="195" y="429"/>
      <point x="225" y="438"/>
      <point x="277" y="438" type="curve" smooth="yes"/>
      <point x="438" y="438" type="line"/>
      <point x="438" y="596" type="line"/>
      <point x="563" y="596" type="line"/>
      <point x="563" y="622" type="line"/>
      <point x="0" y="622" type="line"/>
      <point x="0" y="596" type="line"/>
      <point x="412" y="596" type="line"/>
      <point x="412" y="464" type="line"/>
      <point x="283" y="464" type="line" smooth="yes"/>
      <point x="206" y="464"/>
      <point x="175" y="447"/>
      <point x="154" y="419" type="curve" smooth="yes"/>
      <point x="142" y="403"/>
      <point x="136" y="385"/>
      <point x="136" y="359" type="curve" smooth="yes"/>
      <point x="136" y="294"/>
      <point x="182" y="253"/>
      <point x="226" y="224" type="curve"/>
      <point x="265" y="245"/>
      <point x="304" y="251"/>
    </contour>
  </outline>
</glyph>
<glyph name="ddhadeva" format="2">
  <advance width="519"/>
  <unicode hex="0922"/>
  <outline>
    <contour>
      <point x="284" y="0" type="curve" smooth="yes"/>
      <point x="396" y="0"/>
      <point x="468" y="61"/>
      <point x="468" y="145" type="curve" smooth="yes"/>
      <point x="468" y="214"/>
      <point x="427" y="263"/>
      <point x="353" y="263" type="curve" smooth="yes"/>
      <point x="274" y="263"/>
      <point x="230" y="209"/>
      <point x="230" y="140" type="curve" smooth="yes"/>
      <point x="230" y="97"/>
      <point x="240" y="62"/>
      <point x="265" y="19" type="curve"/>
      <point x="294" y="19" type="line"/>
      <point x="272" y="53"/>
      <point x="257" y="89"/>
      <point x="257" y="139" type="curve" smooth="yes"/>
      <point x="257" y="198"/>
      <point x="290" y="237"/>
      <point x="352" y="237" type="curve" smooth="yes"/>
      <point x="410" y="237"/>
      <point x="441" y="204"/>
      <point x="441" y="145" type="curve" smooth="yes"/>
      <point x="441" y="76"/>
      <point x="383" y="25"/>
      <point x="284" y="25" type="curve" smooth="yes"/>
      <point x="263" y="25"/>
      <point x="275" y="25"/>
      <point x="271" y="25" type="curve"/>
      <point x="163" y="30"/>
      <point x="82" y="99"/>
      <point x="82" y="228" type="curve" smooth="yes"/>
      <point x="82" y="289"/>
      <point x="105" y="335"/>
      <point x="149" y="370" type="curve" smooth="yes"/>
      <point x="188" y="401"/>
      <point x="238" y="415"/>
      <point x="317" y="415" type="curve" smooth="yes"/>
      <point x="356" y="415" type="line"/>
      <point x="356" y="596" type="line"/>
      <point x="534" y="596" type="line"/>
      <point x="534" y="622" type="line"/>
      <point x="0" y="622" type="line"/>
      <point x="0" y="596" type="line"/>
      <point x="330" y="596" type="line"/>
      <point x="330" y="430" type="line"/>
      <point x="340" y="441" type="line"/>
      <point x="309" y="441" type="line"/>
      <point x="161" y="441"/>
      <point x="55" y="362"/>
      <point x="55" y="229" type="curve" smooth="yes"/>
      <point x="55" y="84"/>
      <point x="151" y="0"/>
    </contour>
  </outline>
</glyph>
<glyph name="tadeva" format="2">
  <advance width="509"/>
  <unicode hex="0924"/>
  <outline>
    <contour>
      <point x="409" y="596" type="line"/>
      <point x="524" y="596" type="line"/>
      <point x="524" y="622" type="line"/>
      <point x="0" y="622" type="line"/>
      <point x="0" y="596" type="line"/>
      <point x="383" y="596" type="line"/>
      <point x="383" y="388" type="line"/>
      <point x="263" y="388" type="line" smooth="yes"/>
      <point x="170" y="388"/>
      <point x="133" y="376"/>
      <point x="103" y="355" type="curve" smooth="yes"/>
      <point x="62" y="327"/>
      <point x="52" y="286"/>
      <point x="52" y="252" type="curve" smooth="yes"/>
      <point x="52" y="150"/>
      <point x="133" y="77"/>
      <point x="227" y="-6" type="curve"/>
      <point x="244" y="13" type="line"/>
      <point x="142" y="106"/>
      <point x="79" y="163"/>
      <point x="79" y="249" type="curve" smooth="yes"/>
      <point x="79" y="289"/>
      <point x="95" y="312"/>
      <point x="108" y="325" type="curve" smooth="yes"/>
      <point x="137" y="353"/>
      <point x="182" y="362"/>
      <point x="257" y="362" type="curve" smooth="yes"/>
      <point x="383" y="362" type="line"/>
      <point x="383" y="0" type="line"/>
      <point x="409" y="0" type="line"/>
    </contour>
  </outline>
</glyph>
<glyph name="dadeva" format="2">
  <advance width="469"/>
  <unicode hex="0926"/>
  <outline>
    <contour>
      <point x="408" y="-44" type="curve"/>
      <point x="430" y="-31" type="line"/>
      <point x="401" y="13"/>
      <point x="373" y="62"/>
      <point x="352" y="106" type="curve"/>
      <point x="376" y="134" type="line"/>
      <point x="336" y="121"/>
      <point x="297" y="118"/>
      <point x="266" y="118" type="curve" smooth="yes"/>
      <point x="147" y="118"/>
      <point x="81" y="183"/>
      <point x="81" y="281" type="curve" smooth="yes"/>
      <point x="81" y="328"/>
      <point x="101" y="369"/>
      <point x="133" y="393" type="curve" smooth="yes"/>
      <point x="168" y="420"/>
      <point x="223" y="432"/>
      <point x="298" y="432" type="curve" smooth="yes"/>
      <point x="324" y="432" type="line"/>
      <point x="324" y="596" type="line"/>
      <point x="484" y="596" type="line"/>
      <point x="484" y="622" type="line"/>
      <point x="0" y="622" type="line"/>
      <point x="0" y="596" type="line"/>
      <point x="298" y="596" type="line"/>
      <point x="298" y="444" type="line"/>
      <point x="307" y="458" type="line"/>
      <point x="295" y="458" type="line" smooth="yes"/>
      <point x="212" y="458"/>
      <point x="148" y="441"/>
      <point x="107" y="405" type="curve" smooth="yes"/>
      <point x="75" y="378"/>
      <point x="54" y="337"/>
      <point x="54" y="281" type="curve" smooth="yes"/>
      <point x="54" y="142"/>
      <point x="166" y="92"/>
      <point x="265" y="92" type="curve" smooth="yes"/>
      <point x="298" y="92"/>
      <point x="317" y="94"/>
      <point x="338" y="98" type="curve"/>
      <point x="351" y="101" type="line"/>
      <point x="384" y="108"/>
      <point x="403" y="125"/>
      <point x="403" y="151" type="curve" smooth="yes"/>
      <point x="403" y="180"/>
      <point x="379" y="202"/>
      <point x="349" y="202" type="curve" smooth="yes"/>
      <point x="321" y="202"/>
      <point x="304" y="183"/>
      <point x="304" y="160" type="curve" smooth="yes"/>
      <point x="304" y="141"/>
      <point x="312" y="124"/>
      <point x="322" y="108" type="curve"/>
      <point x="325" y="102" type="line"/>
      <point x="342" y="65"/>
      <point x="380" y="-3"/>
    </contour>
  </outline>
</glyph>
<glyph name="nadeva" format="2">
  <advance width="487"/>
  <unicode hex="0928"/>
  <outline>
    <contour>
      <point x="0" y="622" type="line"/>
      <point x="0" y="596" type="line"/>
      <point x="361" y="596" type="line"/>
      <point x="361" y="365" type="line"/>
      <point x="89" y="365" type="line" smooth="yes"/>
      <point x="58" y="365"/>
      <point x="47" y="353"/>
      <point x="47" y="334" type="curve" smooth="yes"/>
      <point x="47" y="304"/>
      <point x="84" y="258"/>
      <point x="116" y="258" type="curve" smooth="yes"/>
      <point x="133" y="258"/>
      <point x="145" y="269"/>
      <point x="145" y="297" type="curve" smooth="yes"/>
      <point x="145" y="339" type="line"/>
      <point x="361" y="339" type="line"/>
      <point x="361" y="0" type="line"/>
      <point x="387" y="0" type="line"/>
      <point x="387" y="596" type="line"/>
      <point x="502" y="596" type="line"/>
      <point x="502" y="622" type="line"/>
    </contour>
  </outline>
</glyph>
<glyph name="padeva" format="2">
  <advance width="527"/>
  <unicode hex="092A"/>
  <outline>
    <contour>
      <point x="427" y="596" type="line"/>
      <point x="542" y="596" type="line"/>
      <point x="542" y="622" type="line"/>
      <point x="0" y="622" type="line"/>
      <point x="0" y="596" type="line"/>
      <point x="92" y="596" type="line"/>
      <point x="92" y="384" type="line" smooth="yes"/>
      <point x="92" y="301"/>
      <point x="106" y="256"/>
      <point x="135" y="226" type="curve" smooth="yes"/>
      <point x="163" y="196"/>
      <point x="198" y="186"/>
      <point x="247" y="186" type="curve" smooth="yes"/>
      <point x="326" y="186"/>
      <point x="384" y="230"/>
      <point x="417" y="266" type="curve"/>
      <point x="401" y="265" type="line"/>
      <point x="401" y="0" type="line"/>
      <point x="427" y="0" type="line"/>
    </contour>
    <contour>
      <point x="401" y="596" type="line"/>
      <point x="401" y="284" type="line"/>
      <point x="413" y="299" type="line"/>
      <point x="368" y="243"/>
      <point x="311" y="212"/>
      <point x="244" y="212" type="curve" smooth="yes"/>
      <point x="208" y="212"/>
      <point x="175" y="220"/>
      <point x="152" y="246" type="curve" smooth="yes"/>
      <point x="131" y="270"/>
      <point x="118" y="307"/>
      <point x="118" y="401" type="curve" smooth="yes"/>
      <point x="118" y="596" type="line"/>
    </contour>
  </outline>
</glyph>
<glyph name="phadeva" format="2">
  <advance width="703"/>
  <unicode hex="092B"/>
  <outline>
    <contour>
      <point x="404" y="596" type="line"/>
      <point x="718" y="596" type="line"/>
      <point x="718" y="622" type="line"/>
      <point x="0" y="622" type="line"/>
      <point x="0" y="596" type="line"/>
      <point x="92" y="596" type="line"/>
      <point x="92" y="385" type="line" smooth="yes"/>
      <point x="92" y="301"/>
      <point x="106" y="257"/>
      <point x="133" y="226" type="curve" smooth="yes"/>
      <point x="159" y="197"/>
      <point x="193" y="186"/>
      <point x="236" y="186" type="curve" smooth="yes"/>
      <point x="308" y="186"/>
      <point x="355" y="221"/>
      <point x="386" y="259" type="curve"/>
      <point x="378" y="258" type="line"/>
      <point x="378" y="0" type="line"/>
      <point x="404" y="0" type="line"/>
      <point x="404" y="279" type="line"/>
      <point x="397" y="267" type="line"/>
      <point x="449" y="345"/>
      <point x="488" y="371"/>
      <point x="530" y="371" type="curve" smooth="yes"/>
      <point x="592" y="371"/>
      <point x="623" y="330"/>
      <point x="623" y="260" type="curve" smooth="yes"/>
      <point x="623" y="184"/>
      <point x="596" y="129"/>
      <point x="555" y="70" type="curve"/>
      <point x="579" y="54" type="line"/>
      <point x="620" y="116"/>
      <point x="650" y="179"/>
      <point x="650" y="257" type="curve" smooth="yes"/>
      <point x="650" y="351"/>
      <point x="599" y="397"/>
      <point x="535" y="397" type="curve" smooth="yes"/>
      <point x="475" y="397"/>
      <point x="435" y="360"/>
      <point x="396" y="306" type="curve"/>
      <point x="404" y="305" type="line"/>
    </contour>
    <contour>
      <point x="118" y="596" type="line"/>
      <point x="378" y="596" type="line"/>
      <point x="378" y="268" type="line"/>
      <point x="384" y="294" type="line"/>
      <point x="336" y="232"/>
      <point x="292" y="212"/>
      <point x="235" y="212" type="curve" smooth="yes"/>
      <point x="193" y="212"/>
      <point x="167" y="226"/>
      <point x="150" y="246" type="curve" smooth="yes"/>
      <point x="130" y="270"/>
      <point x="118" y="307"/>
      <point x="118" y="395" type="curve" smooth="yes"/>
    </contour>
  </outline>
</glyph>
<glyph name="radeva" format="2">
  <advance width="367"/>
  <unicode hex="0930"/>
  <outline>
    <contour>
      <point x="248" y="596" type="line"/>
      <point x="382" y="596" type="line"/>
      <point x="382" y="622" type="line"/>
      <point x="0" y="622" type="line"/>
      <point x="0" y="596" type="line"/>
      <point x="237" y="596" type="line"/>
      <point x="216" y="607" type="line"/>
      <point x="231" y="588"/>
      <point x="255" y="551"/>
      <point x="255" y="484" type="curve" smooth="yes"/>
      <point x="255" y="397"/>
      <point x="199" y="342"/>
      <point x="131" y="318" type="curve"/>
      <point x="164" y="312" type="line"/>
      <point x="139" y="358"/>
      <point x="120" y="377"/>
      <point x="89" y="377" type="curve" smooth="yes"/>
      <point x="70" y="377"/>
      <point x="53" y="365"/>
      <point x="53" y="341" type="curve" smooth="yes"/>
      <point x="53" y="323"/>
      <point x="59" y="302"/>
      <point x="76" y="273" type="curve" smooth="yes"/>
      <point x="116" y="205"/>
      <point x="211" y="96"/>
      <point x="325" y="-12" type="curve"/>
      <point x="342" y="7" type="line"/>
      <point x="253" y="86"/>
      <point x="151" y="202"/>
      <point x="88" y="295" type="curve"/>
      <point x="100" y="272" type="line"/>
      <point x="190" y="311"/>
      <point x="281" y="364"/>
      <point x="281" y="482" type="curve" smooth="yes"/>
      <point x="281" y="527"/>
      <point x="265" y="583"/>
      <point x="246" y="608" type="curve"/>
    </contour>
  </outline>
</glyph>
<glyph name="ladeva" format="2">
  <advance width="606"/>
  <unicode hex="0932"/>
  <outline>
    <contour>
      <point x="0" y="596" type="line"/>
      <point x="480" y="596" type="line"/>
      <point x="480" y="416" type="line"/>
      <point x="497" y="412" type="line"/>
      <point x="499" y="422" type="line"/>
      <point x="491" y="425"/>
      <point x="475" y="429"/>
      <point x="454" y="429" type="curve" smooth="yes"/>
      <point x="369" y="429"/>
      <point x="303" y="373"/>
      <point x="261" y="237" type="curve"/>
      <point x="287" y="229" type="line"/>
      <point x="328" y="365"/>
      <point x="386" y="403"/>
      <point x="453" y="403" type="curve" smooth="yes"/>
      <point x="475" y="403"/>
      <point x="485" y="400"/>
      <point x="495" y="396" type="curve"/>
      <point x="480" y="410" type="line"/>
      <point x="480" y="0" type="line"/>
      <point x="506" y="0" type="line"/>
      <point x="506" y="596" type="line"/>
      <point x="621" y="596" type="line"/>
      <point x="621" y="622" type="line"/>
      <point x="0" y="622" type="line"/>
    </contour>
    <contour>
      <point x="330" y="340" type="curve"/>
      <point x="344" y="362" type="line"/>
      <point x="299" y="401"/>
      <point x="257" y="428"/>
      <point x="196" y="428" type="curve" smooth="yes"/>
      <point x="131" y="428"/>
      <point x="53" y="388"/>
      <point x="53" y="283" type="curve" smooth="yes"/>
      <point x="53" y="184"/>
      <point x="133" y="100"/>
      <point x="266" y="-10" type="curve"/>
      <point x="283" y="9" type="line"/>
      <point x="136" y="135"/>
      <point x="80" y="195"/>
      <point x="80" y="284" type="curve" smooth="yes"/>
      <point x="80" y="353"/>
      <point x="124" y="402"/>
      <point x="199" y="402" type="curve" smooth="yes"/>
      <point x="251" y="402"/>
      <point x="284" y="381"/>
    </contour>
  </outline>
</glyph>
<glyph name="ssadeva" format="2">
  <advance width="531"/>
  <unicode hex="0937"/>
  <outline>
    <contour>
      <point x="546" y="622" type="line"/>
      <point x="0" y="622" type="line"/>
      <point x="0" y="596" type="line"/>
      <point x="92" y="596" type="line"/>
      <point x="92" y="384" type="line" smooth="yes"/>
      <point x="92" y="301"/>
      <point x="106" y="258"/>
      <point x="135" y="226" type="curve" smooth="yes"/>
      <point x="163" y="196"/>
      <point x="199" y="186"/>
      <point x="251" y="186" type="curve" smooth="yes"/>
      <point x="328" y="186"/>
      <point x="385" y="230"/>
      <point x="426" y="267" type="curve"/>
      <point x="405" y="253" type="line"/>
      <point x="405" y="0" type="line"/>
      <point x="431" y="0" type="line"/>
      <point x="431" y="596" type="line"/>
      <point x="546" y="596" type="line"/>
    </contour>
    <contour>
      <point x="405" y="596" type="line"/>
      <point x="405" y="263" type="line"/>
      <point x="391" y="270" type="line"/>
      <point x="353" y="237"/>
      <point x="307" y="212"/>
      <point x="246" y="212" type="curve" smooth="yes"/>
      <point x="209" y="212"/>
      <point x="174" y="221"/>
      <point x="152" y="246" type="curve" smooth="yes"/>
      <point x="130" y="271"/>
      <point x="118" y="307"/>
      <point x="118" y="401" type="curve" smooth="yes"/>
      <point x="118" y="596" type="line"/>
    </contour>
    <contour>
      <point x="111" y="592" type="line"/>
      <point x="398" y="245" type="line"/>
      <point x="416" y="262" type="line"/>
      <point x="128" y="609" type="line"/>
    </contour>
  </outline>
</glyph>
<glyph name="oevowelsigndeva" format="2">
  <unicode hex="093A"/>
  <outline>
    <contour>
      <point x="-126" y="615" type="line"/>
      <point x="-100" y="615" type="line"/>
      <point x="-100" y="805" type="line"/>
      <point x="-126" y="805" type="line"/>
    </contour>
  </outline>
</glyph>
<glyph name="nuktadeva" format="2">
  <unicode hex="093C"/>
  <outline>
    <contour>
      <point x="-315" y="-134" type="curve" smooth="yes"/>
      <point x="-315" y="-159"/>
      <point x="-300" y="-172"/>
      <point x="-284" y="-172" type="curve" smooth="yes"/>
      <point x="-267" y="-172"/>
      <point x="-254" y="-160"/>
      <point x="-254" y="-134" type="curve" smooth="yes"/>
      <point x="-254" y="-111"/>
      <point x="-265" y="-96"/>
      <point x="-284" y="-96" type="curve" smooth="yes"/>
      <point x="-302" y="-96"/>
      <point x="-315" y="-110"/>
    </contour>
  </outline>
</glyph>
<glyph name="avagrahadeva" format="2">
  <advance width="426"/>
  <unicode hex="093D"/>
  <outline>
    <contour>
      <point x="373" y="184" type="curve" smooth="yes"/>
      <point x="373" y="240"/>
      <point x="356" y="292"/>
      <point x="255" y="375" type="curve" smooth="yes"/>
      <point x="165" y="449"/>
      <point x="141" y="478"/>
      <point x="141" y="525" type="curve" smooth="yes"/>
      <point x="141" y="546"/>
      <point x="148" y="563"/>
      <point x="163" y="575" type="curve" smooth="yes"/>
      <point x="180" y="588"/>
      <point x="198" y="596"/>
      <point x="253" y="596" type="curve" smooth="yes"/>
      <point x="356" y="596" type="line"/>
      <point x="356" y="622" type="line"/>
      <point x="262" y="622" type="line" smooth="yes"/>
      <point x="202" y="622"/>
      <point x="168" y="614"/>
      <point x="145" y="593" type="curve" smooth="yes"/>
      <point x="126" y="576"/>
      <point x="114" y="554"/>
      <point x="114" y="527" type="curve" smooth="yes"/>
      <point x="114" y="478"/>
      <point x="130" y="446"/>
      <point x="225" y="367" type="curve" smooth="yes"/>
      <point x="313" y="294"/>
      <point x="346" y="253"/>
      <point x="346" y="185" type="curve" smooth="yes"/>
      <point x="346" y="110"/>
      <point x="302" y="73"/>
      <point x="236" y="73" type="curve" smooth="yes"/>
      <point x="155" y="73"/>
      <point x="102" y="133"/>
      <point x="50" y="227" type="curve"/>
      <point x="26" y="213" type="line"/>
      <point x="100" y="89"/>
      <point x="157" y="47"/>
      <point x="238" y="47" type="curve" smooth="yes"/>
      <point x="310" y="47"/>
      <point x="373" y="93"/>
    </contour>
  </outline>
</glyph>
<glyph name="aavowelsigndeva" format="2">
  <advance width="225"/>
  <unicode hex="093E"/>
  <outline>
    <contour>
      <point x="125" y="596" type="line"/>
      <point x="240" y="596" type="line"/>
      <point x="240" y="622" type="line"/>
      <point x="0" y="622" type="line"/>
      <point x="0" y="596" type="line"/>
      <point x="99" y="596" type="line"/>
      <point x="99" y="0" type="line"/>
      <point x="125" y="0" type="line"/>
    </contour>
  </outline>
</glyph>
<glyph name="iivowelsigndeva" format="2">
  <advance width="225"/>
  <unicode hex="0940"/>
  <outline>
    <contour>
      <point x="-134" y="615" type="curve"/>
      <point x="-106" y="615" type="line"/>
      <point x="-131" y="663"/>
      <point x="-149" y="705"/>
      <point x="-149" y="765" type="curve" smooth="yes"/>
      <point x="-149" y="827"/>
      <point x="-124" y="870"/>
      <point x="-61" y="870" type="curve" smooth="yes"/>
      <point x="5" y="870"/>
      <point x="48" y="819"/>
      <point x="95" y="622" type="curve"/>
      <point x="0" y="622" type="line"/>
      <point x="0" y="596" type="line"/>
      <point x="99" y="596" type="line"/>
      <point x="99" y="0" type="line"/>
      <point x="125" y="0" type="line"/>
      <point x="125" y="596" type="line"/>
      <point x="240" y="596" type="line"/>
      <point x="240" y="622" type="line"/>
      <point x="121" y="622" type="line"/>
      <point x="78" y="800"/>
      <point x="39" y="896"/>
      <point x="-64" y="896" type="curve" smooth="yes"/>
      <point x="-138" y="896"/>
      <point x="-176" y="839"/>
      <point x="-176" y="766" type="curve" smooth="yes"/>
      <point x="-176" y="710"/>
      <point x="-157" y="660"/>
    </contour>
  </outline>
</glyph>
<glyph name="uvowelsigndeva" format="2">
  <unicode hex="0941"/>
  <outline>
    <contour>
      <point x="-220" y="-21" type="curve"/>
      <point x="-211" y="-46" type="line"/>
      <point x="-180" y="-30"/>
      <point x="-152" y="-23"/>
      <point x="-118" y="-23" type="curve" smooth="yes"/>
      <point x="-65" y="-23"/>
      <point x="-11" y="-50"/>
      <point x="-11" y="-126" type="curve" smooth="yes"/>
      <point x="-11" y="-189"/>
      <point x="-54" y="-229"/>
      <point x="-141" y="-229" type="curve" smooth="yes"/>
      <point x="-247" y="-229"/>
      <point x="-323" y="-177"/>
      <point x="-388" y="-85" type="curve"/>
      <point x="-409" y="-100" type="line"/>
      <point x="-346" y="-190"/>
      <point x="-265" y="-255"/>
      <point x="-140" y="-255" type="curve" smooth="yes"/>
      <point x="-38" y="-255"/>
      <point x="16" y="-201"/>
      <point x="16" y="-127" type="curve" smooth="yes"/>
      <point x="16" y="-44"/>
      <point x="-41" y="3"/>
      <point x="-118" y="3" type="curve" smooth="yes"/>
      <point x="-158" y="3"/>
      <point x="-189" y="-6"/>
    </contour>
  </outline>
</glyph>
<glyph name="uuvowelsigndeva" format="2">
  <unicode hex="0942"/>
  <outline>
    <contour>
      <point x="-43" y="-231" type="curve"/>
      <point x="-52" y="-206" type="line"/>
      <point x="-83" y="-221"/>
      <point x="-111" y="-229"/>
      <point x="-145" y="-229" type="curve" smooth="yes"/>
      <point x="-198" y="-229"/>
      <point x="-252" y="-202"/>
      <point x="-252" y="-126" type="curve" smooth="yes"/>
      <point x="-252" y="-63"/>
      <point x="-209" y="-23"/>
      <point x="-122" y="-23" type="curve" smooth="yes"/>
      <point x="-18" y="-23"/>
      <point x="44" y="-79"/>
      <point x="120" y="-201" type="curve"/>
      <point x="143" y="-188" type="line"/>
      <point x="80" y="-90"/>
      <point x="13" y="3"/>
      <point x="-123" y="3" type="curve" smooth="yes"/>
      <point x="-225" y="3"/>
      <point x="-279" y="-52"/>
      <point x="-279" y="-125" type="curve" smooth="yes"/>
      <point x="-279" y="-208"/>
      <point x="-222" y="-255"/>
      <point x="-145" y="-255" type="curve" smooth="yes"/>
      <point x="-104" y="-255"/>
      <point x="-73" y="-246"/>
    </contour>
  </outline>
</glyph>
<glyph name="rvocalicvowelsigndeva" format="2">
  <unicode hex="0943"/>
  <outline>
    <contour>
      <point x="6" y="-223" type="curve"/>
      <point x="-3" y="-198" type="line"/>
      <point x="-48" y="-222"/>
      <point x="-76" y="-229"/>
      <point x="-116" y="-229" type="curve" smooth="yes"/>
      <point x="-173" y="-229"/>
      <point x="-225" y="-203"/>
      <point x="-225" y="-127" type="curve" smooth="yes"/>
      <point x="-225" y="-68"/>
      <point x="-181" y="-21"/>
      <point x="-98" y="-12" type="curve"/>
      <point x="-100" y="13" type="line"/>
      <point x="-199" y="3"/>
      <point x="-252" y="-58"/>
      <point x="-252" y="-127" type="curve" smooth="yes"/>
      <point x="-252" y="-208"/>
      <point x="-194" y="-255"/>
      <point x="-115" y="-255" type="curve" smooth="yes"/>
      <point x="-75" y="-255"/>
      <point x="-38" y="-246"/>
    </contour>
  </outline>
</glyph>
<glyph name="rrvocalicvowelsigndeva" format="2">
  <unicode hex="0944"/>
  <outline>
    <contour>
      <point x="6" y="-184" type="curve"/>
      <point x="-3" y="-159" type="line"/>
      <point x="-48" y="-183"/>
      <point x="-76" y="-190"/>
      <point x="-116" y="-190" type="curve" smooth="yes"/>
      <point x="-176" y="-190"/>
      <point x="-225" y="-169"/>
      <point x="-225" y="-107" type="curve" smooth="yes"/>
      <point x="-225" y="-55"/>
      <point x="-185" y="-19"/>
      <point x="-98" y="-12" type="curve"/>
      <point x="-100" y="13" type="line"/>
      <point x="-207" y="5"/>
      <point x="-252" y="-47"/>
      <point x="-252" y="-107" type="curve" smooth="yes"/>
      <point x="-252" y="-175"/>
      <point x="-203" y="-216"/>
      <point x="-115" y="-216" type="curve" smooth="yes"/>
      <point x="-75" y="-216"/>
      <point x="-38" y="-207"/>
    </contour>
    <contour>
      <point x="42" y="-337" type="curve"/>
      <point x="33" y="-312" type="line"/>
      <point x="-12" y="-336"/>
      <point x="-40" y="-343"/>
      <point x="-80" y="-343" type="curve" smooth="yes"/>
      <point x="-140" y="-343"/>
      <point x="-189" y="-322"/>
      <point x="-189" y="-260" type="curve" smooth="yes"/>
      <point x="-189" y="-231"/>
      <point x="-177" y="-211"/>
      <point x="-160" y="-197" type="curve"/>
      <point x="-182" y="-183" type="line"/>
      <point x="-203" y="-205"/>
      <point x="-216" y="-227"/>
      <point x="-216" y="-260" type="curve" smooth="yes"/>
      <point x="-216" y="-328"/>
      <point x="-167" y="-369"/>
      <point x="-79" y="-369" type="curve" smooth="yes"/>
      <point x="-39" y="-369"/>
      <point x="-2" y="-360"/>
    </contour>
  </outline>
</glyph>
<glyph name="ecandravowelsigndeva" format="2">
  <unicode hex="0945"/>
  <outline>
    <contour>
      <point x="57" y="870" type="curve"/>
      <point x="32" y="878" type="line"/>
      <point x="6" y="778"/>
      <point x="-36" y="732"/>
      <point x="-115" y="732" type="curve" smooth="yes"/>
      <point x="-197" y="732"/>
      <point x="-244" y="786"/>
      <point x="-274" y="878" type="curve"/>
      <point x="-299" y="869" type="line"/>
      <point x="-263" y="768"/>
      <point x="-208" y="706"/>
      <point x="-116" y="706" type="curve" smooth="yes"/>
      <point x="-23" y="706"/>
      <point x="31" y="763"/>
    </contour>
  </outline>
</glyph>
<glyph name="evowelsigndeva" format="2">
  <unicode hex="0947"/>
  <outline>
    <contour>
      <point x="-128" y="615" type="curve"/>
      <point x="-102" y="615" type="line"/>
      <point x="-147" y="800"/>
      <point x="-185" y="896"/>
      <point x="-290" y="896" type="curve" smooth="yes"/>
      <point x="-330" y="896"/>
      <point x="-356" y="889"/>
      <point x="-380" y="880" type="curve"/>
      <point x="-370" y="854" type="line"/>
      <point x="-350" y="863"/>
      <point x="-319" y="870"/>
      <point x="-289" y="870" type="curve" smooth="yes"/>
      <point x="-221" y="870"/>
      <point x="-177" y="818"/>
    </contour>
  </outline>
</glyph>
<glyph name="viramadeva" format="2">
  <unicode hex="094D"/>
  <outline>
    <contour>
      <point x="-137" y="-54" type="curve"/>
      <point x="-134" y="-80" type="line"/>
      <point x="-124" y="-78"/>
      <point x="-113" y="-77"/>
      <point x="-97" y="-77" type="curve" smooth="yes"/>
      <point x="-14" y="-77"/>
      <point x="37" y="-121"/>
      <point x="120" y="-249" type="curve"/>
      <point x="143" y="-236" type="line"/>
      <point x="71" y="-125"/>
      <point x="11" y="-51"/>
      <point x="-100" y="-51" type="curve" smooth="yes"/>
      <point x="-119" y="-51"/>
      <point x="-128" y="-52"/>
    </contour>
  </outline>
</glyph>
<glyph name="uni094E" format="2">
  <advance width="236"/>
  <unicode hex="094E"/>
  <outline>
    <contour>
      <point x="136" y="596" type="line"/>
      <point x="251" y="596" type="line"/>
      <point x="251" y="622" type="line"/>
      <point x="110" y="622" type="line"/>
      <point x="110" y="0" type="line"/>
      <point x="136" y="0" type="line"/>
    </contour>
  </outline>
</glyph>
<glyph name="udattadeva" format="2">
  <unicode hex="0951"/>
  <outline>
    <contour>
      <point x="-100" y="672" type="line"/>
      <point x="-100" y="872" type="line"/>
      <point x="-126" y="872" type="line"/>
      <point x="-126" y="672" type="line"/>
    </contour>
  </outline>
</glyph>
<glyph name="anudattadeva" format="2">
  <unicode hex="0952"/>
  <outline>
    <contour>
      <point x="-394" y="-99" type="line"/>
      <point x="-394" y="-125" type="line"/>
      <point x="-98" y="-125" type="line"/>
      <point x="-98" y="-99" type="line"/>
    </contour>
  </outline>
</glyph>
<glyph name="uni0954" format="2">
  <unicode hex="0954"/>
  <outline>
    <contour>
      <point x="-22" y="871" type="line"/>
      <point x="-56" y="871" type="line"/>
      <point x="-148" y="683" type="line"/>
      <point x="-121" y="683" type="line"/>
    </contour>
  </outline>
</glyph>
<glyph name="rrvocalicdeva" format="2">
  <advance width="785"/>
  <unicode hex="0960"/>
  <outline>
    <contour>
      <point x="397" y="596" type="line"/>
      <point x="800" y="596" type="line"/>
      <point x="800" y="622" type="line"/>
      <point x="0" y="622" type="line"/>
      <point x="0" y="596" type="line"/>
      <point x="371" y="596" type="line"/>
      <point x="371" y="0" type="line"/>
      <point x="397" y="0" type="line"/>
    </contour>
    <contour>
      <point x="26" y="425" type="curve"/>
      <point x="36" y="401" type="line"/>
      <point x="88" y="425"/>
      <point x="124" y="435"/>
      <point x="168" y="435" type="curve" smooth="yes"/>
      <point x="239" y="435"/>
      <point x="275" y="413"/>
      <point x="370" y="282" type="curve"/>
      <point x="380" y="279" type="line"/>
      <point x="388" y="296" type="line"/>
      <point x="298" y="426"/>
      <point x="247" y="461"/>
      <point x="167" y="461" type="curve" smooth="yes"/>
      <point x="114" y="461"/>
      <point x="76" y="447"/>
    </contour>
    <contour>
      <point x="105" y="101" type="line"/>
      <point x="380" y="286" type="line"/>
      <point x="363" y="303" type="line"/>
      <point x="90" y="124" type="line"/>
    </contour>
    <contour>
      <point x="379" y="325" type="curve"/>
      <point x="388" y="299" type="line"/>
      <point x="444" y="299"/>
      <point x="520" y="310"/>
      <point x="573" y="325" type="curve"/>
      <point x="585" y="296"/>
      <point x="617" y="247"/>
      <point x="633" y="225" type="curve"/>
      <point x="644" y="223" type="line"/>
      <point x="652" y="243" type="line"/>
      <point x="634" y="269"/>
      <point x="616" y="296"/>
      <point x="599" y="331" type="curve"/>
      <point x="627" y="338"/>
      <point x="646" y="352"/>
      <point x="646" y="379" type="curve" smooth="yes"/>
      <point x="646" y="407"/>
      <point x="625" y="428"/>
      <point x="594" y="428" type="curve" smooth="yes"/>
      <point x="568" y="428"/>
      <point x="554" y="409"/>
      <point x="554" y="387" type="curve" smooth="yes"/>
      <point x="554" y="370"/>
      <point x="558" y="354"/>
      <point x="569" y="337" type="curve"/>
      <point x="576" y="352" type="line"/>
      <point x="526" y="336"/>
      <point x="451" y="325"/>
    </contour>
    <contour>
      <point x="782" y="56" type="curve"/>
      <point x="773" y="81" type="line"/>
      <point x="728" y="57"/>
      <point x="700" y="50"/>
      <point x="660" y="50" type="curve" smooth="yes"/>
      <point x="600" y="50"/>
      <point x="551" y="71"/>
      <point x="551" y="133" type="curve" smooth="yes"/>
      <point x="551" y="177"/>
      <point x="577" y="209"/>
      <point x="644" y="223" type="curve"/>
      <point x="633" y="246" type="line"/>
      <point x="559" y="228"/>
      <point x="524" y="189"/>
      <point x="524" y="133" type="curve" smooth="yes"/>
      <point x="524" y="65"/>
      <point x="573" y="24"/>
      <point x="661" y="24" type="curve" smooth="yes"/>
      <point x="701" y="24"/>
      <point x="738" y="33"/>
    </contour>
    <contour>
      <point x="818" y="-97" type="curve"/>
      <point x="809" y="-72" type="line"/>
      <point x="764" y="-96"/>
      <point x="736" y="-103"/>
      <point x="696" y="-103" type="curve" smooth="yes"/>
      <point x="636" y="-103"/>
      <point x="587" y="-82"/>
      <point x="587" y="-20" type="curve" smooth="yes"/>
      <point x="587" y="9"/>
      <point x="598" y="26"/>
      <point x="616" y="43" type="curve"/>
      <point x="594" y="57" type="line"/>
      <point x="573" y="35"/>
      <point x="560" y="13"/>
      <point x="560" y="-20" type="curve" smooth="yes"/>
      <point x="560" y="-88"/>
      <point x="609" y="-129"/>
      <point x="697" y="-129" type="curve" smooth="yes"/>
      <point x="737" y="-129"/>
      <point x="774" y="-120"/>
    </contour>
  </outline>
</glyph>
<glyph name="llvocalicdeva" format="2">
  <advance width="630"/>
  <unicode hex="0961"/>
  <outline>
    <contour>
      <point x="675" y="-120" type="curve"/>
      <point x="666" y="-95" type="line"/>
      <point x="621" y="-119"/>
      <point x="593" y="-126"/>
      <point x="553" y="-126" type="curve" smooth="yes"/>
      <point x="493" y="-126"/>
      <point x="444" y="-105"/>
      <point x="444" y="-43" type="curve" smooth="yes"/>
      <point x="444" y="-14"/>
      <point x="456" y="6"/>
      <point x="473" y="20" type="curve"/>
      <point x="451" y="34" type="line"/>
      <point x="430" y="12"/>
      <point x="417" y="-10"/>
      <point x="417" y="-43" type="curve" smooth="yes"/>
      <point x="417" y="-111"/>
      <point x="466" y="-152"/>
      <point x="554" y="-152" type="curve" smooth="yes"/>
      <point x="594" y="-152"/>
      <point x="631" y="-143"/>
    </contour>
    <contour>
      <point x="639" y="33" type="curve"/>
      <point x="630" y="58" type="line"/>
      <point x="585" y="34"/>
      <point x="557" y="27"/>
      <point x="517" y="27" type="curve" smooth="yes"/>
      <point x="457" y="27"/>
      <point x="408" y="48"/>
      <point x="408" y="110" type="curve" smooth="yes"/>
      <point x="408" y="165"/>
      <point x="452" y="204"/>
      <point x="561" y="207" type="curve"/>
      <point x="556" y="231" type="line"/>
      <point x="429" y="229"/>
      <point x="381" y="172"/>
      <point x="381" y="110" type="curve" smooth="yes"/>
      <point x="381" y="42"/>
      <point x="430" y="1"/>
      <point x="518" y="1" type="curve" smooth="yes"/>
      <point x="558" y="1"/>
      <point x="595" y="10"/>
    </contour>
    <contour>
      <point x="575" y="299" type="curve" smooth="yes"/>
      <point x="575" y="392"/>
      <point x="520" y="429"/>
      <point x="454" y="429" type="curve" smooth="yes"/>
      <point x="369" y="429"/>
      <point x="303" y="373"/>
      <point x="261" y="237" type="curve"/>
      <point x="287" y="229" type="line"/>
      <point x="328" y="365"/>
      <point x="386" y="403"/>
      <point x="453" y="403" type="curve" smooth="yes"/>
      <point x="512" y="403"/>
      <point x="548" y="372"/>
      <point x="548" y="297" type="curve" smooth="yes"/>
      <point x="548" y="265"/>
      <point x="543" y="238"/>
      <point x="535" y="214" type="curve"/>
      <point x="561" y="207" type="line"/>
      <point x="569" y="233"/>
      <point x="575" y="263"/>
    </contour>
    <contour>
      <point x="196" y="428" type="curve" smooth="yes"/>
      <point x="131" y="428"/>
      <point x="53" y="388"/>
      <point x="53" y="283" type="curve" smooth="yes"/>
      <point x="53" y="184"/>
      <point x="133" y="100"/>
      <point x="266" y="-10" type="curve"/>
      <point x="283" y="9" type="line"/>
      <point x="136" y="135"/>
      <point x="80" y="195"/>
      <point x="80" y="284" type="curve" smooth="yes"/>
      <point x="80" y="353"/>
      <point x="124" y="402"/>
      <point x="199" y="402" type="curve" smooth="yes"/>
      <point x="251" y="402"/>
      <point x="284" y="381"/>
      <point x="330" y="340" type="curve"/>
      <point x="344" y="362" type="line"/>
      <point x="299" y="401"/>
      <point x="257" y="428"/>
    </contour>
    <contour>
      <point x="448" y="596" type="line"/>
      <point x="448" y="420" type="line"/>
      <point x="474" y="408" type="line"/>
      <point x="474" y="596" type="line"/>
      <point x="645" y="596" type="line"/>
      <point x="645" y="622" type="line"/>
      <point x="0" y="622" type="line"/>
      <point x="0" y="596" type="line"/>
    </contour>
  </outline>
</glyph>
<glyph name="lvocalicvowelsigndeva" format="2">
  <unicode hex="0962"/>
  <outline>
    <contour>
      <point x="-214" y="-79" type="curve"/>
      <point x="-197" y="-59" type="line"/>
      <point x="-241" y="-22"/>
      <point x="-275" y="0"/>
      <point x="-320" y="0" type="curve" smooth="yes"/>
      <point x="-378" y="0"/>
      <point x="-423" y="-39"/>
      <point x="-423" y="-103" type="curve" smooth="yes"/>
      <point x="-423" y="-178"/>
      <point x="-360" y="-238"/>
      <point x="-275" y="-314" type="curve"/>
      <point x="-258" y="-295" type="line"/>
      <point x="-349" y="-218"/>
      <point x="-396" y="-169"/>
      <point x="-396" y="-106" type="curve" smooth="yes"/>
      <point x="-396" y="-62"/>
      <point x="-372" y="-26"/>
      <point x="-320" y="-26" type="curve" smooth="yes"/>
      <point x="-277" y="-26"/>
      <point x="-253" y="-44"/>
    </contour>
    <contour>
      <point x="-108" y="0" type="curve" smooth="yes"/>
      <point x="-187" y="0"/>
      <point x="-231" y="-62"/>
      <point x="-258" y="-149" type="curve"/>
      <point x="-232" y="-157" type="line"/>
      <point x="-206" y="-63"/>
      <point x="-163" y="-26"/>
      <point x="-113" y="-26" type="curve" smooth="yes"/>
      <point x="-67" y="-26"/>
      <point x="-43" y="-57"/>
      <point x="-43" y="-103" type="curve" smooth="yes"/>
      <point x="-43" y="-134"/>
      <point x="-48" y="-158"/>
      <point x="-64" y="-186" type="curve"/>
      <point x="-36" y="-170" type="line"/>
      <point x="-121" y="-180"/>
      <point x="-178" y="-215"/>
      <point x="-178" y="-293" type="curve" smooth="yes"/>
      <point x="-178" y="-357"/>
      <point x="-133" y="-394"/>
      <point x="-73" y="-394" type="curve" smooth="yes"/>
      <point x="-42" y="-394"/>
      <point x="-15" y="-388"/>
      <point x="17" y="-371" type="curve"/>
      <point x="8" y="-347" type="line"/>
      <point x="-20" y="-362"/>
      <point x="-43" y="-368"/>
      <point x="-73" y="-368" type="curve" smooth="yes"/>
      <point x="-120" y="-368"/>
      <point x="-151" y="-344"/>
      <point x="-151" y="-293" type="curve" smooth="yes"/>
      <point x="-151" y="-232"/>
      <point x="-106" y="-203"/>
      <point x="-38" y="-195" type="curve"/>
      <point x="-22" y="-167"/>
      <point x="-16" y="-132"/>
      <point x="-16" y="-103" type="curve" smooth="yes"/>
      <point x="-16" y="-31"/>
      <point x="-62" y="0"/>
    </contour>
  </outline>
</glyph>
<glyph name="zerodeva" format="2">
  <advance width="551"/>
  <unicode hex="0966"/>
  <outline>
    <contour>
      <point x="275" y="135" type="curve" smooth="yes"/>
      <point x="383" y="135"/>
      <point x="462" y="213"/>
      <point x="462" y="320" type="curve" smooth="yes"/>
      <point x="462" y="430"/>
      <point x="386" y="506"/>
      <point x="276" y="506" type="curve" smooth="yes"/>
      <point x="168" y="506"/>
      <point x="89" y="428"/>
      <point x="89" y="320" type="curve" smooth="yes"/>
      <point x="89" y="211"/>
      <point x="165" y="135"/>
    </contour>
    <contour>
      <point x="274" y="161" type="curve" smooth="yes"/>
      <point x="178" y="161"/>
      <point x="116" y="225"/>
      <point x="116" y="320" type="curve" smooth="yes"/>
      <point x="116" y="415"/>
      <point x="183" y="480"/>
      <point x="277" y="480" type="curve" smooth="yes"/>
      <point x="373" y="480"/>
      <point x="435" y="416"/>
      <point x="435" y="320" type="curve" smooth="yes"/>
      <point x="435" y="226"/>
      <point x="368" y="161"/>
    </contour>
  </outline>
</glyph>
<glyph name="twodeva" format="2">
  <advance width="551"/>
  <unicode hex="0968"/>
  <outline>
    <contour>
      <point x="214" y="257" type="curve"/>
      <point x="225" y="247" type="line"/>
      <point x="285" y="196"/>
      <point x="366" y="101"/>
      <point x="444" y="-13" type="curve"/>
      <point x="465" y="2" type="line"/>
      <point x="389" y="108"/>
      <point x="318" y="195"/>
      <point x="255" y="252" type="curve"/>
      <point x="251" y="261" type="line"/>
      <point x="218" y="288"/>
      <point x="191" y="302"/>
      <point x="161" y="302" type="curve" smooth="yes"/>
      <point x="138" y="302"/>
      <point x="121" y="293"/>
      <point x="121" y="270" type="curve" smooth="yes"/>
      <point x="121" y="250"/>
      <point x="139" y="229"/>
      <point x="191" y="229" type="curve" smooth="yes"/>
      <point x="318" y="229"/>
      <point x="421" y="328"/>
      <point x="421" y="450" type="curve" smooth="yes"/>
      <point x="421" y="580"/>
      <point x="333" y="632"/>
      <point x="245" y="632" type="curve" smooth="yes"/>
      <point x="188" y="632"/>
      <point x="140" y="619"/>
      <point x="87" y="594" type="curve"/>
      <point x="97" y="568" type="line"/>
      <point x="153" y="597"/>
      <point x="197" y="606"/>
      <point x="246" y="606" type="curve" smooth="yes"/>
      <point x="331" y="606"/>
      <point x="394" y="553"/>
      <point x="394" y="451" type="curve" smooth="yes"/>
      <point x="394" y="344"/>
      <point x="314" y="269"/>
    </contour>
  </outline>
</glyph>
<glyph name="fivedeva" format="2">
  <advance width="551"/>
  <unicode hex="096B"/>
  <outline>
    <contour>
      <point x="505" y="-67" type="curve"/>
      <point x="529" y="-56" type="line"/>
      <point x="472" y="34"/>
      <point x="410" y="168"/>
      <point x="385" y="240" type="curve"/>
      <point x="391" y="255" type="line"/>
      <point x="357" y="247"/>
      <point x="328" y="245"/>
      <point x="307" y="245" type="curve" smooth="yes"/>
      <point x="184" y="245"/>
      <point x="123" y="311"/>
      <point x="123" y="419" type="curve" smooth="yes"/>
      <point x="123" y="489"/>
      <point x="149" y="559"/>
      <point x="186" y="622" type="curve"/>
      <point x="161" y="632" type="line"/>
      <point x="122" y="570"/>
      <point x="96" y="492"/>
      <point x="96" y="421" type="curve" smooth="yes"/>
      <point x="96" y="280"/>
      <point x="188" y="219"/>
      <point x="308" y="219" type="curve" smooth="yes"/>
      <point x="377" y="219"/>
      <point x="444" y="232"/>
      <point x="444" y="282" type="curve" smooth="yes"/>
      <point x="444" y="311"/>
      <point x="420" y="333"/>
      <point x="390" y="333" type="curve" smooth="yes"/>
      <point x="362" y="333"/>
      <point x="347" y="315"/>
      <point x="347" y="287" type="curve" smooth="yes"/>
      <point x="347" y="272"/>
      <point x="351" y="254"/>
      <point x="363" y="230" type="curve"/>
      <point x="388" y="154"/>
      <point x="448" y="31"/>
    </contour>
  </outline>
</glyph>
<glyph name="sixdeva" format="2">
  <advance width="551"/>
  <unicode hex="096C"/>
  <outline>
    <contour>
      <point x="481" y="-67" type="curve"/>
      <point x="505" y="-56" type="line"/>
      <point x="464" y="9"/>
      <point x="430" y="79"/>
      <point x="409" y="124" type="curve"/>
      <point x="429" y="149" type="line"/>
      <point x="389" y="136"/>
      <point x="347" y="132"/>
      <point x="319" y="132" type="curve" smooth="yes"/>
      <point x="222" y="132"/>
      <point x="159" y="182"/>
      <point x="159" y="262" type="curve" smooth="yes"/>
      <point x="159" y="328"/>
      <point x="205" y="372"/>
      <point x="305" y="372" type="curve" smooth="yes"/>
      <point x="320" y="372"/>
      <point x="341" y="371"/>
      <point x="357" y="368" type="curve"/>
      <point x="359" y="394" type="line"/>
      <point x="347" y="396"/>
      <point x="324" y="398"/>
      <point x="306" y="398" type="curve" smooth="yes"/>
      <point x="266" y="398"/>
      <point x="237" y="391"/>
      <point x="214" y="383" type="curve"/>
      <point x="203" y="376" type="line"/>
      <point x="169" y="360"/>
      <point x="132" y="322"/>
      <point x="132" y="263" type="curve" smooth="yes"/>
      <point x="132" y="185"/>
      <point x="193" y="106"/>
      <point x="319" y="106" type="curve" smooth="yes"/>
      <point x="395" y="106"/>
      <point x="465" y="120"/>
      <point x="465" y="167" type="curve" smooth="yes"/>
      <point x="465" y="196"/>
      <point x="442" y="218"/>
      <point x="412" y="218" type="curve" smooth="yes"/>
      <point x="384" y="218"/>
      <point x="368" y="199"/>
      <point x="368" y="172" type="curve" smooth="yes"/>
      <point x="368" y="160"/>
      <point x="372" y="139"/>
      <point x="383" y="124" type="curve"/>
      <point x="385" y="118" type="line"/>
      <point x="409" y="64"/>
      <point x="440" y="5"/>
    </contour>
    <contour>
      <point x="212" y="361" type="curve"/>
      <point x="243" y="374" type="line"/>
      <point x="174" y="398"/>
      <point x="129" y="438"/>
      <point x="129" y="502" type="curve" smooth="yes"/>
      <point x="129" y="573"/>
      <point x="178" y="606"/>
      <point x="257" y="606" type="curve" smooth="yes"/>
      <point x="299" y="606"/>
      <point x="327" y="600"/>
      <point x="363" y="590" type="curve"/>
      <point x="368" y="616" type="line"/>
      <point x="338" y="624"/>
      <point x="301" y="632"/>
      <point x="260" y="632" type="curve" smooth="yes"/>
      <point x="169" y="632"/>
      <point x="102" y="591"/>
      <point x="102" y="501" type="curve" smooth="yes"/>
      <point x="102" y="437"/>
      <point x="149" y="387"/>
    </contour>
  </outline>
</glyph>
<glyph name="sevendeva" format="2">
  <advance width="551"/>
  <unicode hex="096D"/>
  <outline>
    <contour>
      <point x="497" y="272" type="curve" smooth="yes"/>
      <point x="497" y="407"/>
      <point x="431" y="534"/>
      <point x="323" y="534" type="curve" smooth="yes"/>
      <point x="254" y="534"/>
      <point x="213" y="492"/>
      <point x="213" y="433" type="curve" smooth="yes"/>
      <point x="213" y="359"/>
      <point x="265" y="302"/>
      <point x="408" y="299" type="curve"/>
      <point x="411" y="324" type="line"/>
      <point x="279" y="326"/>
      <point x="240" y="376"/>
      <point x="240" y="432" type="curve" smooth="yes"/>
      <point x="240" y="465"/>
      <point x="256" y="508"/>
      <point x="320" y="508" type="curve" smooth="yes"/>
      <point x="424" y="508"/>
      <point x="470" y="388"/>
      <point x="470" y="273" type="curve" smooth="yes"/>
      <point x="470" y="147"/>
      <point x="427" y="76"/>
      <point x="332" y="76" type="curve" smooth="yes"/>
      <point x="174" y="76"/>
      <point x="104" y="258"/>
      <point x="72" y="587" type="curve"/>
      <point x="45" y="583" type="line"/>
      <point x="84" y="204"/>
      <point x="170" y="50"/>
      <point x="331" y="50" type="curve" smooth="yes"/>
      <point x="413" y="50"/>
      <point x="497" y="98"/>
    </contour>
  </outline>
</glyph>
<glyph name="ninedeva" format="2">
  <advance width="551"/>
  <unicode hex="096F"/>
  <outline>
    <contour>
      <point x="90" y="479" type="curve" smooth="yes"/>
      <point x="90" y="419"/>
      <point x="115" y="380"/>
      <point x="174" y="332" type="curve" smooth="yes"/>
      <point x="425" y="128" type="line" smooth="yes"/>
      <point x="471" y="90"/>
      <point x="485" y="70"/>
      <point x="485" y="32" type="curve" smooth="yes"/>
      <point x="485" y="5"/>
      <point x="471" y="-23"/>
      <point x="448" y="-49" type="curve"/>
      <point x="470" y="-65" type="line"/>
      <point x="494" y="-33"/>
      <point x="512" y="-1"/>
      <point x="512" y="34" type="curve" smooth="yes"/>
      <point x="512" y="86"/>
      <point x="486" y="110"/>
      <point x="445" y="144" type="curve" smooth="yes"/>
      <point x="268" y="288" type="line" smooth="yes"/>
      <point x="231" y="318"/>
      <point x="190" y="344"/>
      <point x="165" y="358" type="curve"/>
      <point x="184" y="343" type="line"/>
      <point x="198" y="335"/>
      <point x="222" y="329"/>
      <point x="241" y="329" type="curve" smooth="yes"/>
      <point x="326" y="329"/>
      <point x="394" y="386"/>
      <point x="394" y="480" type="curve" smooth="yes"/>
      <point x="394" y="578"/>
      <point x="326" y="632"/>
      <point x="242" y="632" type="curve" smooth="yes"/>
      <point x="149" y="632"/>
      <point x="90" y="562"/>
    </contour>
    <contour>
      <point x="117" y="480" type="curve" smooth="yes"/>
      <point x="117" y="553"/>
      <point x="167" y="606"/>
      <point x="242" y="606" type="curve" smooth="yes"/>
      <point x="323" y="606"/>
      <point x="367" y="552"/>
      <point x="367" y="481" type="curve" smooth="yes"/>
      <point x="367" y="401"/>
      <point x="313" y="355"/>
      <point x="241" y="355" type="curve" smooth="yes"/>
      <point x="164" y="355"/>
      <point x="117" y="402"/>
    </contour>
  </outline>
</glyph>
<glyph name="abbreviationsigndeva" format="2">
  <advance width="357"/>
  <unicode hex="0970"/>
  <outline>
    <contour>
      <point x="179" y="319" type="curve" smooth="yes"/>
      <point x="246" y="319"/>
      <point x="295" y="369"/>
      <point x="295" y="439" type="curve" smooth="yes"/>
      <point x="295" y="508"/>
      <point x="245" y="558"/>
      <point x="179" y="558" type="curve" smooth="yes"/>
      <point x="109" y="558"/>
      <point x="62" y="505"/>
      <point x="62" y="439" type="curve" smooth="yes"/>
      <point x="62" y="367"/>
      <point x="114" y="319"/>
    </contour>
    <contour>
      <point x="179" y="345" type="curve" smooth="yes"/>
      <point x="126" y="345"/>
      <point x="88" y="381"/>
      <point x="88" y="439" type="curve" smooth="yes"/>
      <point x="88" y="493"/>
      <point x="122" y="532"/>
      <point x="179" y="532" type="curve" smooth="yes"/>
      <point x="232" y="532"/>
      <point x="269" y="494"/>
      <point x="269" y="439" type="curve" smooth="yes"/>
      <point x="269" y="381"/>
      <point x="232" y="345"/>
    </contour>
  </outline>
</glyph>
<glyph name="uni0971" format="2">
  <advance width="251"/>
  <unicode hex="0971"/>
  <outline>
    <contour>
      <point x="97" y="612" type="curve" smooth="yes"/>
      <point x="97" y="587"/>
      <point x="113" y="572"/>
      <point x="130" y="572" type="curve" smooth="yes"/>
      <point x="148" y="572"/>
      <point x="163" y="586"/>
      <point x="163" y="612" type="curve" smooth="yes"/>
      <point x="163" y="635"/>
      <point x="150" y="652"/>
      <point x="130" y="652" type="curve" smooth="yes"/>
      <point x="111" y="652"/>
      <point x="97" y="636"/>
    </contour>
  </outline>
</glyph>
<glyph name="marwariddadeva" format="2">
  <advance width="499"/>
  <unicode hex="0978"/>
  <outline>
    <contour>
      <point x="153" y="596" type="line"/>
      <point x="514" y="596" type="line"/>
      <point x="514" y="622" type="line"/>
      <point x="0" y="622" type="line"/>
      <point x="0" y="596" type="line"/>
      <point x="127" y="596" type="line"/>
      <point x="127" y="394" type="line"/>
      <point x="133" y="383" type="line"/>
      <point x="169" y="399"/>
      <point x="220" y="409"/>
      <point x="264" y="409" type="curve" smooth="yes"/>
      <point x="380" y="409"/>
      <point x="419" y="336"/>
      <point x="419" y="252" type="curve" smooth="yes"/>
      <point x="419" y="173"/>
      <point x="392" y="118"/>
      <point x="351" y="59" type="curve"/>
      <point x="375" y="43" type="line"/>
      <point x="416" y="105"/>
      <point x="446" y="168"/>
      <point x="446" y="250" type="curve" smooth="yes"/>
      <point x="446" y="360"/>
      <point x="386" y="435"/>
      <point x="264" y="435" type="curve" smooth="yes"/>
      <point x="226" y="435"/>
      <point x="182" y="429"/>
      <point x="148" y="419" type="curve"/>
      <point x="141" y="418" type="line"/>
      <point x="64" y="400"/>
      <point x="56" y="385"/>
      <point x="56" y="362" type="curve" smooth="yes"/>
      <point x="56" y="335"/>
      <point x="96" y="293"/>
      <point x="126" y="293" type="curve" smooth="yes"/>
      <point x="141" y="293"/>
      <point x="153" y="300"/>
      <point x="153" y="328" type="curve" smooth="yes"/>
    </contour>
  </outline>
</glyph>
<glyph name="gabardeva" format="2">
  <advance width="504"/>
  <unicode hex="097B"/>
  <outline>
    <contour>
      <point x="156" y="596" type="line"/>
      <point x="378" y="596" type="line"/>
      <point x="378" y="0" type="line"/>
      <point x="404" y="0" type="line"/>
      <point x="404" y="596" type="line"/>
      <point x="519" y="596" type="line"/>
      <point x="519" y="622" type="line"/>
      <point x="0" y="622" type="line"/>
      <point x="0" y="596" type="line"/>
      <point x="130" y="596" type="line"/>
      <point x="130" y="362" type="line"/>
      <point x="104" y="362" type="line" smooth="yes"/>
      <point x="70" y="362"/>
      <point x="58" y="350"/>
      <point x="58" y="331" type="curve" smooth="yes"/>
      <point x="58" y="297"/>
      <point x="95" y="255"/>
      <point x="128" y="255" type="curve" smooth="yes"/>
      <point x="143" y="255"/>
      <point x="156" y="266"/>
      <point x="156" y="294" type="curve" smooth="yes"/>
    </contour>
    <contour>
      <point x="88" y="26" type="line"/>
      <point x="88" y="0" type="line"/>
      <point x="393" y="0" type="line"/>
      <point x="393" y="26" type="line"/>
    </contour>
  </outline>
</glyph>
<glyph name="ddabardeva" format="2">
  <advance width="548"/>
  <unicode hex="097E"/>
  <outline>
    <contour>
      <point x="346" y="283" type="curve" smooth="yes"/>
      <point x="411" y="283"/>
      <point x="470" y="258"/>
      <point x="470" y="185" type="curve" smooth="yes"/>
      <point x="470" y="122"/>
      <point x="421" y="86"/>
      <point x="319" y="86" type="curve" smooth="yes"/>
      <point x="206" y="86"/>
      <point x="119" y="136"/>
      <point x="52" y="216" type="curve"/>
      <point x="30" y="200" type="line"/>
      <point x="102" y="118"/>
      <point x="189" y="60"/>
      <point x="321" y="60" type="curve" smooth="yes"/>
      <point x="438" y="60"/>
      <point x="497" y="112"/>
      <point x="497" y="185" type="curve" smooth="yes"/>
      <point x="497" y="264"/>
      <point x="436" y="309"/>
      <point x="346" y="309" type="curve" smooth="yes"/>
      <point x="295" y="309"/>
      <point x="257" y="300"/>
      <point x="224" y="285" type="curve"/>
      <point x="196" y="301"/>
      <point x="163" y="338"/>
      <point x="163" y="378" type="curve" smooth="yes"/>
      <point x="163" y="436"/>
      <point x="202" y="454"/>
      <point x="277" y="454" type="curve" smooth="yes"/>
      <point x="438" y="454" type="line"/>
      <point x="438" y="596" type="line"/>
      <point x="563" y="596" type="line"/>
      <point x="563" y="622" type="line"/>
      <point x="0" y="622" type="line"/>
      <point x="0" y="596" type="line"/>
      <point x="412" y="596" type="line"/>
      <point x="412" y="480" type="line"/>
      <point x="283" y="480" type="line" smooth="yes"/>
      <point x="206" y="480"/>
      <point x="175" y="464"/>
      <point x="154" y="438" type="curve" smooth="yes"/>
      <point x="142" y="423"/>
      <point x="136" y="406"/>
      <point x="136" y="381" type="curve" smooth="yes"/>
      <point x="136" y="324"/>
      <point x="179" y="282"/>
      <point x="221" y="256" type="curve"/>
      <point x="260" y="277"/>
      <point x="304" y="283"/>
    </contour>
    <contour>
      <point x="68" y="26" type="line"/>
      <point x="68" y="0" type="line"/>
      <point x="492" y="0" type="line"/>
      <point x="492" y="26" type="line"/>
    </contour>
  </outline>
</glyph>
<glyph name="uni1CD0" format="2">
  <unicode hex="1CD0"/>
  <outline>
    <contour>
      <point x="-284" y="967" type="line"/>
      <point x="-260" y="958" type="line"/>
      <point x="-144" y="1190" type="line"/>
      <point x="-26" y="958" type="line"/>
      <point x="-3" y="967" type="line"/>
      <point x="-135" y="1222" type="line"/>
      <point x="-152" y="1222" type="line"/>
    </contour>
  </outline>
</glyph>
<glyph name="uni1CD1" format="2">
  <unicode hex="1CD1"/>
  <outline>
    <contour>
      <point x="-284" y="983" type="line"/>
      <point x="-260" y="974" type="line"/>
      <point x="-144" y="1206" type="line"/>
      <point x="-26" y="974" type="line"/>
      <point x="-3" y="983" type="line"/>
      <point x="-135" y="1238" type="line"/>
      <point x="-152" y="1238" type="line"/>
    </contour>
    <contour>
      <point x="-156" y="1126" type="line"/>
      <point x="-156" y="909" type="line"/>
      <point x="-130" y="909" type="line"/>
      <point x="-130" y="1126" type="line"/>
    </contour>
  </outline>
</glyph>
<glyph name="uni1CD2" format="2">
  <unicode hex="1CD2"/>
  <outline>
    <contour>
      <point x="-285" y="1038" type="line"/>
      <point x="-285" y="1012" type="line"/>
      <point x="-2" y="1012" type="line"/>
      <point x="-2" y="1038" type="line"/>
    </contour>
  </outline>
</glyph>
<glyph name="uni1CD3" format="2">
  <advance width="244"/>
  <unicode hex="1CD3"/>
  <outline>
    <contour>
      <point x="186" y="896" type="line"/>
      <point x="157" y="659" type="line"/>
      <point x="183" y="659" type="line"/>
      <point x="212" y="896" type="line"/>
    </contour>
    <contour>
      <point x="82" y="896" type="line"/>
      <point x="53" y="659" type="line"/>
      <point x="79" y="659" type="line"/>
      <point x="108" y="896" type="line"/>
    </contour>
  </outline>
</glyph>
<glyph name="uni1CD4" format="2">
  <unicode hex="1CD4"/>
  <outline>
    <contour>
      <point x="-238" y="322" type="line"/>
      <point x="-238" y="297" type="line"/>
      <point x="7" y="297" type="line"/>
      <point x="7" y="322" type="line"/>
    </contour>
  </outline>
</glyph>
<glyph name="uni1CD5" format="2">
  <unicode hex="1CD5"/>
  <outline>
    <contour>
      <point x="-216" y="-65" type="curve"/>
      <point x="-239" y="-65" type="line"/>
      <point x="-242" y="-148"/>
      <point x="-263" y="-183"/>
      <point x="-315" y="-183" type="curve" smooth="yes"/>
      <point x="-359" y="-183"/>
      <point x="-387" y="-158"/>
      <point x="-389" y="-64" type="curve"/>
      <point x="-415" y="-65" type="line"/>
      <point x="-411" y="-172"/>
      <point x="-375" y="-209"/>
      <point x="-315" y="-209" type="curve" smooth="yes"/>
      <point x="-256" y="-209"/>
      <point x="-226" y="-172"/>
    </contour>
    <contour>
      <point x="-213" y="-65" type="curve"/>
      <point x="-236" y="-65" type="line"/>
      <point x="-227" y="-172"/>
      <point x="-195" y="-209"/>
      <point x="-136" y="-209" type="curve" smooth="yes"/>
      <point x="-77" y="-209"/>
      <point x="-41" y="-174"/>
      <point x="-38" y="-65" type="curve"/>
      <point x="-64" y="-64" type="line"/>
      <point x="-66" y="-159"/>
      <point x="-93" y="-183"/>
      <point x="-137" y="-183" type="curve" smooth="yes"/>
      <point x="-189" y="-183"/>
      <point x="-211" y="-146"/>
    </contour>
  </outline>
</glyph>
<glyph name="uni1CD6" format="2">
  <unicode hex="1CD6"/>
  <outline>
    <contour>
      <point x="-399" y="-61" type="line"/>
      <point x="-399" y="-211" type="line"/>
      <point x="-98" y="-211" type="line"/>
      <point x="-98" y="-185" type="line"/>
      <point x="-373" y="-185" type="line"/>
      <point x="-373" y="-61" type="line"/>
    </contour>
  </outline>
</glyph>
<glyph name="uni1CD7" format="2">
  <unicode hex="1CD7"/>
  <outline>
    <contour>
      <point x="-419" y="-130" type="curve" smooth="yes"/>
      <point x="-419" y="-161"/>
      <point x="-408" y="-183"/>
      <point x="-388" y="-198" type="curve" smooth="yes"/>
      <point x="-368" y="-213"/>
      <point x="-340" y="-220"/>
      <point x="-293" y="-220" type="curve" smooth="yes"/>
      <point x="-85" y="-220" type="line"/>
      <point x="-85" y="-194" type="line"/>
      <point x="-292" y="-194" type="line" smooth="yes"/>
      <point x="-334" y="-194"/>
      <point x="-357" y="-189"/>
      <point x="-373" y="-177" type="curve" smooth="yes"/>
      <point x="-386" y="-167"/>
      <point x="-392" y="-152"/>
      <point x="-392" y="-132" type="curve" smooth="yes"/>
      <point x="-392" y="-87"/>
      <point x="-357" y="-70"/>
      <point x="-311" y="-70" type="curve" smooth="yes"/>
      <point x="-303" y="-70" type="line"/>
      <point x="-305" y="-44" type="line"/>
      <point x="-377" y="-44"/>
      <point x="-419" y="-76"/>
    </contour>
  </outline>
</glyph>
<glyph name="uni1CD9" format="2">
  <unicode hex="1CD9"/>
  <outline>
    <contour>
      <point x="-113" y="-67" type="line"/>
      <point x="96" y="-224" type="line"/>
      <point x="111" y="-203" type="line"/>
      <point x="-110" y="-40" type="line"/>
      <point x="-122" y="-40" type="line"/>
      <point x="-252" y="-209" type="line"/>
      <point x="-231" y="-224" type="line"/>
    </contour>
  </outline>
</glyph>
<glyph name="uni1CDA" format="2">
  <unicode hex="1CDA"/>
  <outline>
    <contour>
      <point x="-79" y="872" type="line"/>
      <point x="-79" y="672" type="line"/>
      <point x="-53" y="672" type="line"/>
      <point x="-53" y="872" type="line"/>
    </contour>
    <contour>
      <point x="-173" y="872" type="line"/>
      <point x="-173" y="672" type="line"/>
      <point x="-147" y="672" type="line"/>
      <point x="-147" y="872" type="line"/>
    </contour>
  </outline>
</glyph>
<glyph name="uni1CDB" format="2">
  <unicode hex="1CDB"/>
  <outline>
    <contour>
      <point x="-212" y="872" type="line"/>
      <point x="-212" y="672" type="line"/>
      <point x="-186" y="672" type="line"/>
      <point x="-186" y="872" type="line"/>
    </contour>
    <contour>
      <point x="-126" y="872" type="line"/>
      <point x="-126" y="672" type="line"/>
      <point x="-100" y="672" type="line"/>
      <point x="-100" y="872" type="line"/>
    </contour>
    <contour>
      <point x="-40" y="872" type="line"/>
      <point x="-40" y="672" type="line"/>
      <point x="-14" y="672" type="line"/>
      <point x="-14" y="872" type="line"/>
    </contour>
  </outline>
</glyph>
<glyph name="uni1CDD" format="2">
  <unicode hex="1CDD"/>
  <outline>
    <contour>
      <point x="-60" y="-166" type="line"/>
      <point x="-113" y="-112" type="line"/>
      <point x="-166" y="-166" type="line"/>
      <point x="-113" y="-220" type="line"/>
    </contour>
  </outline>
</glyph>
<glyph name="uni1CDE" format="2">
  <unicode hex="1CDE"/>
  <outline>
    <contour>
      <point x="-140" y="-125" type="curve" smooth="yes"/>
      <point x="-140" y="-147"/>
      <point x="-127" y="-160"/>
      <point x="-113" y="-160" type="curve" smooth="yes"/>
      <point x="-99" y="-160"/>
      <point x="-86" y="-148"/>
      <point x="-86" y="-125" type="curve" smooth="yes"/>
      <point x="-86" y="-104"/>
      <point x="-97" y="-90"/>
      <point x="-113" y="-90" type="curve" smooth="yes"/>
      <point x="-128" y="-90"/>
      <point x="-140" y="-103"/>
    </contour>
    <contour>
      <point x="-261" y="-125" type="curve" smooth="yes"/>
      <point x="-261" y="-147"/>
      <point x="-248" y="-160"/>
      <point x="-234" y="-160" type="curve" smooth="yes"/>
      <point x="-220" y="-160"/>
      <point x="-207" y="-148"/>
      <point x="-207" y="-125" type="curve" smooth="yes"/>
      <point x="-207" y="-104"/>
      <point x="-218" y="-90"/>
      <point x="-234" y="-90" type="curve" smooth="yes"/>
      <point x="-249" y="-90"/>
      <point x="-261" y="-103"/>
    </contour>
  </outline>
</glyph>
<glyph name="uni1CE0" format="2">
  <unicode hex="1CE0"/>
  <outline>
    <contour>
      <point x="41" y="691" type="curve" smooth="yes"/>
      <point x="41" y="630"/>
      <point x="89" y="596"/>
      <point x="157" y="596" type="curve" smooth="yes"/>
      <point x="172" y="596" type="line"/>
      <point x="172" y="622" type="line"/>
      <point x="158" y="622" type="line" smooth="yes"/>
      <point x="106" y="622"/>
      <point x="68" y="639"/>
      <point x="68" y="689" type="curve" smooth="yes"/>
      <point x="68" y="716"/>
      <point x="79" y="735"/>
      <point x="93" y="745" type="curve" smooth="yes"/>
      <point x="113" y="760"/>
      <point x="138" y="763"/>
      <point x="193" y="763" type="curve" smooth="yes"/>
      <point x="407" y="763" type="line"/>
      <point x="407" y="789" type="line"/>
      <point x="189" y="789" type="line" smooth="yes"/>
      <point x="125" y="789"/>
      <point x="100" y="782"/>
      <point x="75" y="764" type="curve" smooth="yes"/>
      <point x="55" y="749"/>
      <point x="41" y="724"/>
    </contour>
  </outline>
</glyph>
<glyph name="uni1CE2" format="2">
  <unicode hex="1CE2"/>
  <outline>
    <contour>
      <point x="-234" y="289" type="line"/>
      <point x="-234" y="263" type="line"/>
      <point x="3" y="263" type="line"/>
      <point x="3" y="289" type="line"/>
    </contour>
  </outline>
</glyph>
<glyph name="uni1CE3" format="2">
  <unicode hex="1CE3"/>
  <outline>
    <contour>
      <point x="-51" y="579" type="curve"/>
      <point x="-68" y="557" type="line"/>
      <point x="-38" y="535"/>
      <point x="-6" y="511"/>
      <point x="27" y="483" type="curve" smooth="yes"/>
      <point x="81" y="436"/>
      <point x="107" y="405"/>
      <point x="107" y="358" type="curve" smooth="yes"/>
      <point x="107" y="336"/>
      <point x="100" y="319"/>
      <point x="87" y="308" type="curve" smooth="yes"/>
      <point x="71" y="294"/>
      <point x="53" y="289"/>
      <point x="-3" y="289" type="curve" smooth="yes"/>
      <point x="-110" y="289" type="line"/>
      <point x="-110" y="263" type="line"/>
      <point x="-9" y="263" type="line" smooth="yes"/>
      <point x="61" y="263"/>
      <point x="89" y="271"/>
      <point x="112" y="296" type="curve" smooth="yes"/>
      <point x="126" y="311"/>
      <point x="134" y="331"/>
      <point x="134" y="359" type="curve" smooth="yes"/>
      <point x="134" y="402"/>
      <point x="116" y="441"/>
      <point x="49" y="499" type="curve" smooth="yes"/>
      <point x="10" y="533"/>
      <point x="-14" y="552"/>
    </contour>
  </outline>
</glyph>
<glyph name="uni1CE4" format="2">
  <unicode hex="1CE4"/>
  <outline>
    <contour>
      <point x="242" y="557" type="curve"/>
      <point x="225" y="579" type="line"/>
      <point x="188" y="552"/>
      <point x="164" y="533"/>
      <point x="125" y="499" type="curve" smooth="yes"/>
      <point x="58" y="441"/>
      <point x="40" y="402"/>
      <point x="40" y="359" type="curve" smooth="yes"/>
      <point x="40" y="331"/>
      <point x="48" y="311"/>
      <point x="62" y="296" type="curve" smooth="yes"/>
      <point x="85" y="271"/>
      <point x="113" y="263"/>
      <point x="183" y="263" type="curve" smooth="yes"/>
      <point x="284" y="263" type="line"/>
      <point x="284" y="289" type="line"/>
      <point x="177" y="289" type="line" smooth="yes"/>
      <point x="121" y="289"/>
      <point x="103" y="294"/>
      <point x="87" y="308" type="curve" smooth="yes"/>
      <point x="74" y="319"/>
      <point x="67" y="336"/>
      <point x="67" y="358" type="curve" smooth="yes"/>
      <point x="67" y="405"/>
      <point x="93" y="436"/>
      <point x="147" y="483" type="curve" smooth="yes"/>
      <point x="180" y="511"/>
      <point x="212" y="535"/>
    </contour>
  </outline>
</glyph>
<glyph name="uni1CE5" format="2">
  <unicode hex="1CE5"/>
  <outline>
    <contour>
      <point x="225" y="-27" type="curve"/>
      <point x="242" y="-5" type="line"/>
      <point x="212" y="17"/>
      <point x="180" y="41"/>
      <point x="147" y="69" type="curve" smooth="yes"/>
      <point x="93" y="116"/>
      <point x="67" y="147"/>
      <point x="67" y="194" type="curve" smooth="yes"/>
      <point x="67" y="216"/>
      <point x="74" y="233"/>
      <point x="87" y="244" type="curve" smooth="yes"/>
      <point x="103" y="258"/>
      <point x="121" y="263"/>
      <point x="177" y="263" type="curve" smooth="yes"/>
      <point x="284" y="263" type="line"/>
      <point x="284" y="289" type="line"/>
      <point x="183" y="289" type="line" smooth="yes"/>
      <point x="113" y="289"/>
      <point x="85" y="281"/>
      <point x="62" y="256" type="curve" smooth="yes"/>
      <point x="48" y="241"/>
      <point x="40" y="221"/>
      <point x="40" y="193" type="curve" smooth="yes"/>
      <point x="40" y="150"/>
      <point x="58" y="111"/>
      <point x="125" y="53" type="curve" smooth="yes"/>
      <point x="164" y="19"/>
      <point x="188" y="0"/>
    </contour>
  </outline>
</glyph>
<glyph name="uni1CE6" format="2">
  <unicode hex="1CE6"/>
  <outline>
    <contour>
      <point x="-68" y="-5" type="curve"/>
      <point x="-51" y="-27" type="line"/>
      <point x="-14" y="0"/>
      <point x="10" y="19"/>
      <point x="49" y="53" type="curve" smooth="yes"/>
      <point x="116" y="111"/>
      <point x="134" y="150"/>
      <point x="134" y="193" type="curve" smooth="yes"/>
      <point x="134" y="221"/>
      <point x="126" y="241"/>
      <point x="112" y="256" type="curve" smooth="yes"/>
      <point x="89" y="281"/>
      <point x="61" y="289"/>
      <point x="-9" y="289" type="curve" smooth="yes"/>
      <point x="-110" y="289" type="line"/>
      <point x="-110" y="263" type="line"/>
      <point x="-3" y="263" type="line" smooth="yes"/>
      <point x="53" y="263"/>
      <point x="71" y="258"/>
      <point x="87" y="244" type="curve" smooth="yes"/>
      <point x="100" y="233"/>
      <point x="107" y="216"/>
      <point x="107" y="194" type="curve" smooth="yes"/>
      <point x="107" y="147"/>
      <point x="81" y="116"/>
      <point x="27" y="69" type="curve" smooth="yes"/>
      <point x="-6" y="41"/>
      <point x="-38" y="17"/>
    </contour>
  </outline>
</glyph>
<glyph name="uni1CE7" format="2">
  <unicode hex="1CE7"/>
  <outline>
    <contour>
      <point x="-110" y="291" type="line"/>
      <point x="-110" y="265" type="line"/>
      <point x="-14" y="265" type="line" smooth="yes"/>
      <point x="58" y="265"/>
      <point x="86" y="274"/>
      <point x="110" y="297" type="curve" smooth="yes"/>
      <point x="125" y="312"/>
      <point x="134" y="333"/>
      <point x="134" y="361" type="curve" smooth="yes"/>
      <point x="134" y="407"/>
      <point x="114" y="441"/>
      <point x="46" y="499" type="curve" smooth="yes"/>
      <point x="-31" y="564"/>
      <point x="-51" y="597"/>
      <point x="-51" y="646" type="curve" smooth="yes"/>
      <point x="-51" y="690"/>
      <point x="-26" y="728"/>
      <point x="33" y="728" type="curve" smooth="yes"/>
      <point x="98" y="728"/>
      <point x="143" y="687"/>
      <point x="191" y="600" type="curve"/>
      <point x="215" y="613" type="line"/>
      <point x="153" y="725"/>
      <point x="94" y="754"/>
      <point x="34" y="754" type="curve" smooth="yes"/>
      <point x="-38" y="754"/>
      <point x="-78" y="704"/>
      <point x="-78" y="647" type="curve" smooth="yes"/>
      <point x="-78" y="587"/>
      <point x="-57" y="557"/>
      <point x="28" y="480" type="curve" smooth="yes"/>
      <point x="85" y="428"/>
      <point x="107" y="407"/>
      <point x="107" y="360" type="curve" smooth="yes"/>
      <point x="107" y="338"/>
      <point x="100" y="321"/>
      <point x="87" y="310" type="curve" smooth="yes"/>
      <point x="71" y="296"/>
      <point x="53" y="291"/>
      <point x="-11" y="291" type="curve"/>
    </contour>
  </outline>
</glyph>
<glyph name="uni1CE8" format="2">
  <unicode hex="1CE8"/>
  <outline>
    <contour>
      <point x="291" y="263" type="line"/>
      <point x="291" y="289" type="line"/>
      <point x="195" y="289" type="line" smooth="yes"/>
      <point x="123" y="289"/>
      <point x="95" y="280"/>
      <point x="71" y="257" type="curve" smooth="yes"/>
      <point x="56" y="242"/>
      <point x="47" y="221"/>
      <point x="47" y="193" type="curve" smooth="yes"/>
      <point x="47" y="147"/>
      <point x="67" y="113"/>
      <point x="135" y="55" type="curve" smooth="yes"/>
      <point x="212" y="-10"/>
      <point x="232" y="-43"/>
      <point x="232" y="-92" type="curve" smooth="yes"/>
      <point x="232" y="-136"/>
      <point x="207" y="-174"/>
      <point x="148" y="-174" type="curve" smooth="yes"/>
      <point x="83" y="-174"/>
      <point x="38" y="-133"/>
      <point x="-10" y="-46" type="curve"/>
      <point x="-34" y="-59" type="line"/>
      <point x="28" y="-171"/>
      <point x="87" y="-200"/>
      <point x="147" y="-200" type="curve" smooth="yes"/>
      <point x="219" y="-200"/>
      <point x="259" y="-150"/>
      <point x="259" y="-93" type="curve" smooth="yes"/>
      <point x="259" y="-33"/>
      <point x="238" y="-3"/>
      <point x="153" y="74" type="curve" smooth="yes"/>
      <point x="96" y="126"/>
      <point x="74" y="147"/>
      <point x="74" y="194" type="curve" smooth="yes"/>
      <point x="74" y="216"/>
      <point x="81" y="233"/>
      <point x="94" y="244" type="curve" smooth="yes"/>
      <point x="110" y="258"/>
      <point x="128" y="263"/>
      <point x="192" y="263" type="curve" smooth="yes"/>
    </contour>
  </outline>
</glyph>
<glyph name="uni1CE9" format="2">
  <advance width="767"/>
  <unicode hex="1CE9"/>
  <outline>
    <contour>
      <point x="391" y="0" type="curve" smooth="yes"/>
      <point x="582" y="0"/>
      <point x="699" y="120"/>
      <point x="699" y="353" type="curve" smooth="yes"/>
      <point x="699" y="524"/>
      <point x="628" y="632"/>
      <point x="527" y="632" type="curve" smooth="yes"/>
      <point x="472" y="632"/>
      <point x="419" y="594"/>
      <point x="419" y="527" type="curve" smooth="yes"/>
      <point x="419" y="488"/>
      <point x="436" y="405"/>
      <point x="571" y="405" type="curve" smooth="yes"/>
      <point x="587" y="405"/>
      <point x="607" y="407"/>
      <point x="624" y="410" type="curve"/>
      <point x="621" y="436" type="line"/>
      <point x="607" y="433"/>
      <point x="589" y="431"/>
      <point x="570" y="431" type="curve" smooth="yes"/>
      <point x="480" y="431"/>
      <point x="446" y="471"/>
      <point x="446" y="526" type="curve" smooth="yes"/>
      <point x="446" y="566"/>
      <point x="469" y="606"/>
      <point x="524" y="606" type="curve" smooth="yes"/>
      <point x="613" y="606"/>
      <point x="672" y="507"/>
      <point x="672" y="359" type="curve" smooth="yes"/>
      <point x="672" y="349" type="line" smooth="yes"/>
      <point x="672" y="163"/>
      <point x="593" y="26"/>
      <point x="385" y="26" type="curve" smooth="yes"/>
      <point x="194" y="26"/>
      <point x="99" y="147"/>
      <point x="99" y="339" type="curve" smooth="yes"/>
      <point x="99" y="347" type="line" smooth="yes"/>
      <point x="99" y="522"/>
      <point x="171" y="606"/>
      <point x="248" y="606" type="curve" smooth="yes"/>
      <point x="298" y="606"/>
      <point x="325" y="575"/>
      <point x="325" y="524" type="curve" smooth="yes"/>
      <point x="325" y="465"/>
      <point x="286" y="431"/>
      <point x="211" y="431" type="curve" smooth="yes"/>
      <point x="181" y="431"/>
      <point x="165" y="433"/>
      <point x="150" y="436" type="curve"/>
      <point x="146" y="410" type="line"/>
      <point x="161" y="407"/>
      <point x="177" y="405"/>
      <point x="205" y="405" type="curve" smooth="yes"/>
      <point x="309" y="405"/>
      <point x="352" y="458"/>
      <point x="352" y="523" type="curve" smooth="yes"/>
      <point x="352" y="589"/>
      <point x="312" y="632"/>
      <point x="246" y="632" type="curve" smooth="yes"/>
      <point x="159" y="632"/>
      <point x="72" y="539"/>
      <point x="72" y="347" type="curve" smooth="yes"/>
      <point x="72" y="136"/>
      <point x="172" y="0"/>
    </contour>
  </outline>
</glyph>
<glyph name="uni1CEA" format="2">
  <advance width="688"/>
  <unicode hex="1CEA"/>
  <outline>
    <contour>
      <point x="342" y="0" type="curve"/>
      <point x="522" y="0"/>
      <point x="588" y="89"/>
      <point x="588" y="190" type="curve" smooth="yes"/>
      <point x="588" y="258"/>
      <point x="552" y="307"/>
      <point x="514" y="348" type="curve" smooth="yes"/>
      <point x="463" y="404"/>
      <point x="437" y="436"/>
      <point x="437" y="496" type="curve" smooth="yes"/>
      <point x="437" y="567"/>
      <point x="482" y="606"/>
      <point x="542" y="606" type="curve" smooth="yes"/>
      <point x="598" y="606"/>
      <point x="617" y="569"/>
      <point x="617" y="536" type="curve" smooth="yes"/>
      <point x="617" y="491"/>
      <point x="588" y="462"/>
      <point x="506" y="451" type="curve"/>
      <point x="509" y="425" type="line"/>
      <point x="604" y="439"/>
      <point x="644" y="478"/>
      <point x="644" y="537" type="curve" smooth="yes"/>
      <point x="644" y="588"/>
      <point x="608" y="632"/>
      <point x="542" y="632" type="curve" smooth="yes"/>
      <point x="456" y="632"/>
      <point x="410" y="566"/>
      <point x="410" y="498" type="curve" smooth="yes"/>
      <point x="410" y="432"/>
      <point x="440" y="388"/>
      <point x="493" y="332" type="curve" smooth="yes"/>
      <point x="544" y="279"/>
      <point x="561" y="237"/>
      <point x="561" y="191" type="curve" smooth="yes"/>
      <point x="561" y="125"/>
      <point x="529" y="26"/>
      <point x="343" y="26" type="curve" smooth="yes"/>
      <point x="175" y="26"/>
      <point x="131" y="115"/>
      <point x="131" y="191" type="curve" smooth="yes"/>
      <point x="131" y="246"/>
      <point x="155" y="284"/>
      <point x="199" y="332" type="curve" smooth="yes"/>
      <point x="254" y="392"/>
      <point x="282" y="423"/>
      <point x="282" y="497" type="curve" smooth="yes"/>
      <point x="282" y="559"/>
      <point x="246" y="632"/>
      <point x="152" y="632" type="curve" smooth="yes"/>
      <point x="92" y="632"/>
      <point x="48" y="594"/>
      <point x="48" y="541" type="curve" smooth="yes"/>
      <point x="48" y="484"/>
      <point x="81" y="437"/>
      <point x="183" y="425" type="curve"/>
      <point x="186" y="451" type="line"/>
      <point x="109" y="461"/>
      <point x="75" y="487"/>
      <point x="75" y="539" type="curve" smooth="yes"/>
      <point x="75" y="577"/>
      <point x="101" y="606"/>
      <point x="152" y="606" type="curve" smooth="yes"/>
      <point x="210" y="606"/>
      <point x="255" y="565"/>
      <point x="255" y="496" type="curve" smooth="yes"/>
      <point x="255" y="438"/>
      <point x="232" y="404"/>
      <point x="182" y="352" type="curve" smooth="yes"/>
      <point x="150" y="318"/>
      <point x="104" y="271"/>
      <point x="104" y="190" type="curve" smooth="yes"/>
      <point x="104" y="91"/>
      <point x="173" y="0"/>
    </contour>
  </outline>
</glyph>
<glyph name="uni1CEB" format="2">
  <advance width="705"/>
  <unicode hex="1CEB"/>
  <outline>
    <contour>
      <point x="346" y="0" type="curve" smooth="yes"/>
      <point x="513" y="0"/>
      <point x="645" y="99"/>
      <point x="645" y="320" type="curve" smooth="yes"/>
      <point x="645" y="458"/>
      <point x="573" y="566"/>
      <point x="473" y="566" type="curve" smooth="yes"/>
      <point x="418" y="566"/>
      <point x="365" y="528"/>
      <point x="365" y="461" type="curve" smooth="yes"/>
      <point x="365" y="422"/>
      <point x="382" y="339"/>
      <point x="517" y="339" type="curve" smooth="yes"/>
      <point x="533" y="339"/>
      <point x="553" y="341"/>
      <point x="570" y="344" type="curve"/>
      <point x="567" y="370" type="line"/>
      <point x="553" y="367"/>
      <point x="535" y="365"/>
      <point x="516" y="365" type="curve" smooth="yes"/>
      <point x="426" y="365"/>
      <point x="392" y="405"/>
      <point x="392" y="460" type="curve" smooth="yes"/>
      <point x="392" y="500"/>
      <point x="415" y="540"/>
      <point x="470" y="540" type="curve" smooth="yes"/>
      <point x="559" y="540"/>
      <point x="618" y="441"/>
      <point x="618" y="319" type="curve" smooth="yes"/>
      <point x="618" y="121"/>
      <point x="508" y="26"/>
      <point x="343" y="26" type="curve" smooth="yes"/>
      <point x="175" y="26"/>
      <point x="131" y="115"/>
      <point x="131" y="191" type="curve" smooth="yes"/>
      <point x="131" y="246"/>
      <point x="155" y="284"/>
      <point x="199" y="332" type="curve" smooth="yes"/>
      <point x="254" y="392"/>
      <point x="282" y="423"/>
      <point x="282" y="497" type="curve" smooth="yes"/>
      <point x="282" y="559"/>
      <point x="246" y="632"/>
      <point x="152" y="632" type="curve" smooth="yes"/>
      <point x="92" y="632"/>
      <point x="48" y="594"/>
      <point x="48" y="541" type="curve" smooth="yes"/>
      <point x="48" y="484"/>
      <point x="81" y="437"/>
      <point x="183" y="425" type="curve"/>
      <point x="186" y="451" type="line"/>
      <point x="109" y="461"/>
      <point x="75" y="487"/>
      <point x="75" y="539" type="curve" smooth="yes"/>
      <point x="75" y="577"/>
      <point x="101" y="606"/>
      <point x="152" y="606" type="curve" smooth="yes"/>
      <point x="210" y="606"/>
      <point x="255" y="565"/>
      <point x="255" y="496" type="curve" smooth="yes"/>
      <point x="255" y="438"/>
      <point x="232" y="404"/>
      <point x="182" y="352" type="curve" smooth="yes"/>
      <point x="150" y="318"/>
      <point x="104" y="271"/>
      <point x="104" y="190" type="curve" smooth="yes"/>
      <point x="104" y="91"/>
      <point x="172" y="0"/>
    </contour>
  </outline>
</glyph>
<glyph name="uni1CEC" format="2">
  <advance width="769"/>
  <unicode hex="1CEC"/>
  <outline>
    <contour>
      <point x="583" y="337" type="curve" smooth="yes"/>
      <point x="583" y="171"/>
      <point x="516" y="26"/>
      <point x="332" y="26" type="curve" smooth="yes"/>
      <point x="175" y="26"/>
      <point x="131" y="115"/>
      <point x="131" y="191" type="curve" smooth="yes"/>
      <point x="131" y="246"/>
      <point x="155" y="284"/>
      <point x="199" y="332" type="curve" smooth="yes"/>
      <point x="254" y="392"/>
      <point x="282" y="423"/>
      <point x="282" y="497" type="curve" smooth="yes"/>
      <point x="282" y="559"/>
      <point x="246" y="632"/>
      <point x="152" y="632" type="curve" smooth="yes"/>
      <point x="92" y="632"/>
      <point x="48" y="594"/>
      <point x="48" y="541" type="curve" smooth="yes"/>
      <point x="48" y="484"/>
      <point x="81" y="437"/>
      <point x="183" y="425" type="curve"/>
      <point x="186" y="451" type="line"/>
      <point x="109" y="461"/>
      <point x="75" y="487"/>
      <point x="75" y="539" type="curve" smooth="yes"/>
      <point x="75" y="577"/>
      <point x="101" y="606"/>
      <point x="152" y="606" type="curve" smooth="yes"/>
      <point x="210" y="606"/>
      <point x="255" y="565"/>
      <point x="255" y="496" type="curve" smooth="yes"/>
      <point x="255" y="438"/>
      <point x="232" y="404"/>
      <point x="182" y="352" type="curve" smooth="yes"/>
      <point x="150" y="318"/>
      <point x="104" y="271"/>
      <point x="104" y="190" type="curve" smooth="yes"/>
      <point x="104" y="91"/>
      <point x="170" y="0"/>
      <point x="332" y="0" type="curve" smooth="yes"/>
      <point x="518" y="0"/>
      <point x="610" y="140"/>
      <point x="610" y="331" type="curve" smooth="yes"/>
      <point x="610" y="498"/>
      <point x="552" y="566"/>
      <point x="469" y="566" type="curve" smooth="yes"/>
      <point x="397" y="566"/>
      <point x="356" y="516"/>
      <point x="356" y="459" type="curve" smooth="yes"/>
      <point x="356" y="388"/>
      <point x="392" y="334"/>
      <point x="590" y="298" type="curve"/>
      <point x="683" y="285"/>
      <point x="713" y="243"/>
      <point x="713" y="185" type="curve" smooth="yes"/>
      <point x="713" y="131"/>
      <point x="688" y="85"/>
      <point x="659" y="47" type="curve"/>
      <point x="681" y="32" type="line"/>
      <point x="715" y="75"/>
      <point x="739" y="130"/>
      <point x="739" y="187" type="curve" smooth="yes"/>
      <point x="739" y="250"/>
      <point x="708" y="307"/>
      <point x="589" y="325" type="curve"/>
      <point x="427" y="357"/>
      <point x="383" y="391"/>
      <point x="383" y="458" type="curve" smooth="yes"/>
      <point x="383" y="503"/>
      <point x="412" y="540"/>
      <point x="470" y="540" type="curve" smooth="yes"/>
      <point x="546" y="540"/>
      <point x="583" y="462"/>
    </contour>
  </outline>
</glyph>
<glyph name="uni1CED" format="2">
  <unicode hex="1CED"/>
  <outline>
    <contour>
      <point x="-133" y="-70" type="line"/>
      <point x="78" y="-226" type="line"/>
      <point x="93" y="-206" type="line"/>
      <point x="-117" y="-50" type="line"/>
    </contour>
  </outline>
</glyph>
<glyph name="uni1CEE" format="2">
  <advance width="482"/>
  <unicode hex="1CEE"/>
  <outline>
    <contour>
      <point x="289" y="0" type="curve" smooth="yes"/>
      <point x="373" y="0"/>
      <point x="444" y="25"/>
      <point x="444" y="67" type="curve" smooth="yes"/>
      <point x="444" y="86"/>
      <point x="435" y="103"/>
      <point x="410" y="103" type="curve" smooth="yes"/>
      <point x="387" y="103"/>
      <point x="377" y="85"/>
      <point x="377" y="68" type="curve" smooth="yes"/>
      <point x="377" y="55"/>
      <point x="380" y="44"/>
      <point x="385" y="34" type="curve"/>
      <point x="383" y="43" type="line"/>
      <point x="360" y="33"/>
      <point x="331" y="26"/>
      <point x="292" y="26" type="curve" smooth="yes"/>
      <point x="197" y="26"/>
      <point x="135" y="75"/>
      <point x="135" y="180" type="curve" smooth="yes"/>
      <point x="135" y="282"/>
      <point x="211" y="332"/>
      <point x="303" y="332" type="curve" smooth="yes"/>
      <point x="313" y="332"/>
      <point x="324" y="331"/>
      <point x="332" y="330" type="curve"/>
      <point x="337" y="356" type="line"/>
      <point x="324" y="358"/>
      <point x="312" y="358"/>
      <point x="303" y="358" type="curve" smooth="yes"/>
      <point x="189" y="358"/>
      <point x="108" y="287"/>
      <point x="108" y="180" type="curve" smooth="yes"/>
      <point x="108" y="73"/>
      <point x="172" y="0"/>
    </contour>
    <contour>
      <point x="209" y="316" type="curve"/>
      <point x="231" y="333" type="line"/>
      <point x="126" y="379"/>
      <point x="89" y="431"/>
      <point x="89" y="491" type="curve" smooth="yes"/>
      <point x="89" y="549"/>
      <point x="125" y="606"/>
      <point x="234" y="606" type="curve" smooth="yes"/>
      <point x="272" y="606"/>
      <point x="303" y="601"/>
      <point x="328" y="593" type="curve"/>
      <point x="333" y="619" type="line"/>
      <point x="308" y="626"/>
      <point x="272" y="632"/>
      <point x="233" y="632" type="curve" smooth="yes"/>
      <point x="108" y="632"/>
      <point x="62" y="556"/>
      <point x="62" y="495" type="curve" smooth="yes"/>
      <point x="62" y="410"/>
      <point x="117" y="357"/>
    </contour>
    <contour>
      <point x="422" y="303" type="curve" smooth="yes"/>
      <point x="439" y="303"/>
      <point x="452" y="315"/>
      <point x="452" y="341" type="curve" smooth="yes"/>
      <point x="452" y="364"/>
      <point x="441" y="379"/>
      <point x="422" y="379" type="curve" smooth="yes"/>
      <point x="404" y="379"/>
      <point x="391" y="365"/>
      <point x="391" y="341" type="curve" smooth="yes"/>
      <point x="391" y="316"/>
      <point x="406" y="303"/>
    </contour>
  </outline>
</glyph>
<glyph name="uni1CEF" format="2">
  <advance width="431"/>
  <unicode hex="1CEF"/>
  <outline>
    <contour>
      <point x="391" y="309" type="curve"/>
      <point x="383" y="334" type="line"/>
      <point x="344" y="318"/>
      <point x="294" y="312"/>
      <point x="255" y="312" type="curve" smooth="yes"/>
      <point x="160" y="312"/>
      <point x="89" y="355"/>
      <point x="89" y="454" type="curve" smooth="yes"/>
      <point x="89" y="555"/>
      <point x="161" y="606"/>
      <point x="278" y="606" type="curve" smooth="yes"/>
      <point x="307" y="606"/>
      <point x="344" y="603"/>
      <point x="366" y="598" type="curve"/>
      <point x="370" y="624" type="line"/>
      <point x="354" y="628"/>
      <point x="312" y="632"/>
      <point x="276" y="632" type="curve" smooth="yes"/>
      <point x="146" y="632"/>
      <point x="62" y="567"/>
      <point x="62" y="455" type="curve" smooth="yes"/>
      <point x="62" y="361"/>
      <point x="121" y="297"/>
      <point x="234" y="290" type="curve" smooth="yes"/>
      <point x="250" y="289"/>
      <point x="252" y="286"/>
      <point x="262" y="286" type="curve" smooth="yes"/>
      <point x="293" y="286"/>
      <point x="348" y="293"/>
    </contour>
    <contour>
      <point x="310" y="305" type="line"/>
      <point x="272" y="303" type="line"/>
      <point x="164" y="283"/>
      <point x="98" y="222"/>
      <point x="98" y="126" type="curve" smooth="yes"/>
      <point x="98" y="36"/>
      <point x="165" y="-12"/>
      <point x="238" y="-12" type="curve" smooth="yes"/>
      <point x="308" y="-12"/>
      <point x="353" y="25"/>
      <point x="353" y="82" type="curve" smooth="yes"/>
      <point x="353" y="153"/>
      <point x="303" y="182"/>
      <point x="227" y="185" type="curve"/>
      <point x="225" y="159" type="line"/>
      <point x="295" y="158"/>
      <point x="326" y="133"/>
      <point x="326" y="84" type="curve" smooth="yes"/>
      <point x="326" y="40"/>
      <point x="298" y="14"/>
      <point x="239" y="14" type="curve" smooth="yes"/>
      <point x="171" y="14"/>
      <point x="125" y="56"/>
      <point x="125" y="126" type="curve" smooth="yes"/>
      <point x="125" y="205"/>
      <point x="175" y="274"/>
      <point x="322" y="292" type="curve"/>
    </contour>
    <contour>
      <point x="232" y="456" type="curve" smooth="yes"/>
      <point x="232" y="431"/>
      <point x="247" y="418"/>
      <point x="263" y="418" type="curve" smooth="yes"/>
      <point x="280" y="418"/>
      <point x="293" y="430"/>
      <point x="293" y="456" type="curve" smooth="yes"/>
      <point x="293" y="479"/>
      <point x="282" y="494"/>
      <point x="263" y="494" type="curve" smooth="yes"/>
      <point x="245" y="494"/>
      <point x="232" y="480"/>
    </contour>
  </outline>
</glyph>
<glyph name="uni1CF0" format="2">
  <advance width="498"/>
  <unicode hex="1CF0"/>
  <outline>
    <contour>
      <point x="261" y="310" type="curve" smooth="yes"/>
      <point x="271" y="310" type="line"/>
      <point x="276" y="324"/>
      <point x="280" y="338"/>
      <point x="280" y="351" type="curve" smooth="yes"/>
      <point x="280" y="382"/>
      <point x="264" y="403"/>
      <point x="225" y="438" type="curve" smooth="yes"/>
      <point x="178" y="481"/>
      <point x="158" y="504"/>
      <point x="158" y="544" type="curve" smooth="yes"/>
      <point x="158" y="580"/>
      <point x="179" y="606"/>
      <point x="225" y="606" type="curve" smooth="yes"/>
      <point x="275" y="606"/>
      <point x="311" y="569"/>
      <point x="346" y="517" type="curve"/>
      <point x="368" y="531" type="line"/>
      <point x="325" y="593"/>
      <point x="284" y="632"/>
      <point x="223" y="632" type="curve" smooth="yes"/>
      <point x="161" y="632"/>
      <point x="131" y="589"/>
      <point x="131" y="547" type="curve" smooth="yes"/>
      <point x="131" y="500"/>
      <point x="151" y="473"/>
      <point x="205" y="421" type="curve" smooth="yes"/>
      <point x="248" y="379"/>
      <point x="254" y="369"/>
      <point x="254" y="348" type="curve" smooth="yes"/>
      <point x="254" y="341"/>
      <point x="252" y="331"/>
      <point x="250" y="325" type="curve"/>
      <point x="267" y="336" type="line"/>
      <point x="139" y="336"/>
      <point x="45" y="276"/>
      <point x="45" y="174" type="curve" smooth="yes"/>
      <point x="45" y="64"/>
      <point x="127" y="0"/>
      <point x="249" y="0" type="curve" smooth="yes"/>
      <point x="359" y="0"/>
      <point x="449" y="50"/>
      <point x="449" y="159" type="curve" smooth="yes"/>
      <point x="449" y="232"/>
      <point x="395" y="309"/>
      <point x="274" y="335" type="curve"/>
      <point x="265" y="324" type="line"/>
      <point x="265" y="310" type="line"/>
      <point x="364" y="293"/>
      <point x="422" y="229"/>
      <point x="422" y="159" type="curve" smooth="yes"/>
      <point x="422" y="67"/>
      <point x="353" y="26"/>
      <point x="247" y="26" type="curve" smooth="yes"/>
      <point x="148" y="26"/>
      <point x="72" y="74"/>
      <point x="72" y="170" type="curve" smooth="yes"/>
      <point x="72" y="264"/>
      <point x="151" y="310"/>
    </contour>
    <contour>
      <point x="386" y="408" type="curve" smooth="yes"/>
      <point x="386" y="383"/>
      <point x="401" y="370"/>
      <point x="417" y="370" type="curve" smooth="yes"/>
      <point x="434" y="370"/>
      <point x="447" y="382"/>
      <point x="447" y="408" type="curve" smooth="yes"/>
      <point x="447" y="431"/>
      <point x="436" y="446"/>
      <point x="417" y="446" type="curve" smooth="yes"/>
      <point x="399" y="446"/>
      <point x="386" y="432"/>
    </contour>
  </outline>
</glyph>
<glyph name="uni1CF1" format="2">
  <advance width="462"/>
  <unicode hex="1CF1"/>
  <outline>
    <contour>
      <point x="220" y="-5" type="curve"/>
      <point x="237" y="-27" type="line"/>
      <point x="274" y="0"/>
      <point x="298" y="19"/>
      <point x="337" y="53" type="curve" smooth="yes"/>
      <point x="404" y="111"/>
      <point x="422" y="150"/>
      <point x="422" y="193" type="curve" smooth="yes"/>
      <point x="422" y="221"/>
      <point x="414" y="241"/>
      <point x="400" y="256" type="curve" smooth="yes"/>
      <point x="377" y="281"/>
      <point x="349" y="289"/>
      <point x="279" y="289" type="curve" smooth="yes"/>
      <point x="206" y="289" type="line"/>
      <point x="206" y="263" type="line"/>
      <point x="285" y="263" type="line" smooth="yes"/>
      <point x="341" y="263"/>
      <point x="359" y="258"/>
      <point x="375" y="244" type="curve" smooth="yes"/>
      <point x="388" y="233"/>
      <point x="395" y="216"/>
      <point x="395" y="194" type="curve" smooth="yes"/>
      <point x="395" y="147"/>
      <point x="369" y="116"/>
      <point x="315" y="69" type="curve" smooth="yes"/>
      <point x="282" y="41"/>
      <point x="250" y="17"/>
    </contour>
    <contour>
      <point x="119" y="118" type="curve" smooth="yes"/>
      <point x="119" y="92"/>
      <point x="135" y="77"/>
      <point x="153" y="77" type="curve" smooth="yes"/>
      <point x="172" y="77"/>
      <point x="187" y="91"/>
      <point x="187" y="118" type="curve" smooth="yes"/>
      <point x="187" y="142"/>
      <point x="174" y="159"/>
      <point x="153" y="159" type="curve" smooth="yes"/>
      <point x="133" y="159"/>
      <point x="119" y="143"/>
    </contour>
    <contour>
      <point x="242" y="557" type="curve"/>
      <point x="225" y="579" type="line"/>
      <point x="188" y="552"/>
      <point x="164" y="533"/>
      <point x="125" y="499" type="curve" smooth="yes"/>
      <point x="58" y="441"/>
      <point x="40" y="402"/>
      <point x="40" y="359" type="curve" smooth="yes"/>
      <point x="40" y="331"/>
      <point x="48" y="311"/>
      <point x="62" y="296" type="curve" smooth="yes"/>
      <point x="85" y="271"/>
      <point x="113" y="263"/>
      <point x="183" y="263" type="curve" smooth="yes"/>
      <point x="258" y="263" type="line"/>
      <point x="258" y="289" type="line"/>
      <point x="177" y="289" type="line" smooth="yes"/>
      <point x="121" y="289"/>
      <point x="103" y="294"/>
      <point x="87" y="308" type="curve" smooth="yes"/>
      <point x="74" y="319"/>
      <point x="67" y="336"/>
      <point x="67" y="358" type="curve" smooth="yes"/>
      <point x="67" y="405"/>
      <point x="93" y="436"/>
      <point x="147" y="483" type="curve" smooth="yes"/>
      <point x="180" y="511"/>
      <point x="212" y="535"/>
    </contour>
    <contour>
      <point x="275" y="434" type="curve" smooth="yes"/>
      <point x="275" y="408"/>
      <point x="291" y="393"/>
      <point x="309" y="393" type="curve" smooth="yes"/>
      <point x="328" y="393"/>
      <point x="343" y="407"/>
      <point x="343" y="434" type="curve" smooth="yes"/>
      <point x="343" y="458"/>
      <point x="330" y="475"/>
      <point x="309" y="475" type="curve" smooth="yes"/>
      <point x="289" y="475"/>
      <point x="275" y="459"/>
    </contour>
  </outline>
</glyph>
<glyph name="uni1CF2" format="2">
  <advance width="460"/>
  <unicode hex="1CF2"/>
  <outline>
    <contour>
      <point x="235" y="303" type="curve" smooth="yes"/>
      <point x="333" y="303"/>
      <point x="390" y="363"/>
      <point x="417" y="475" type="curve"/>
      <point x="392" y="483" type="line"/>
      <point x="364" y="378"/>
      <point x="320" y="329"/>
      <point x="236" y="329" type="curve" smooth="yes"/>
      <point x="149" y="329"/>
      <point x="100" y="387"/>
      <point x="68" y="483" type="curve"/>
      <point x="43" y="474" type="line"/>
      <point x="81" y="368"/>
      <point x="139" y="303"/>
    </contour>
    <contour>
      <point x="225" y="262" type="curve" smooth="yes"/>
      <point x="127" y="262"/>
      <point x="70" y="202"/>
      <point x="43" y="90" type="curve"/>
      <point x="68" y="82" type="line"/>
      <point x="96" y="187"/>
      <point x="140" y="236"/>
      <point x="224" y="236" type="curve" smooth="yes"/>
      <point x="311" y="236"/>
      <point x="360" y="178"/>
      <point x="392" y="82" type="curve"/>
      <point x="417" y="91" type="line"/>
      <point x="379" y="197"/>
      <point x="321" y="262"/>
    </contour>
  </outline>
</glyph>
<glyph name="uni1CF3" format="2">
  <advance width="490"/>
  <unicode hex="1CF3"/>
  <outline>
    <contour>
      <point x="43" y="119" type="curve"/>
      <point x="51" y="95" type="line"/>
      <point x="164" y="123"/>
      <point x="224" y="181"/>
      <point x="224" y="277" type="curve" smooth="yes"/>
      <point x="224" y="373"/>
      <point x="159" y="431"/>
      <point x="52" y="469" type="curve"/>
      <point x="43" y="445" type="line"/>
      <point x="139" y="413"/>
      <point x="197" y="364"/>
      <point x="197" y="276" type="curve" smooth="yes"/>
      <point x="197" y="191"/>
      <point x="148" y="147"/>
    </contour>
    <contour>
      <point x="447" y="445" type="curve"/>
      <point x="439" y="469" type="line"/>
      <point x="326" y="441"/>
      <point x="266" y="384"/>
      <point x="266" y="287" type="curve" smooth="yes"/>
      <point x="266" y="191"/>
      <point x="331" y="133"/>
      <point x="438" y="95" type="curve"/>
      <point x="447" y="119" type="line"/>
      <point x="351" y="152"/>
      <point x="293" y="202"/>
      <point x="293" y="288" type="curve" smooth="yes"/>
      <point x="293" y="373"/>
      <point x="342" y="417"/>
    </contour>
  </outline>
</glyph>
<glyph name="uni1CF4" format="2">
  <unicode hex="1CF4"/>
  <outline>
    <contour>
      <point x="57" y="1129" type="curve"/>
      <point x="32" y="1137" type="line"/>
      <point x="6" y="1037"/>
      <point x="-36" y="991"/>
      <point x="-115" y="991" type="curve" smooth="yes"/>
      <point x="-197" y="991"/>
      <point x="-244" y="1045"/>
      <point x="-274" y="1137" type="curve"/>
      <point x="-299" y="1128" type="line"/>
      <point x="-263" y="1027"/>
      <point x="-208" y="965"/>
      <point x="-116" y="965" type="curve" smooth="yes"/>
      <point x="-23" y="965"/>
      <point x="31" y="1022"/>
    </contour>
  </outline>
</glyph>
<glyph name="uni1CF6" format="2">
  <advance width="563"/>
  <unicode hex="1CF6"/>
  <outline>
    <contour>
      <point x="172" y="205" type="curve" smooth="yes"/>
      <point x="242" y="205"/>
      <point x="283" y="260"/>
      <point x="292" y="415" type="curve"/>
      <point x="269" y="415" type="line"/>
      <point x="266" y="284"/>
      <point x="234" y="231"/>
      <point x="172" y="231" type="curve" smooth="yes"/>
      <point x="116" y="231"/>
      <point x="79" y="271"/>
      <point x="76" y="416" type="curve"/>
      <point x="49" y="415" type="line"/>
      <point x="54" y="254"/>
      <point x="100" y="205"/>
    </contour>
    <contour>
      <point x="392" y="205" type="curve" smooth="yes"/>
      <point x="460" y="205"/>
      <point x="510" y="251"/>
      <point x="514" y="415" type="curve"/>
      <point x="487" y="416" type="line"/>
      <point x="484" y="270"/>
      <point x="446" y="231"/>
      <point x="392" y="231" type="curve" smooth="yes"/>
      <point x="328" y="231"/>
      <point x="298" y="286"/>
      <point x="295" y="415" type="curve"/>
      <point x="273" y="415" type="line"/>
      <point x="280" y="254"/>
      <point x="323" y="205"/>
    </contour>
  </outline>
</glyph>
<glyph name="endash.deva" format="2">
  <advance width="500"/>
  <unicode hex="2013"/>
  <outline>
    <contour>
      <point x="40" y="310" type="line"/>
      <point x="40" y="284" type="line"/>
      <point x="460" y="284" type="line"/>
      <point x="460" y="310" type="line"/>
    </contour>
  </outline>
</glyph>
<glyph name="uni20B9.deva" format="2">
  <advance width="551"/>
  <unicode hex="20B9"/>
  <outline>
    <contour>
      <point x="490" y="596" type="line"/>
      <point x="490" y="622" type="line"/>
      <point x="80" y="622" type="line"/>
      <point x="80" y="596" type="line"/>
      <point x="123" y="596" type="line" smooth="yes"/>
      <point x="203" y="596"/>
      <point x="241" y="584"/>
      <point x="270" y="555" type="curve" smooth="yes"/>
      <point x="291" y="533"/>
      <point x="301" y="502"/>
      <point x="301" y="461" type="curve" smooth="yes"/>
      <point x="301" y="414"/>
      <point x="290" y="381"/>
      <point x="263" y="358" type="curve" smooth="yes"/>
      <point x="234" y="334"/>
      <point x="191" y="323"/>
      <point x="120" y="323" type="curve" smooth="yes"/>
      <point x="89" y="323" type="line"/>
      <point x="85" y="296" type="line"/>
      <point x="329" y="0" type="line"/>
      <point x="361" y="0" type="line"/>
      <point x="103" y="314" type="line"/>
      <point x="112" y="297" type="line"/>
      <point x="271" y="297"/>
      <point x="327" y="354"/>
      <point x="327" y="462" type="curve" smooth="yes"/>
      <point x="327" y="530"/>
      <point x="294" y="580"/>
      <point x="242" y="596" type="curve"/>
    </contour>
    <contour>
      <point x="80" y="473" type="line"/>
      <point x="80" y="447" type="line"/>
      <point x="490" y="447" type="line"/>
      <point x="490" y="473" type="line"/>
    </contour>
  </outline>
</glyph>
<glyph name="uni20F0" format="2">
  <unicode hex="20F0"/>
  <outline>
    <contour>
      <point x="-106" y="962" type="line"/>
      <point x="-84" y="948" type="line"/>
      <point x="-4" y="1066" type="line"/>
      <point x="75" y="948" type="line"/>
      <point x="97" y="962" type="line"/>
      <point x="9" y="1078" type="line"/>
      <point x="148" y="1118" type="line"/>
      <point x="140" y="1143" type="line"/>
      <point x="5" y="1095" type="line"/>
      <point x="9" y="1238" type="line"/>
      <point x="-18" y="1238" type="line"/>
      <point x="-14" y="1095" type="line"/>
      <point x="-149" y="1143" type="line"/>
      <point x="-157" y="1118" type="line"/>
      <point x="-18" y="1078" type="line"/>
    </contour>
  </outline>
</glyph>
<glyph name="uniA831" format="2">
  <advance width="377"/>
  <unicode hex="A831"/>
  <outline>
    <contour>
      <point x="270" y="622" type="line"/>
      <point x="270" y="0" type="line"/>
      <point x="296" y="0" type="line"/>
      <point x="296" y="622" type="line"/>
    </contour>
    <contour>
      <point x="81" y="622" type="line"/>
      <point x="81" y="0" type="line"/>
      <point x="107" y="0" type="line"/>
      <point x="107" y="622" type="line"/>
    </contour>
  </outline>
</glyph>
<glyph name="uniA832" format="2">
  <advance width="566"/>
  <unicode hex="A832"/>
  <outline>
    <contour>
      <point x="270" y="622" type="line"/>
      <point x="270" y="0" type="line"/>
      <point x="296" y="0" type="line"/>
      <point x="296" y="622" type="line"/>
    </contour>
    <contour>
      <point x="81" y="622" type="line"/>
      <point x="81" y="0" type="line"/>
      <point x="107" y="0" type="line"/>
      <point x="107" y="622" type="line"/>
    </contour>
    <contour>
      <point x="459" y="622" type="line"/>
      <point x="459" y="0" type="line"/>
      <point x="485" y="0" type="line"/>
      <point x="485" y="622" type="line"/>
    </contour>
  </outline>
</glyph>
<glyph name="uniA836" format="2">
  <advance width="451"/>
  <unicode hex="A836"/>
  <outline>
    <contour>
      <point x="225" y="170" type="curve" smooth="yes"/>
      <point x="321" y="170"/>
      <point x="379" y="234"/>
      <point x="379" y="318" type="curve" smooth="yes"/>
      <point x="379" y="405"/>
      <point x="319" y="470"/>
      <point x="225" y="470" type="curve" smooth="yes"/>
      <point x="130" y="470"/>
      <point x="72" y="405"/>
      <point x="72" y="321" type="curve" smooth="yes"/>
      <point x="72" y="235"/>
      <point x="131" y="170"/>
    </contour>
    <contour>
      <point x="225" y="196" type="curve" smooth="yes"/>
      <point x="144" y="196"/>
      <point x="99" y="248"/>
      <point x="99" y="321" type="curve" smooth="yes"/>
      <point x="99" y="392"/>
      <point x="144" y="444"/>
      <point x="225" y="444" type="curve" smooth="yes"/>
      <point x="307" y="444"/>
      <point x="352" y="392"/>
      <point x="352" y="319" type="curve" smooth="yes"/>
      <point x="352" y="247"/>
      <point x="306" y="196"/>
    </contour>
  </outline>
</glyph>
<glyph name="uniA838" format="2">
  <advance width="271"/>
  <unicode hex="A838"/>
  <outline>
    <contour>
      <point x="-164" y="-105" type="curve"/>
      <point x="-168" y="-130" type="line"/>
      <point x="-146" y="-136"/>
      <point x="-105" y="-141"/>
      <point x="-75" y="-141" type="curve" smooth="yes"/>
      <point x="154" y="-141"/>
      <point x="201" y="4"/>
      <point x="201" y="180" type="curve" smooth="yes"/>
      <point x="201" y="311"/>
      <point x="169" y="508"/>
      <point x="135" y="632" type="curve"/>
      <point x="110" y="626" type="line"/>
      <point x="139" y="516"/>
      <point x="174" y="335"/>
      <point x="174" y="180" type="curve" smooth="yes"/>
      <point x="174" y="-11"/>
      <point x="120" y="-115"/>
      <point x="-76" y="-115" type="curve" smooth="yes"/>
      <point x="-97" y="-115"/>
      <point x="-130" y="-112"/>
    </contour>
  </outline>
</glyph>
<glyph name="uniA8E0" format="2">
  <unicode hex="A8E0"/>
  <outline>
    <contour>
      <point x="-206" y="1095" type="curve" smooth="yes"/>
      <point x="-206" y="1039"/>
      <point x="-167" y="1000"/>
      <point x="-110" y="1000" type="curve" smooth="yes"/>
      <point x="-54" y="1000"/>
      <point x="-14" y="1041"/>
      <point x="-14" y="1095" type="curve" smooth="yes"/>
      <point x="-14" y="1152"/>
      <point x="-53" y="1191"/>
      <point x="-110" y="1191" type="curve" smooth="yes"/>
      <point x="-166" y="1191"/>
      <point x="-206" y="1151"/>
    </contour>
    <contour>
      <point x="-183" y="1095" type="curve" smooth="yes"/>
      <point x="-183" y="1139"/>
      <point x="-153" y="1169"/>
      <point x="-110" y="1169" type="curve" smooth="yes"/>
      <point x="-65" y="1169"/>
      <point x="-37" y="1140"/>
      <point x="-37" y="1095" type="curve" smooth="yes"/>
      <point x="-37" y="1052"/>
      <point x="-67" y="1022"/>
      <point x="-110" y="1022" type="curve" smooth="yes"/>
      <point x="-155" y="1022"/>
      <point x="-183" y="1051"/>
    </contour>
  </outline>
</glyph>
<glyph name="uniA8E1" format="2">
  <unicode hex="A8E1"/>
  <outline>
    <contour>
      <point x="-118" y="1243" type="curve" smooth="yes"/>
      <point x="-166" y="1243"/>
      <point x="-184" y="1214"/>
      <point x="-184" y="1191" type="curve" smooth="yes"/>
      <point x="-184" y="1159"/>
      <point x="-163" y="1143"/>
      <point x="-129" y="1128" type="curve"/>
      <point x="-117" y="1147" type="line"/>
      <point x="-142" y="1156"/>
      <point x="-161" y="1167"/>
      <point x="-161" y="1189" type="curve" smooth="yes"/>
      <point x="-161" y="1210"/>
      <point x="-146" y="1221"/>
      <point x="-120" y="1221" type="curve" smooth="yes"/>
      <point x="-95" y="1221"/>
      <point x="-74" y="1208"/>
      <point x="-74" y="1179" type="curve" smooth="yes"/>
      <point x="-74" y="1156"/>
      <point x="-79" y="1146"/>
      <point x="-108" y="1121" type="curve" smooth="yes"/>
      <point x="-125" y="1107"/>
      <point x="-151" y="1089"/>
      <point x="-181" y="1073" type="curve"/>
      <point x="-182" y="1066" type="line"/>
      <point x="-97" y="1002" type="line" smooth="yes"/>
      <point x="-75" y="985"/>
      <point x="-68" y="974"/>
      <point x="-68" y="959" type="curve" smooth="yes"/>
      <point x="-68" y="945"/>
      <point x="-75" y="932"/>
      <point x="-85" y="921" type="curve"/>
      <point x="-67" y="908" type="line"/>
      <point x="-56" y="922"/>
      <point x="-45" y="936"/>
      <point x="-45" y="957" type="curve" smooth="yes"/>
      <point x="-45" y="979"/>
      <point x="-52" y="996"/>
      <point x="-78" y="1016" type="curve" smooth="yes"/>
      <point x="-157" y="1075" type="line"/>
      <point x="-156" y="1061" type="line"/>
      <point x="-75" y="1113"/>
      <point x="-51" y="1139"/>
      <point x="-51" y="1179" type="curve" smooth="yes"/>
      <point x="-51" y="1217"/>
      <point x="-77" y="1243"/>
    </contour>
  </outline>
</glyph>
<glyph name="uniA8E2" format="2">
  <unicode hex="A8E2"/>
  <outline>
    <contour>
      <point x="-175" y="1079" type="curve"/>
      <point x="-125" y="1058" type="line"/>
      <point x="-95" y="1031"/>
      <point x="-64" y="998"/>
      <point x="-19" y="939" type="curve"/>
      <point x="0" y="953" type="line"/>
      <point x="-28" y="990"/>
      <point x="-71" y="1039"/>
      <point x="-101" y="1065" type="curve" smooth="yes"/>
      <point x="-103" y="1066"/>
      <point x="-104" y="1068"/>
      <point x="-108" y="1070" type="curve"/>
      <point x="-132" y="1092"/>
      <point x="-150" y="1098"/>
      <point x="-164" y="1098" type="curve" smooth="yes"/>
      <point x="-182" y="1098"/>
      <point x="-193" y="1091"/>
      <point x="-193" y="1077" type="curve" smooth="yes"/>
      <point x="-193" y="1057"/>
      <point x="-174" y="1050"/>
      <point x="-145" y="1050" type="curve" smooth="yes"/>
      <point x="-81" y="1050"/>
      <point x="-29" y="1090"/>
      <point x="-29" y="1154" type="curve" smooth="yes"/>
      <point x="-29" y="1215"/>
      <point x="-70" y="1243"/>
      <point x="-122" y="1243" type="curve" smooth="yes"/>
      <point x="-150" y="1243"/>
      <point x="-177" y="1236"/>
      <point x="-201" y="1226" type="curve"/>
      <point x="-192" y="1205" type="line"/>
      <point x="-167" y="1216"/>
      <point x="-143" y="1221"/>
      <point x="-121" y="1221" type="curve" smooth="yes"/>
      <point x="-79" y="1221"/>
      <point x="-52" y="1197"/>
      <point x="-52" y="1154" type="curve" smooth="yes"/>
      <point x="-52" y="1107"/>
      <point x="-87" y="1071"/>
      <point x="-145" y="1071" type="curve"/>
      <point x="-155" y="1071"/>
      <point x="-160" y="1077"/>
    </contour>
  </outline>
</glyph>
<glyph name="uniA8E3" format="2">
  <unicode hex="A8E3"/>
  <outline>
    <contour>
      <point x="-53" y="919" type="curve"/>
      <point x="-33" y="932" type="line"/>
      <point x="-55" y="958"/>
      <point x="-83" y="990"/>
      <point x="-109" y="1011" type="curve" smooth="yes"/>
      <point x="-109" y="1013"/>
      <point x="-112" y="1012"/>
      <point x="-111" y="1014" type="curve"/>
      <point x="-132" y="1033"/>
      <point x="-151" y="1040"/>
      <point x="-166" y="1040" type="curve" smooth="yes"/>
      <point x="-183" y="1040"/>
      <point x="-194" y="1033"/>
      <point x="-194" y="1019" type="curve" smooth="yes"/>
      <point x="-194" y="999"/>
      <point x="-175" y="992"/>
      <point x="-148" y="992" type="curve" smooth="yes"/>
      <point x="-75" y="992"/>
      <point x="-33" y="1018"/>
      <point x="-33" y="1067" type="curve" smooth="yes"/>
      <point x="-33" y="1099"/>
      <point x="-54" y="1127"/>
      <point x="-108" y="1134" type="curve"/>
      <point x="-120" y="1121" type="line"/>
      <point x="-77" y="1115"/>
      <point x="-56" y="1095"/>
      <point x="-56" y="1068" type="curve" smooth="yes"/>
      <point x="-56" y="1036"/>
      <point x="-83" y="1013"/>
      <point x="-135" y="1013" type="curve"/>
      <point x="-135" y="1007" type="line"/>
      <point x="-109" y="984"/>
      <point x="-84" y="957"/>
    </contour>
    <contour>
      <point x="-160" y="1135" type="curve"/>
      <point x="-159" y="1113" type="line"/>
      <point x="-133" y="1113"/>
      <point x="-114" y="1116"/>
      <point x="-97" y="1120" type="curve" smooth="yes"/>
      <point x="-97" y="1121"/>
      <point x="-95" y="1124"/>
      <point x="-93" y="1125" type="curve" smooth="yes"/>
      <point x="-65" y="1136"/>
      <point x="-49" y="1155"/>
      <point x="-49" y="1181" type="curve" smooth="yes"/>
      <point x="-49" y="1223"/>
      <point x="-81" y="1243"/>
      <point x="-126" y="1243" type="curve" smooth="yes"/>
      <point x="-161" y="1243"/>
      <point x="-189" y="1234"/>
      <point x="-208" y="1225" type="curve"/>
      <point x="-199" y="1204" type="line"/>
      <point x="-173" y="1216"/>
      <point x="-149" y="1221"/>
      <point x="-125" y="1221" type="curve" smooth="yes"/>
      <point x="-94" y="1221"/>
      <point x="-72" y="1207"/>
      <point x="-72" y="1180" type="curve" smooth="yes"/>
      <point x="-72" y="1158"/>
      <point x="-84" y="1135"/>
    </contour>
  </outline>
</glyph>
<glyph name="uniA8E4" format="2">
  <unicode hex="A8E4"/>
  <outline>
    <contour>
      <point x="-106" y="942" type="curve" smooth="yes"/>
      <point x="-63" y="942"/>
      <point x="-38" y="967"/>
      <point x="-38" y="1002" type="curve" smooth="yes"/>
      <point x="-38" y="1024"/>
      <point x="-43" y="1052"/>
      <point x="-98" y="1101" type="curve"/>
      <point x="-102" y="1105" type="line"/>
      <point x="-177" y="1173"/>
      <point x="-185" y="1191"/>
      <point x="-185" y="1216" type="curve" smooth="yes"/>
      <point x="-185" y="1223"/>
      <point x="-183" y="1233"/>
      <point x="-181" y="1239" type="curve"/>
      <point x="-204" y="1243" type="line"/>
      <point x="-206" y="1237"/>
      <point x="-208" y="1227"/>
      <point x="-208" y="1218" type="curve" smooth="yes"/>
      <point x="-208" y="1187"/>
      <point x="-201" y="1169"/>
      <point x="-118" y="1090" type="curve"/>
      <point x="-114" y="1086" type="line"/>
      <point x="-73" y="1049"/>
      <point x="-61" y="1030"/>
      <point x="-61" y="1004" type="curve" smooth="yes"/>
      <point x="-61" y="979"/>
      <point x="-77" y="964"/>
      <point x="-108" y="964" type="curve" smooth="yes"/>
      <point x="-136" y="964"/>
      <point x="-154" y="980"/>
      <point x="-154" y="1006" type="curve" smooth="yes"/>
      <point x="-154" y="1027"/>
      <point x="-147" y="1047"/>
      <point x="-100" y="1087" type="curve"/>
      <point x="-98" y="1089" type="line"/>
      <point x="-14" y="1167"/>
      <point x="-7" y="1184"/>
      <point x="-7" y="1219" type="curve" smooth="yes"/>
      <point x="-7" y="1227"/>
      <point x="-8" y="1236"/>
      <point x="-10" y="1243" type="curve"/>
      <point x="-33" y="1239" type="line"/>
      <point x="-31" y="1231"/>
      <point x="-30" y="1222"/>
      <point x="-30" y="1217" type="curve" smooth="yes"/>
      <point x="-30" y="1194"/>
      <point x="-34" y="1173"/>
      <point x="-114" y="1103" type="curve"/>
      <point x="-116" y="1101" type="line"/>
      <point x="-172" y="1051"/>
      <point x="-177" y="1029"/>
      <point x="-177" y="1004" type="curve" smooth="yes"/>
      <point x="-177" y="961"/>
      <point x="-142" y="942"/>
    </contour>
  </outline>
</glyph>
<glyph name="uniA8E5" format="2">
  <unicode hex="A8E5"/>
  <outline>
    <contour>
      <point x="-22" y="911" type="curve"/>
      <point x="0" y="921" type="line"/>
      <point x="-26" y="961"/>
      <point x="-58" y="1030"/>
      <point x="-71" y="1060" type="curve"/>
      <point x="-76" y="1074" type="line"/>
      <point x="-87" y="1071"/>
      <point x="-104" y="1069"/>
      <point x="-115" y="1069" type="curve" smooth="yes"/>
      <point x="-164" y="1069"/>
      <point x="-192" y="1099"/>
      <point x="-192" y="1143" type="curve" smooth="yes"/>
      <point x="-192" y="1175"/>
      <point x="-183" y="1200"/>
      <point x="-163" y="1234" type="curve"/>
      <point x="-182" y="1243" type="line"/>
      <point x="-202" y="1214"/>
      <point x="-215" y="1178"/>
      <point x="-215" y="1145" type="curve" smooth="yes"/>
      <point x="-215" y="1071"/>
      <point x="-163" y="1047"/>
      <point x="-114" y="1047" type="curve" smooth="yes"/>
      <point x="-79" y="1047"/>
      <point x="-38" y="1052"/>
      <point x="-38" y="1086" type="curve" smooth="yes"/>
      <point x="-38" y="1102"/>
      <point x="-51" y="1121"/>
      <point x="-76" y="1121" type="curve" smooth="yes"/>
      <point x="-95" y="1121"/>
      <point x="-104" y="1107"/>
      <point x="-104" y="1092" type="curve" smooth="yes"/>
      <point x="-104" y="1084"/>
      <point x="-102" y="1071"/>
      <point x="-92" y="1051" type="curve"/>
      <point x="-78" y="1018"/>
      <point x="-44" y="947"/>
    </contour>
  </outline>
</glyph>
<glyph name="uniA8E6" format="2">
  <unicode hex="A8E6"/>
  <outline>
    <contour>
      <point x="-23" y="917" type="curve"/>
      <point x="-3" y="929" type="line"/>
      <point x="-16" y="946"/>
      <point x="-40" y="985"/>
      <point x="-50" y="1006" type="curve"/>
      <point x="-50" y="1002" type="line"/>
      <point x="-34" y="1005"/>
      <point x="-19" y="1017"/>
      <point x="-19" y="1036" type="curve" smooth="yes"/>
      <point x="-19" y="1052"/>
      <point x="-32" y="1071"/>
      <point x="-57" y="1071" type="curve" smooth="yes"/>
      <point x="-76" y="1071"/>
      <point x="-85" y="1057"/>
      <point x="-85" y="1042" type="curve" smooth="yes"/>
      <point x="-85" y="1034"/>
      <point x="-82" y="1024"/>
      <point x="-79" y="1017" type="curve"/>
      <point x="-68" y="1022" type="line"/>
      <point x="-74" y="1020"/>
      <point x="-89" y="1019"/>
      <point x="-99" y="1019" type="curve" smooth="yes"/>
      <point x="-145" y="1019"/>
      <point x="-173" y="1038"/>
      <point x="-173" y="1069" type="curve" smooth="yes"/>
      <point x="-173" y="1101"/>
      <point x="-146" y="1116"/>
      <point x="-105" y="1116" type="curve" smooth="yes"/>
      <point x="-95" y="1116"/>
      <point x="-81" y="1115"/>
      <point x="-76" y="1114" type="curve"/>
      <point x="-74" y="1136" type="line"/>
      <point x="-81" y="1137"/>
      <point x="-90" y="1138"/>
      <point x="-104" y="1138" type="curve" smooth="yes"/>
      <point x="-125" y="1138"/>
      <point x="-144" y="1134"/>
      <point x="-158" y="1127" type="curve" smooth="yes"/>
      <point x="-159" y="1127"/>
      <point x="-159" y="1126"/>
      <point x="-161" y="1124" type="curve"/>
      <point x="-187" y="1111"/>
      <point x="-196" y="1092"/>
      <point x="-196" y="1071" type="curve" smooth="yes"/>
      <point x="-196" y="1028"/>
      <point x="-161" y="997"/>
      <point x="-99" y="997" type="curve" smooth="yes"/>
      <point x="-82" y="997"/>
      <point x="-72" y="998"/>
      <point x="-62" y="1000" type="curve"/>
      <point x="-72" y="1001" type="line"/>
      <point x="-63" y="981"/>
      <point x="-39" y="940"/>
    </contour>
    <contour>
      <point x="-144" y="1114" type="curve"/>
      <point x="-133" y="1131" type="line"/>
      <point x="-164" y="1138"/>
      <point x="-188" y="1152"/>
      <point x="-188" y="1179" type="curve" smooth="yes"/>
      <point x="-188" y="1207"/>
      <point x="-165" y="1221"/>
      <point x="-122" y="1221" type="curve" smooth="yes"/>
      <point x="-104" y="1221"/>
      <point x="-84" y="1218"/>
      <point x="-72" y="1215" type="curve"/>
      <point x="-70" y="1237" type="line"/>
      <point x="-83" y="1240"/>
      <point x="-104" y="1243"/>
      <point x="-126" y="1243" type="curve" smooth="yes"/>
      <point x="-173" y="1243"/>
      <point x="-210" y="1222"/>
      <point x="-210" y="1182" type="curve" smooth="yes"/>
      <point x="-210" y="1146"/>
      <point x="-189" y="1126"/>
    </contour>
  </outline>
</glyph>
<glyph name="uniA8E7" format="2">
  <unicode hex="A8E7"/>
  <outline>
    <contour>
      <point x="-17" y="1072" type="curve" smooth="yes"/>
      <point x="-17" y="1153"/>
      <point x="-54" y="1201"/>
      <point x="-106" y="1201" type="curve" smooth="yes"/>
      <point x="-146" y="1201"/>
      <point x="-167" y="1176"/>
      <point x="-167" y="1145" type="curve" smooth="yes"/>
      <point x="-167" y="1110"/>
      <point x="-145" y="1079"/>
      <point x="-70" y="1074" type="curve"/>
      <point x="-67" y="1097" type="line"/>
      <point x="-134" y="1100"/>
      <point x="-144" y="1124"/>
      <point x="-144" y="1143" type="curve" smooth="yes"/>
      <point x="-144" y="1167"/>
      <point x="-128" y="1179"/>
      <point x="-106" y="1179" type="curve" smooth="yes"/>
      <point x="-63" y="1179"/>
      <point x="-40" y="1131"/>
      <point x="-40" y="1074" type="curve" smooth="yes"/>
      <point x="-40" y="1013"/>
      <point x="-58" y="988"/>
      <point x="-99" y="988" type="curve" smooth="yes"/>
      <point x="-179" y="988"/>
      <point x="-205" y="1088"/>
      <point x="-220" y="1220" type="curve"/>
      <point x="-243" y="1216" type="line"/>
      <point x="-223" y="1034"/>
      <point x="-177" y="966"/>
      <point x="-98" y="966" type="curve" smooth="yes"/>
      <point x="-47" y="966"/>
      <point x="-17" y="998"/>
    </contour>
  </outline>
</glyph>
<glyph name="uniA8E8" format="2">
  <unicode hex="A8E8"/>
  <outline>
    <contour>
      <point x="-118" y="943" type="curve" smooth="yes"/>
      <point x="-72" y="943"/>
      <point x="-34" y="960"/>
      <point x="-5" y="976" type="curve"/>
      <point x="-16" y="997" type="line"/>
      <point x="-49" y="977"/>
      <point x="-78" y="965"/>
      <point x="-118" y="965" type="curve" smooth="yes"/>
      <point x="-159" y="965"/>
      <point x="-190" y="982"/>
      <point x="-190" y="1021" type="curve" smooth="yes"/>
      <point x="-190" y="1042"/>
      <point x="-184" y="1061"/>
      <point x="-157" y="1092" type="curve" smooth="yes"/>
      <point x="-37" y="1229" type="line"/>
      <point x="-54" y="1243" type="line"/>
      <point x="-171" y="1110" type="line" smooth="yes"/>
      <point x="-199" y="1078"/>
      <point x="-213" y="1055"/>
      <point x="-213" y="1023" type="curve" smooth="yes"/>
      <point x="-213" y="965"/>
      <point x="-167" y="943"/>
    </contour>
  </outline>
</glyph>
<glyph name="uniA8E9" format="2">
  <unicode hex="A8E9"/>
  <outline>
    <contour>
      <point x="-44" y="924" type="curve"/>
      <point x="-24" y="911" type="line"/>
      <point x="-13" y="926"/>
      <point x="-5" y="940"/>
      <point x="-5" y="961" type="curve" smooth="yes"/>
      <point x="-5" y="977"/>
      <point x="-11" y="995"/>
      <point x="-35" y="1013" type="curve" smooth="yes"/>
      <point x="-113" y="1073" type="line" smooth="yes"/>
      <point x="-128" y="1084"/>
      <point x="-146" y="1097"/>
      <point x="-167" y="1108" type="curve"/>
      <point x="-151" y="1097" type="line"/>
      <point x="-104" y="1097"/>
      <point x="-73" y="1121"/>
      <point x="-73" y="1168" type="curve" smooth="yes"/>
      <point x="-73" y="1211"/>
      <point x="-102" y="1243"/>
      <point x="-149" y="1243" type="curve" smooth="yes"/>
      <point x="-194" y="1243"/>
      <point x="-224" y="1212"/>
      <point x="-224" y="1171" type="curve" smooth="yes"/>
      <point x="-224" y="1145"/>
      <point x="-216" y="1124"/>
      <point x="-175" y="1092" type="curve" smooth="yes"/>
      <point x="-48" y="995" type="line" smooth="yes"/>
      <point x="-33" y="983"/>
      <point x="-28" y="973"/>
      <point x="-28" y="960" type="curve" smooth="yes"/>
      <point x="-28" y="945"/>
      <point x="-37" y="933"/>
    </contour>
    <contour>
      <point x="-149" y="1117" type="curve" smooth="yes"/>
      <point x="-183" y="1117"/>
      <point x="-201" y="1141"/>
      <point x="-201" y="1169" type="curve" smooth="yes"/>
      <point x="-201" y="1201"/>
      <point x="-179" y="1221"/>
      <point x="-149" y="1221" type="curve" smooth="yes"/>
      <point x="-118" y="1221"/>
      <point x="-96" y="1201"/>
      <point x="-96" y="1169" type="curve" smooth="yes"/>
      <point x="-96" y="1140"/>
      <point x="-113" y="1117"/>
    </contour>
  </outline>
</glyph>
<glyph name="uniA8EA" format="2">
  <unicode hex="A8EA"/>
  <outline>
    <contour>
      <point x="-26" y="1216" type="line"/>
      <point x="32" y="1216" type="line"/>
      <point x="32" y="1238" type="line"/>
      <point x="-92" y="1238" type="line"/>
      <point x="-92" y="1216" type="line"/>
      <point x="-48" y="1216" type="line"/>
      <point x="-48" y="943" type="line"/>
      <point x="-26" y="943" type="line"/>
    </contour>
    <contour>
      <point x="-192" y="1243" type="curve" smooth="yes"/>
      <point x="-219" y="1243"/>
      <point x="-243" y="1237"/>
      <point x="-268" y="1226" type="curve"/>
      <point x="-259" y="1205" type="line"/>
      <point x="-235" y="1216"/>
      <point x="-215" y="1221"/>
      <point x="-192" y="1221" type="curve" smooth="yes"/>
      <point x="-165" y="1221"/>
      <point x="-140" y="1207"/>
      <point x="-140" y="1180" type="curve" smooth="yes"/>
      <point x="-140" y="1157"/>
      <point x="-157" y="1135"/>
      <point x="-215" y="1133" type="curve"/>
      <point x="-213" y="1111" type="line"/>
      <point x="-148" y="1115"/>
      <point x="-117" y="1142"/>
      <point x="-117" y="1180" type="curve" smooth="yes"/>
      <point x="-117" y="1217"/>
      <point x="-144" y="1243"/>
    </contour>
    <contour>
      <point x="-183" y="1127" type="line"/>
      <point x="-204" y="1128" type="line"/>
      <point x="-173" y="1110"/>
      <point x="-140" y="1080"/>
      <point x="-140" y="1049" type="curve" smooth="yes"/>
      <point x="-140" y="1016"/>
      <point x="-164" y="1008"/>
      <point x="-182" y="1008" type="curve" smooth="yes"/>
      <point x="-235" y="1008"/>
      <point x="-260" y="1039"/>
      <point x="-299" y="1120" type="curve"/>
      <point x="-321" y="1111" type="line"/>
      <point x="-281" y="1028"/>
      <point x="-244" y="986"/>
      <point x="-183" y="986" type="curve" smooth="yes"/>
      <point x="-155" y="986"/>
      <point x="-117" y="1000"/>
      <point x="-117" y="1046" type="curve" smooth="yes"/>
      <point x="-117" y="1069"/>
      <point x="-129" y="1087"/>
      <point x="-143" y="1100" type="curve"/>
      <point x="-145" y="1107" type="line"/>
      <point x="-154" y="1117"/>
      <point x="-164" y="1124"/>
      <point x="-175" y="1131" type="curve"/>
    </contour>
    <contour>
      <point x="-100" y="1109" type="curve" smooth="yes"/>
      <point x="-123" y="1109"/>
      <point x="-146" y="1111"/>
      <point x="-161" y="1116" type="curve"/>
      <point x="-169" y="1111" type="line"/>
      <point x="-147" y="1095" type="line"/>
      <point x="-135" y="1091"/>
      <point x="-115" y="1087"/>
      <point x="-98" y="1087" type="curve" smooth="yes"/>
      <point x="-75" y="1087"/>
      <point x="-57" y="1089"/>
      <point x="-36" y="1096" type="curve"/>
      <point x="-36" y="1118" type="line"/>
      <point x="-54" y="1112"/>
      <point x="-77" y="1109"/>
    </contour>
  </outline>
</glyph>
<glyph name="uniA8EB" format="2">
  <unicode hex="A8EB"/>
  <outline>
    <contour>
      <point x="-118" y="943" type="curve" smooth="yes"/>
      <point x="-73" y="943"/>
      <point x="-43" y="966"/>
      <point x="-43" y="1013" type="curve" smooth="yes"/>
      <point x="-43" y="1057"/>
      <point x="-76" y="1089"/>
      <point x="-113" y="1112" type="curve"/>
      <point x="-138" y="1105" type="line"/>
      <point x="-97" y="1080"/>
      <point x="-66" y="1053"/>
      <point x="-66" y="1013" type="curve" smooth="yes"/>
      <point x="-66" y="977"/>
      <point x="-93" y="965"/>
      <point x="-119" y="965" type="curve" smooth="yes"/>
      <point x="-173" y="965"/>
      <point x="-204" y="1009"/>
      <point x="-238" y="1089" type="curve"/>
      <point x="-259" y="1081" type="line"/>
      <point x="-217" y="978"/>
      <point x="-179" y="943"/>
    </contour>
    <contour>
      <point x="-156" y="1115" type="curve"/>
      <point x="-155" y="1093" type="line"/>
      <point x="-80" y="1095"/>
      <point x="-52" y="1127"/>
      <point x="-52" y="1167" type="curve" smooth="yes"/>
      <point x="-52" y="1203"/>
      <point x="-80" y="1225"/>
      <point x="-111" y="1234" type="curve"/>
      <point x="-128" y="1223" type="line"/>
      <point x="-95" y="1214"/>
      <point x="-75" y="1199"/>
      <point x="-75" y="1168" type="curve" smooth="yes"/>
      <point x="-75" y="1135"/>
      <point x="-96" y="1117"/>
    </contour>
    <contour>
      <point x="-275" y="1238" type="line"/>
      <point x="-275" y="1216" type="line"/>
      <point x="-8" y="1216" type="line"/>
      <point x="-8" y="1238" type="line"/>
    </contour>
  </outline>
</glyph>
<glyph name="uniA8EC" format="2">
  <unicode hex="A8EC"/>
  <outline>
    <contour>
      <point x="44" y="1216" type="line"/>
      <point x="44" y="1238" type="line"/>
      <point x="-323" y="1238" type="line"/>
      <point x="-323" y="1216" type="line"/>
      <point x="-134" y="1216" type="line"/>
      <point x="-134" y="1075" type="line"/>
      <point x="-157" y="1050"/>
      <point x="-178" y="1035"/>
      <point x="-210" y="1035" type="curve" smooth="yes"/>
      <point x="-239" y="1035"/>
      <point x="-271" y="1046"/>
      <point x="-271" y="1091" type="curve" smooth="yes"/>
      <point x="-271" y="1125"/>
      <point x="-246" y="1149"/>
      <point x="-199" y="1149" type="curve" smooth="yes"/>
      <point x="-183" y="1149"/>
      <point x="-166" y="1147"/>
      <point x="-153" y="1144" type="curve"/>
      <point x="-150" y="1166" type="line"/>
      <point x="-162" y="1169"/>
      <point x="-185" y="1171"/>
      <point x="-199" y="1171" type="curve" smooth="yes"/>
      <point x="-259" y="1171"/>
      <point x="-294" y="1138"/>
      <point x="-294" y="1093" type="curve" smooth="yes"/>
      <point x="-294" y="1034"/>
      <point x="-253" y="1013"/>
      <point x="-212" y="1013" type="curve" smooth="yes"/>
      <point x="-174" y="1013"/>
      <point x="-150" y="1033"/>
      <point x="-134" y="1048" type="curve"/>
      <point x="-134" y="943" type="line"/>
      <point x="-112" y="943" type="line"/>
      <point x="-112" y="1089" type="line"/>
      <point x="-116" y="1066" type="line"/>
      <point x="-88" y="1099"/>
      <point x="-74" y="1113"/>
      <point x="-48" y="1113" type="curve" smooth="yes"/>
      <point x="-21" y="1113"/>
      <point x="-4" y="1096"/>
      <point x="-4" y="1065" type="curve" smooth="yes"/>
      <point x="-4" y="1027"/>
      <point x="-24" y="996"/>
      <point x="-37" y="981" type="curve"/>
      <point x="-16" y="969" type="line"/>
      <point x="9" y="1006"/>
      <point x="19" y="1029"/>
      <point x="19" y="1065" type="curve" smooth="yes"/>
      <point x="19" y="1107"/>
      <point x="-5" y="1135"/>
      <point x="-46" y="1135" type="curve" smooth="yes"/>
      <point x="-76" y="1135"/>
      <point x="-96" y="1119"/>
      <point x="-119" y="1091" type="curve"/>
      <point x="-112" y="1092" type="line"/>
      <point x="-112" y="1216" type="line"/>
    </contour>
  </outline>
</glyph>
<glyph name="uniA8ED" format="2">
  <unicode hex="A8ED"/>
  <outline>
    <contour>
      <point x="-278" y="1238" type="line"/>
      <point x="-278" y="1216" type="line"/>
      <point x="-82" y="1216" type="line"/>
      <point x="-82" y="1122" type="line"/>
      <point x="-237" y="1122" type="line" smooth="yes"/>
      <point x="-250" y="1122"/>
      <point x="-258" y="1119"/>
      <point x="-258" y="1103" type="curve" smooth="yes"/>
      <point x="-258" y="1082"/>
      <point x="-233" y="1050"/>
      <point x="-212" y="1050" type="curve" smooth="yes"/>
      <point x="-200" y="1050"/>
      <point x="-192" y="1054"/>
      <point x="-192" y="1076" type="curve" smooth="yes"/>
      <point x="-192" y="1100" type="line"/>
      <point x="-82" y="1100" type="line"/>
      <point x="-82" y="943" type="line"/>
      <point x="-60" y="943" type="line"/>
      <point x="-60" y="1216" type="line"/>
      <point x="-2" y="1216" type="line"/>
      <point x="-2" y="1238" type="line"/>
    </contour>
  </outline>
</glyph>
<glyph name="uniA8EE" format="2">
  <unicode hex="A8EE"/>
  <outline>
    <contour>
      <point x="-50" y="1216" type="line"/>
      <point x="8" y="1216" type="line"/>
      <point x="8" y="1238" type="line"/>
      <point x="-278" y="1238" type="line"/>
      <point x="-278" y="1216" type="line"/>
      <point x="-226" y="1216" type="line"/>
      <point x="-226" y="1117" type="line" smooth="yes"/>
      <point x="-226" y="1082"/>
      <point x="-220" y="1065"/>
      <point x="-207" y="1050" type="curve" smooth="yes"/>
      <point x="-194" y="1035"/>
      <point x="-174" y="1025"/>
      <point x="-149" y="1025" type="curve" smooth="yes"/>
      <point x="-111" y="1025"/>
      <point x="-87" y="1042"/>
      <point x="-72" y="1055" type="curve"/>
      <point x="-72" y="943" type="line"/>
      <point x="-50" y="943" type="line"/>
    </contour>
    <contour>
      <point x="-204" y="1216" type="line"/>
      <point x="-72" y="1216" type="line"/>
      <point x="-72" y="1083" type="line"/>
      <point x="-92" y="1062"/>
      <point x="-115" y="1047"/>
      <point x="-147" y="1047" type="curve" smooth="yes"/>
      <point x="-167" y="1047"/>
      <point x="-179" y="1052"/>
      <point x="-188" y="1061" type="curve" smooth="yes"/>
      <point x="-201" y="1074"/>
      <point x="-204" y="1093"/>
      <point x="-204" y="1128" type="curve" smooth="yes"/>
    </contour>
  </outline>
</glyph>
<glyph name="uniA8EF" format="2">
  <unicode hex="A8EF"/>
  <outline>
    <contour>
      <point x="-47" y="941" type="curve"/>
      <point x="-31" y="957" type="line"/>
      <point x="-79" y="996"/>
      <point x="-129" y="1041"/>
      <point x="-163" y="1083" type="curve"/>
      <point x="-162" y="1070" type="line"/>
      <point x="-115" y="1093"/>
      <point x="-75" y="1118"/>
      <point x="-75" y="1171" type="curve" smooth="yes"/>
      <point x="-75" y="1189"/>
      <point x="-79" y="1211"/>
      <point x="-85" y="1223" type="curve"/>
      <point x="-91" y="1216" type="line"/>
      <point x="-16" y="1216" type="line"/>
      <point x="-16" y="1238" type="line"/>
      <point x="-224" y="1238" type="line"/>
      <point x="-224" y="1216" type="line"/>
      <point x="-96" y="1216" type="line"/>
      <point x="-112" y="1226" type="line"/>
      <point x="-104" y="1213"/>
      <point x="-98" y="1193"/>
      <point x="-98" y="1172" type="curve" smooth="yes"/>
      <point x="-98" y="1133"/>
      <point x="-122" y="1113"/>
      <point x="-156" y="1099" type="curve"/>
      <point x="-128" y="1094" type="line"/>
      <point x="-142" y="1118"/>
      <point x="-156" y="1130"/>
      <point x="-173" y="1130" type="curve" smooth="yes"/>
      <point x="-186" y="1130"/>
      <point x="-195" y="1121"/>
      <point x="-195" y="1108" type="curve" smooth="yes"/>
      <point x="-195" y="1096"/>
      <point x="-190" y="1085"/>
      <point x="-180" y="1071" type="curve" smooth="yes"/>
      <point x="-155" y="1037"/>
      <point x="-115" y="1000"/>
    </contour>
  </outline>
</glyph>
<glyph name="uniA8F0" format="2">
  <unicode hex="A8F0"/>
  <outline>
    <contour>
      <point x="-52" y="943" type="line"/>
      <point x="-30" y="943" type="line"/>
      <point x="-30" y="1216" type="line"/>
      <point x="28" y="1216" type="line"/>
      <point x="28" y="1238" type="line"/>
      <point x="-236" y="1238" type="line"/>
      <point x="-236" y="1216" type="line"/>
      <point x="-52" y="1216" type="line"/>
      <point x="-52" y="1069" type="line"/>
      <point x="-74" y="1047"/>
      <point x="-95" y="1035"/>
      <point x="-128" y="1035" type="curve" smooth="yes"/>
      <point x="-157" y="1035"/>
      <point x="-189" y="1047"/>
      <point x="-189" y="1091" type="curve" smooth="yes"/>
      <point x="-189" y="1125"/>
      <point x="-164" y="1149"/>
      <point x="-117" y="1149" type="curve" smooth="yes"/>
      <point x="-101" y="1149"/>
      <point x="-83" y="1147"/>
      <point x="-71" y="1144" type="curve"/>
      <point x="-68" y="1166" type="line"/>
      <point x="-80" y="1169"/>
      <point x="-103" y="1171"/>
      <point x="-117" y="1171" type="curve" smooth="yes"/>
      <point x="-177" y="1171"/>
      <point x="-212" y="1139"/>
      <point x="-212" y="1091" type="curve" smooth="yes"/>
      <point x="-212" y="1034"/>
      <point x="-171" y="1013"/>
      <point x="-130" y="1013" type="curve" smooth="yes"/>
      <point x="-95" y="1013"/>
      <point x="-73" y="1023"/>
      <point x="-52" y="1040" type="curve"/>
    </contour>
    <contour>
      <point x="-302" y="1216" type="line"/>
      <point x="-302" y="943" type="line"/>
      <point x="-280" y="943" type="line"/>
      <point x="-280" y="1216" type="line"/>
      <point x="-235" y="1216" type="line"/>
      <point x="-235" y="1238" type="line"/>
      <point x="-354" y="1238" type="line"/>
      <point x="-354" y="1216" type="line"/>
    </contour>
    <contour>
      <point x="-304" y="1238" type="curve"/>
      <point x="-281" y="1238" type="line"/>
      <point x="-288" y="1250"/>
      <point x="-293" y="1264"/>
      <point x="-293" y="1279" type="curve" smooth="yes"/>
      <point x="-293" y="1307"/>
      <point x="-272" y="1325"/>
      <point x="-225" y="1325" type="curve" smooth="yes"/>
      <point x="-164" y="1325"/>
      <point x="-111" y="1295"/>
      <point x="-57" y="1236" type="curve"/>
      <point x="-32" y="1236" type="line"/>
      <point x="-81" y="1300"/>
      <point x="-150" y="1347"/>
      <point x="-227" y="1347" type="curve" smooth="yes"/>
      <point x="-283" y="1347"/>
      <point x="-315" y="1320"/>
      <point x="-315" y="1283" type="curve" smooth="yes"/>
      <point x="-315" y="1264"/>
      <point x="-310" y="1251"/>
    </contour>
  </outline>
</glyph>
<glyph name="uniA8F1" format="2">
  <unicode hex="A8F1"/>
  <outline>
    <contour>
      <point x="-38" y="1216" type="line"/>
      <point x="-38" y="1238" type="line"/>
      <point x="-84" y="1238" type="line" smooth="yes"/>
      <point x="-122" y="1238"/>
      <point x="-139" y="1233"/>
      <point x="-152" y="1222" type="curve" smooth="yes"/>
      <point x="-161" y="1214"/>
      <point x="-167" y="1204"/>
      <point x="-167" y="1187" type="curve" smooth="yes"/>
      <point x="-167" y="1165"/>
      <point x="-158" y="1148"/>
      <point x="-110" y="1113" type="curve" smooth="yes"/>
      <point x="-73" y="1086"/>
      <point x="-53" y="1065"/>
      <point x="-53" y="1036" type="curve" smooth="yes"/>
      <point x="-53" y="1013"/>
      <point x="-67" y="994"/>
      <point x="-100" y="994" type="curve" smooth="yes"/>
      <point x="-141" y="994"/>
      <point x="-168" y="1024"/>
      <point x="-193" y="1065" type="curve"/>
      <point x="-214" y="1053" type="line"/>
      <point x="-174" y="987"/>
      <point x="-135" y="972"/>
      <point x="-98" y="972" type="curve" smooth="yes"/>
      <point x="-60" y="972"/>
      <point x="-30" y="993"/>
      <point x="-30" y="1035" type="curve" smooth="yes"/>
      <point x="-30" y="1070"/>
      <point x="-47" y="1093"/>
      <point x="-93" y="1128" type="curve" smooth="yes"/>
      <point x="-136" y="1160"/>
      <point x="-145" y="1168"/>
      <point x="-145" y="1188" type="curve" smooth="yes"/>
      <point x="-145" y="1206"/>
      <point x="-130" y="1216"/>
      <point x="-100" y="1216" type="curve" smooth="yes"/>
    </contour>
  </outline>
</glyph>
<glyph name="uniA8F5" format="2">
  <advance width="481"/>
  <unicode hex="A8F5"/>
  <outline>
    <contour>
      <point x="241" y="290" type="curve" smooth="yes"/>
      <point x="188" y="290"/>
      <point x="145" y="279"/>
      <point x="95" y="259" type="curve"/>
      <point x="104" y="234" type="line"/>
      <point x="157" y="255"/>
      <point x="192" y="264"/>
      <point x="242" y="264" type="curve" smooth="yes"/>
      <point x="321" y="264"/>
      <point x="377" y="225"/>
      <point x="377" y="144" type="curve" smooth="yes"/>
      <point x="377" y="59"/>
      <point x="304" y="-6"/>
      <point x="217" y="-6" type="curve" smooth="yes"/>
      <point x="212" y="-6"/>
      <point x="199" y="-7"/>
      <point x="187" y="-5" type="curve"/>
      <point x="226" y="-14" type="line"/>
      <point x="280" y="-58"/>
      <point x="344" y="-124"/>
      <point x="412" y="-202" type="curve"/>
      <point x="431" y="-186" type="line"/>
      <point x="365" y="-113"/>
      <point x="310" y="-55"/>
      <point x="258" y="-11" type="curve"/>
      <point x="254" y="-4" type="line"/>
      <point x="221" y="23"/>
      <point x="196" y="35"/>
      <point x="169" y="35" type="curve" smooth="yes"/>
      <point x="143" y="35"/>
      <point x="130" y="24"/>
      <point x="130" y="5" type="curve" smooth="yes"/>
      <point x="130" y="-12"/>
      <point x="146" y="-35"/>
      <point x="197" y="-35" type="curve" smooth="yes"/>
      <point x="317" y="-35"/>
      <point x="404" y="40"/>
      <point x="404" y="145" type="curve" smooth="yes"/>
      <point x="404" y="248"/>
      <point x="325" y="290"/>
    </contour>
    <component base="candrabindudeva" xOffset="364" yOffset="-317"/>
  </outline>
</glyph>
<glyph name="uniA8F6" format="2">
  <advance width="481"/>
  <unicode hex="A8F6"/>
  <outline>
    <contour>
      <point x="194" y="-136" type="curve" smooth="yes"/>
      <point x="344" y="-136"/>
      <point x="405" y="-78"/>
      <point x="405" y="-8" type="curve" smooth="yes"/>
      <point x="405" y="52"/>
      <point x="360" y="97"/>
      <point x="270" y="102" type="curve"/>
      <point x="253" y="83" type="line"/>
      <point x="341" y="79"/>
      <point x="378" y="44"/>
      <point x="378" y="-8" type="curve" smooth="yes"/>
      <point x="378" y="-65"/>
      <point x="329" y="-107"/>
      <point x="218" y="-111" type="curve"/>
      <point x="230" y="-123" type="line"/>
      <point x="272" y="-158"/>
      <point x="319" y="-205"/>
      <point x="371" y="-265" type="curve"/>
      <point x="390" y="-249" type="line"/>
      <point x="343" y="-197"/>
      <point x="299" y="-153"/>
      <point x="256" y="-116" type="curve"/>
      <point x="253" y="-111" type="line"/>
      <point x="225" y="-82"/>
      <point x="191" y="-66"/>
      <point x="163" y="-66" type="curve" smooth="yes"/>
      <point x="137" y="-66"/>
      <point x="124" y="-77"/>
      <point x="124" y="-96" type="curve" smooth="yes"/>
      <point x="124" y="-115"/>
      <point x="141" y="-136"/>
    </contour>
    <contour>
      <point x="242" y="290" type="curve" smooth="yes"/>
      <point x="189" y="290"/>
      <point x="145" y="279"/>
      <point x="95" y="259" type="curve"/>
      <point x="105" y="234" type="line"/>
      <point x="157" y="255"/>
      <point x="192" y="264"/>
      <point x="242" y="264" type="curve" smooth="yes"/>
      <point x="314" y="264"/>
      <point x="353" y="236"/>
      <point x="353" y="186" type="curve" smooth="yes"/>
      <point x="353" y="136"/>
      <point x="321" y="98"/>
      <point x="190" y="97" type="curve"/>
      <point x="191" y="71" type="line"/>
      <point x="239" y="72"/>
      <point x="264" y="77"/>
      <point x="289" y="84" type="curve"/>
      <point x="292" y="88" type="line"/>
      <point x="349" y="105"/>
      <point x="380" y="135"/>
      <point x="380" y="186" type="curve" smooth="yes"/>
      <point x="380" y="251"/>
      <point x="327" y="290"/>
    </contour>
    <component base="candrabindudeva" xOffset="364" yOffset="-317"/>
  </outline>
</glyph>
<glyph name="uniA8F7" format="2">
  <advance width="481"/>
  <unicode hex="A8F7"/>
  <outline>
    <contour>
      <point x="365" y="264" type="line"/>
      <point x="365" y="290" type="line"/>
      <point x="273" y="290" type="line" smooth="yes"/>
      <point x="217" y="290"/>
      <point x="193" y="284"/>
      <point x="169" y="265" type="curve" smooth="yes"/>
      <point x="153" y="253"/>
      <point x="143" y="233"/>
      <point x="143" y="209" type="curve" smooth="yes"/>
      <point x="143" y="176"/>
      <point x="156" y="146"/>
      <point x="249" y="82" type="curve" smooth="yes"/>
      <point x="325" y="30"/>
      <point x="354" y="-1"/>
      <point x="354" y="-53" type="curve" smooth="yes"/>
      <point x="354" y="-111"/>
      <point x="316" y="-138"/>
      <point x="255" y="-138" type="curve" smooth="yes"/>
      <point x="181" y="-138"/>
      <point x="132" y="-92"/>
      <point x="84" y="-18" type="curve"/>
      <point x="61" y="-31" type="line"/>
      <point x="128" y="-130"/>
      <point x="182" y="-164"/>
      <point x="257" y="-164" type="curve" smooth="yes"/>
      <point x="323" y="-164"/>
      <point x="381" y="-128"/>
      <point x="381" y="-53" type="curve" smooth="yes"/>
      <point x="381" y="-10"/>
      <point x="367" y="32"/>
      <point x="275" y="95" type="curve" smooth="yes"/>
      <point x="190" y="153"/>
      <point x="170" y="175"/>
      <point x="170" y="211" type="curve" smooth="yes"/>
      <point x="170" y="226"/>
      <point x="176" y="239"/>
      <point x="189" y="248" type="curve" smooth="yes"/>
      <point x="205" y="259"/>
      <point x="221" y="264"/>
      <point x="268" y="264" type="curve" smooth="yes"/>
    </contour>
    <component base="candrabindudeva" xOffset="364" yOffset="-317"/>
  </outline>
</glyph>
<glyph name="uniA8F8" format="2">
  <advance width="697"/>
  <unicode hex="A8F8"/>
  <outline>
    <contour>
      <point x="288" y="26" type="curve" smooth="yes"/>
      <point x="210" y="26"/>
      <point x="151" y="61"/>
      <point x="151" y="135" type="curve" smooth="yes"/>
      <point x="151" y="206"/>
      <point x="201" y="241"/>
      <point x="264" y="241" type="curve" smooth="yes"/>
      <point x="277" y="241"/>
      <point x="289" y="240"/>
      <point x="297" y="239" type="curve"/>
      <point x="298" y="265" type="line"/>
      <point x="289" y="266"/>
      <point x="276" y="267"/>
      <point x="265" y="267" type="curve" smooth="yes"/>
      <point x="240" y="267"/>
      <point x="214" y="261"/>
      <point x="194" y="251" type="curve"/>
      <point x="190" y="249"/>
      <point x="187" y="246"/>
      <point x="183" y="244" type="curve" smooth="yes"/>
      <point x="143" y="219"/>
      <point x="124" y="183"/>
      <point x="124" y="135" type="curve" smooth="yes"/>
      <point x="124" y="53"/>
      <point x="188" y="0"/>
      <point x="290" y="0" type="curve" smooth="yes"/>
      <point x="500" y="0"/>
      <point x="626" y="157"/>
      <point x="626" y="320" type="curve" smooth="yes"/>
      <point x="626" y="437"/>
      <point x="561" y="493"/>
      <point x="486" y="493" type="curve" smooth="yes"/>
      <point x="409" y="493"/>
      <point x="361" y="443"/>
      <point x="361" y="375" type="curve" smooth="yes"/>
      <point x="361" y="304"/>
      <point x="412" y="244"/>
      <point x="530" y="215" type="curve"/>
      <point x="539" y="240" type="line"/>
      <point x="437" y="260"/>
      <point x="388" y="314"/>
      <point x="388" y="374" type="curve" smooth="yes"/>
      <point x="388" y="427"/>
      <point x="421" y="467"/>
      <point x="486" y="467" type="curve" smooth="yes"/>
      <point x="556" y="467"/>
      <point x="599" y="410"/>
      <point x="599" y="321" type="curve" smooth="yes"/>
      <point x="599" y="169"/>
      <point x="484" y="26"/>
    </contour>
    <contour>
      <point x="202" y="233" type="curve"/>
      <point x="218" y="254" type="line"/>
      <point x="152" y="270"/>
      <point x="94" y="304"/>
      <point x="94" y="369" type="curve" smooth="yes"/>
      <point x="94" y="434"/>
      <point x="134" y="467"/>
      <point x="207" y="467" type="curve" smooth="yes"/>
      <point x="234" y="467"/>
      <point x="260" y="463"/>
      <point x="280" y="456" type="curve"/>
      <point x="283" y="482" type="line"/>
      <point x="263" y="488"/>
      <point x="237" y="493"/>
      <point x="206" y="493" type="curve" smooth="yes"/>
      <point x="132" y="493"/>
      <point x="67" y="455"/>
      <point x="67" y="371" type="curve" smooth="yes"/>
      <point x="67" y="303"/>
      <point x="121" y="251"/>
    </contour>
  </outline>
</glyph>
<glyph name="uniA8F9" format="2">
  <advance width="641"/>
  <unicode hex="A8F9"/>
  <outline>
    <contour>
      <point x="232" y="26" type="curve" smooth="yes"/>
      <point x="154" y="26"/>
      <point x="95" y="61"/>
      <point x="95" y="135" type="curve" smooth="yes"/>
      <point x="95" y="206"/>
      <point x="145" y="241"/>
      <point x="208" y="241" type="curve" smooth="yes"/>
      <point x="221" y="241"/>
      <point x="233" y="240"/>
      <point x="241" y="239" type="curve"/>
      <point x="242" y="265" type="line"/>
      <point x="233" y="266"/>
      <point x="220" y="267"/>
      <point x="209" y="267" type="curve" smooth="yes"/>
      <point x="125" y="267"/>
      <point x="68" y="212"/>
      <point x="68" y="136" type="curve" smooth="yes"/>
      <point x="68" y="52"/>
      <point x="132" y="0"/>
      <point x="234" y="0" type="curve" smooth="yes"/>
      <point x="444" y="0"/>
      <point x="570" y="157"/>
      <point x="570" y="320" type="curve" smooth="yes"/>
      <point x="570" y="437"/>
      <point x="508" y="493"/>
      <point x="430" y="493" type="curve" smooth="yes"/>
      <point x="352" y="493"/>
      <point x="305" y="443"/>
      <point x="305" y="378" type="curve" smooth="yes"/>
      <point x="305" y="332"/>
      <point x="322" y="295"/>
      <point x="345" y="256" type="curve"/>
      <point x="371" y="268" type="line"/>
      <point x="348" y="303"/>
      <point x="332" y="337"/>
      <point x="332" y="376" type="curve" smooth="yes"/>
      <point x="332" y="427"/>
      <point x="363" y="467"/>
      <point x="430" y="467" type="curve" smooth="yes"/>
      <point x="502" y="467"/>
      <point x="543" y="410"/>
      <point x="543" y="321" type="curve" smooth="yes"/>
      <point x="543" y="169"/>
      <point x="428" y="26"/>
    </contour>
  </outline>
</glyph>
<glyph name="uniA8FA" format="2">
  <unicode hex="A8FA"/>
  <outline>
    <contour>
      <point x="-145" y="896" type="line"/>
      <point x="-5" y="632" type="line"/>
      <point x="6" y="632" type="line"/>
      <point x="146" y="896" type="line"/>
      <point x="117" y="896" type="line"/>
      <point x="0" y="669" type="line"/>
      <point x="-117" y="896" type="line"/>
    </contour>
  </outline>
</glyph>
<glyph name="uniA8FB" format="2">
  <advance width="680"/>
  <unicode hex="A8FB"/>
  <outline>
    <contour>
      <point x="88" y="596" type="line"/>
      <point x="608" y="596" type="line"/>
      <point x="608" y="622" type="line"/>
      <point x="88" y="622" type="line"/>
    </contour>
  </outline>
</glyph>
<glyph name="uniA8FC" format="2">
  <advance width="752"/>
  <unicode hex="A8FC"/>
  <outline>
    <contour>
      <point x="706" y="298" type="curve" smooth="yes"/>
      <point x="706" y="388"/>
      <point x="652" y="454"/>
      <point x="570" y="454" type="curve" smooth="yes"/>
      <point x="510" y="454"/>
      <point x="467" y="419"/>
      <point x="467" y="363" type="curve" smooth="yes"/>
      <point x="467" y="291"/>
      <point x="521" y="260"/>
      <point x="624" y="253" type="curve"/>
      <point x="627" y="279" type="line"/>
      <point x="520" y="286"/>
      <point x="494" y="315"/>
      <point x="494" y="363" type="curve" smooth="yes"/>
      <point x="494" y="400"/>
      <point x="516" y="428"/>
      <point x="568" y="428" type="curve" smooth="yes"/>
      <point x="633" y="428"/>
      <point x="679" y="381"/>
      <point x="679" y="296" type="curve" smooth="yes"/>
      <point x="679" y="218"/>
      <point x="643" y="155"/>
      <point x="520" y="155" type="curve" smooth="yes"/>
      <point x="411" y="155"/>
      <point x="339" y="215"/>
      <point x="231" y="332" type="curve" smooth="yes"/>
      <point x="134" y="437"/>
      <point x="91" y="464"/>
      <point x="33" y="478" type="curve"/>
      <point x="25" y="454" type="line"/>
      <point x="75" y="441"/>
      <point x="117" y="416"/>
      <point x="209" y="318" type="curve" smooth="yes"/>
      <point x="337" y="182"/>
      <point x="404" y="129"/>
      <point x="519" y="129" type="curve" smooth="yes"/>
      <point x="647" y="129"/>
      <point x="706" y="195"/>
    </contour>
  </outline>
</glyph>
<glyph name="uniA8FD" format="2">
  <advance width="542"/>
  <unicode hex="A8FD"/>
  <outline>
    <contour>
      <point x="248" y="-35" type="curve" smooth="yes"/>
      <point x="312" y="-35"/>
      <point x="358" y="-20"/>
      <point x="393" y="15" type="curve" smooth="yes"/>
      <point x="426" y="48"/>
      <point x="442" y="86"/>
      <point x="442" y="197" type="curve" smooth="yes"/>
      <point x="442" y="596" type="line"/>
      <point x="557" y="596" type="line"/>
      <point x="557" y="622" type="line"/>
      <point x="0" y="622" type="line"/>
      <point x="0" y="596" type="line"/>
      <point x="416" y="596" type="line"/>
      <point x="416" y="363" type="line"/>
      <point x="144" y="363" type="line" smooth="yes"/>
      <point x="113" y="363"/>
      <point x="102" y="351"/>
      <point x="102" y="332" type="curve" smooth="yes"/>
      <point x="102" y="302"/>
      <point x="139" y="256"/>
      <point x="171" y="256" type="curve" smooth="yes"/>
      <point x="188" y="256"/>
      <point x="200" y="267"/>
      <point x="200" y="295" type="curve" smooth="yes"/>
      <point x="200" y="337" type="line"/>
      <point x="416" y="337" type="line"/>
      <point x="416" y="207" type="line" smooth="yes"/>
      <point x="416" y="100"/>
      <point x="403" y="63"/>
      <point x="375" y="33" type="curve" smooth="yes"/>
      <point x="347" y="3"/>
      <point x="307" y="-9"/>
      <point x="246" y="-9" type="curve" smooth="yes"/>
      <point x="157" y="-9"/>
      <point x="94" y="29"/>
      <point x="34" y="93" type="curve"/>
      <point x="14" y="76" type="line"/>
      <point x="77" y="11"/>
      <point x="150" y="-35"/>
    </contour>
    <contour>
      <point x="232" y="695" type="curve" smooth="yes"/>
      <point x="313" y="695"/>
      <point x="361" y="745"/>
      <point x="383" y="845" type="curve"/>
      <point x="358" y="852" type="line"/>
      <point x="336" y="758"/>
      <point x="299" y="721"/>
      <point x="233" y="721" type="curve" smooth="yes"/>
      <point x="163" y="721"/>
      <point x="124" y="766"/>
      <point x="98" y="852" type="curve"/>
      <point x="73" y="844" type="line"/>
      <point x="104" y="749"/>
      <point x="152" y="695"/>
    </contour>
    <contour>
      <point x="231" y="797" type="curve" smooth="yes"/>
      <point x="247" y="797"/>
      <point x="257" y="807"/>
      <point x="257" y="831" type="curve" smooth="yes"/>
      <point x="257" y="853"/>
      <point x="248" y="865"/>
      <point x="231" y="865" type="curve" smooth="yes"/>
      <point x="216" y="865"/>
      <point x="205" y="854"/>
      <point x="205" y="831" type="curve" smooth="yes"/>
      <point x="205" y="808"/>
      <point x="217" y="797"/>
    </contour>
    <contour>
      <point x="416" y="614" type="curve"/>
      <point x="442" y="614" type="line"/>
      <point x="435" y="650"/>
      <point x="430" y="683"/>
      <point x="430" y="733" type="curve" smooth="yes"/>
      <point x="430" y="831"/>
      <point x="477" y="870"/>
      <point x="547" y="870" type="curve" smooth="yes"/>
      <point x="581" y="870"/>
      <point x="606" y="864"/>
      <point x="632" y="853" type="curve"/>
      <point x="639" y="878" type="line"/>
      <point x="614" y="887"/>
      <point x="583" y="896"/>
      <point x="545" y="896" type="curve" smooth="yes"/>
      <point x="464" y="896"/>
      <point x="403" y="843"/>
      <point x="403" y="734" type="curve" smooth="yes"/>
      <point x="403" y="682"/>
      <point x="411" y="649"/>
    </contour>
  </outline>
</glyph>
